<svg width="88" height="99" viewBox="0 0 88 99" fill="none" xmlns="http://www.w3.org/2000/svg">
<g clip-path="url(#clip0_59_82)">
<path d="M87.2131 14.6433C86.5187 13.9111 85.4077 13.7738 84.4819 13.7738C81.2415 13.7738 78.0011 13.362 74.5292 12.584C65.0395 10.5248 55.7349 6.63512 46.1988 0.731965C44.6249 -0.229014 43.2825 -0.229014 41.8012 0.731965C33.2835 6.08599 24.8122 9.79262 15.9705 12.0349C11.5729 13.1789 7.45292 13.7281 3.47186 13.7738C0.97212 13.7738 0 14.7806 0 17.3432V20.0431C0.601789 30.8426 2.1757 40.727 4.76802 50.2453C7.73067 61.0906 11.6654 70.014 16.8964 77.6103C23.7475 87.5862 32.1262 94.2215 42.5418 97.9281C43.0973 98.1112 43.5602 98.2027 44.0694 98.2027C44.5324 98.2027 44.949 98.1112 45.4119 97.9739C51.1983 95.9146 56.5218 92.8487 61.1047 88.8675C67.5392 83.3304 72.6775 76.4205 76.7512 67.7259C83.6023 53.2197 87.2593 36.7458 87.9537 17.3432C87.9537 16.428 87.9537 15.3755 87.2131 14.6433ZM43.2362 5.03349L44.162 5.99447C52.7259 11.2112 61.151 14.8721 70.0389 17.2059C74.344 18.3499 78.3251 18.9906 82.2599 19.1736C82.2599 19.4024 82.2599 19.6312 82.2136 19.9058V20.4092C81.1952 35.4187 78.464 48.4148 73.7885 60.0381C69.9926 69.5106 65.2246 76.9696 59.2067 82.827C54.9479 86.9455 50.041 90.1488 44.5324 92.2538C44.1157 92.4368 43.7917 92.4368 43.4214 92.2538C35.1352 89.0963 28.3304 83.6507 22.5902 75.7341C17.4982 68.6411 13.7023 60.4499 10.647 49.9249C7.86954 40.3151 6.20305 30.202 5.60126 19.1736C13.7023 18.716 21.8958 16.5652 31.3856 12.4468C35.7833 10.5248 39.9495 8.32827 43.7454 5.94871L43.1436 4.98773L43.2362 5.03349ZM4.49027 18.9906L5.60126 18.6245C5.60126 18.6245 5.60126 18.8533 5.50868 18.9448H4.49027V18.9906Z" fill="#F2CB13"/>
<path d="M40.3661 33.9087C36.8942 37.9356 34.7185 42.6032 33.1909 46.2183C32.2188 48.5521 31.3393 50.9775 31.293 52.9452C31.293 57.1552 33.0983 60.9991 36.1073 63.516C38.3756 65.3922 41.153 66.3989 44.0694 66.3989C44.7175 66.3989 45.3656 66.3531 46.0599 66.2616C49.3929 65.7125 52.4944 63.7448 54.485 60.8618C56.4292 58.0704 57.1236 54.7756 56.4755 51.6639C55.133 45.3946 52.1704 39.4457 47.6801 33.9544C46.7543 32.8104 45.597 31.6206 44.0694 31.6206C42.5418 31.6664 41.3382 32.7646 40.3661 33.9087ZM36.8942 53.9977C36.8942 52.8537 37.0794 51.6181 37.5886 50.1538C39.0236 46.1726 41.0605 42.3287 43.9768 38.2102C46.7543 42.2371 49.6707 47.042 50.9668 52.4876C50.9668 52.6249 51.0131 52.7621 51.0594 52.8994C51.1057 53.0367 51.0594 53.2198 51.0594 53.357V53.6316C51.0594 57.384 48.1893 60.4957 44.4397 60.9076C42.8658 61.0906 41.0142 60.45 39.5791 59.2144C37.9589 57.8416 36.9868 55.9196 36.9405 53.9977H36.8942Z" fill="#F2CB13"/>
</g>
<defs>
<clipPath id="clip0_59_82">
<rect width="88" height="98.2029" fill="white"/>
</clipPath>
</defs>
</svg>
