<svg width="80" height="93" viewBox="0 0 80 93" fill="none" xmlns="http://www.w3.org/2000/svg">
<g clip-path="url(#clip0_59_88)">
<path d="M80 45.7696C80 37.7491 75.4369 30.6412 68.3495 27.0872V0L24.6602 20.6516H3.39806C1.5534 20.6516 0 22.1404 0 24.0134V68.3423C0 70.1673 1.50485 71.7042 3.39806 71.7042H24.6602L68.3495 92.3557V64.5001C75.4369 60.9461 80 53.7901 80 45.8177V45.7696ZM22.6214 66.5173H5.19418V25.7904H22.6214V66.5173ZM63.1553 84.1431L27.8155 67.4298V24.8299L63.1553 8.11655V84.1431ZM68.3495 58.4487V33.0905C72.3786 36.0202 74.8058 40.6788 74.8058 45.7696C74.8058 50.8605 72.3301 55.5191 68.3495 58.4487Z" fill="#F2CB13"/>
</g>
<defs>
<clipPath id="clip0_59_88">
<rect width="80" height="92.3077" fill="white"/>
</clipPath>
</defs>
</svg>
