<svg width="109" height="67" viewBox="0 0 109 67" fill="none" xmlns="http://www.w3.org/2000/svg">
<g clip-path="url(#clip0_59_72)">
<path d="M91.8087 66.1998H8.15149C3.65772 66.1998 0 62.5837 0 58.141V8.85857C0 4.41592 3.65772 0.799805 8.15149 0.799805H91.8087C96.3025 0.799805 99.9602 4.41592 99.9602 8.85857V58.141C99.9602 62.5837 96.3025 66.1998 91.8087 66.1998ZM8.15149 5.81071C6.47939 5.81071 5.06855 7.15383 5.06855 8.85857V58.141C5.06855 59.7941 6.42713 61.1889 8.15149 61.1889H91.8087C93.4808 61.1889 94.8917 59.8458 94.8917 58.141V8.85857C94.8917 7.20549 93.5331 5.81071 91.8087 5.81071H8.15149Z" fill="#F2CB13"/>
<path d="M81.2015 52.717H18.1842C15.5193 52.717 13.3247 50.5473 13.3247 47.9127V19.9136C13.3247 17.279 15.5193 15.1094 18.1842 15.1094H81.2015C83.8664 15.1094 86.061 17.279 86.061 19.9136V47.9127C86.061 50.5473 83.8664 52.717 81.2015 52.717ZM18.1842 20.1203L18.3933 47.9127L81.2015 47.7061L80.9925 20.1203H18.1842Z" fill="#F2CB13"/>
<path d="M32.7625 52.717C31.3517 52.717 30.2021 51.5805 30.2021 50.1857V17.6407C30.2021 16.2459 31.3517 15.1094 32.7625 15.1094C34.1734 15.1094 35.323 16.2459 35.323 17.6407V50.2373C35.323 51.6321 34.1734 52.7686 32.7625 52.7686V52.717Z" fill="#F2CB13"/>
<path d="M66.3094 52.5617C64.8986 52.5617 63.749 51.4252 63.749 50.0304V17.4854C63.749 16.0906 64.8986 14.9541 66.3094 14.9541C67.7203 14.9541 68.8698 16.0906 68.8698 17.4854V50.0821C68.8698 51.4769 67.7203 52.6133 66.3094 52.6133V52.5617Z" fill="#F2CB13"/>
<path d="M49.6927 52.5617C48.2819 52.5617 47.1323 51.4252 47.1323 50.0304V17.4854C47.1323 16.0906 48.2819 14.9541 49.6927 14.9541C51.1036 14.9541 52.2531 16.0906 52.2531 17.4854V50.0821C52.2531 51.4769 51.1036 52.6133 49.6927 52.6133V52.5617Z" fill="#F2CB13"/>
<path d="M104.088 49.7208H97.5565C96.1457 49.7208 94.9961 48.5843 94.9961 47.1895C94.9961 45.7947 96.1457 44.6582 97.5565 44.6582H104.088L103.931 22.0317L97.6087 22.2383C96.1979 22.2383 95.0483 21.1018 95.0483 19.7071C95.0483 18.3123 96.1979 17.1758 97.6087 17.1758H104.14C106.858 17.1758 109.052 19.3454 109.052 22.0317V44.8649C109.052 47.5511 106.858 49.7208 104.14 49.7208H104.088Z" fill="#F2CB13"/>
</g>
<defs>
<clipPath id="clip0_59_72">
<rect width="109" height="65.4" fill="white" transform="translate(0 0.799805)"/>
</clipPath>
</defs>
</svg>
