<svg width="94" height="90" viewBox="0 0 94 90" fill="none" xmlns="http://www.w3.org/2000/svg">
<g clip-path="url(#clip0_63_298)">
<path d="M71.6436 61.7273H68.6113V46.18C68.6113 33.7626 58.4867 23.6543 46.0493 23.6543C33.6119 23.6543 23.4872 33.7626 23.4872 46.18V61.7273H20.455C19.0159 61.7273 17.8853 62.8561 17.8853 64.2928C17.8853 65.7295 19.0159 66.8584 20.455 66.8584H30.1171V87.4342C30.1171 88.8709 31.2477 89.9998 32.6868 89.9998C34.1258 89.9998 35.2565 88.8709 35.2565 87.4342V66.8584H56.8421V87.4342C56.8421 88.8709 57.9727 89.9998 59.4118 89.9998C60.8508 89.9998 61.9815 88.8709 61.9815 87.4342V66.8584H71.6436C73.0826 66.8584 74.2133 65.7295 74.2133 64.2928C74.2133 62.8561 73.0826 61.7273 71.6436 61.7273ZM28.6266 46.18C28.6266 36.5847 36.4386 28.7854 46.0493 28.7854C55.66 28.7854 63.4719 36.5847 63.4719 46.18V61.7273H28.5752V46.18H28.6266Z" fill="#F2CB13"/>
<path d="M45.8949 15.9065C47.3339 15.9065 48.4646 14.7776 48.4646 13.3409V2.56556C48.4646 1.12885 47.3339 0 45.8949 0C44.4559 0 43.3252 1.12885 43.3252 2.56556V13.3409C43.3252 14.7776 44.4559 15.9065 45.8949 15.9065Z" fill="#F2CB13"/>
<path d="M20.9688 24.7832C21.4828 25.2964 22.1509 25.5529 22.7676 25.5529C23.3843 25.5529 24.1039 25.2964 24.5664 24.7832C25.5943 23.757 25.5943 22.1664 24.5664 21.1401L16.9087 13.4948C15.8808 12.4685 14.2876 12.4685 13.2597 13.4948C12.2318 14.521 12.2318 16.1116 13.2597 17.1379L20.9174 24.7832H20.9688Z" fill="#F2CB13"/>
<path d="M13.4139 44.4355H2.56971C1.13067 44.4355 0 45.5644 0 47.0011C0 48.4378 1.13067 49.5667 2.56971 49.5667H13.4139C14.8529 49.5667 15.9836 48.4378 15.9836 47.0011C15.9836 45.5644 14.8529 44.4355 13.4139 44.4355Z" fill="#F2CB13"/>
<path d="M91.4305 44.4355H80.5863C79.1473 44.4355 78.0166 45.5644 78.0166 47.0011C78.0166 48.4378 79.1473 49.5667 80.5863 49.5667H91.4305C92.8695 49.5667 94.0002 48.4378 94.0002 47.0011C94.0002 45.5644 92.8695 44.4355 91.4305 44.4355Z" fill="#F2CB13"/>
<path d="M68.7656 25.3478C69.4338 25.3478 70.1019 25.0913 70.5644 24.5782L78.2222 16.9328C79.2501 15.9066 79.2501 14.3159 78.2222 13.2897C77.1943 12.2635 75.6011 12.2635 74.5732 13.2897L66.9154 20.9351C65.8876 21.9613 65.8876 23.5519 66.9154 24.5782C67.4294 25.0913 68.0975 25.3478 68.7142 25.3478H68.7656Z" fill="#F2CB13"/>
</g>
<defs>
<clipPath id="clip0_63_298">
<rect width="94" height="90" fill="white"/>
</clipPath>
</defs>
</svg>
