<svg width="109" height="102" viewBox="0 0 109 102" fill="none" xmlns="http://www.w3.org/2000/svg">
<g clip-path="url(#clip0_91_579)">
<path d="M2.83155 66.1701C1.2683 66.1701 0 65.039 0 63.6448V37.8265C0 36.4324 1.2683 35.3013 2.83155 35.3013C4.3948 35.3013 5.6631 36.4324 5.6631 37.8265V63.6448C5.6631 65.039 4.3948 66.1701 2.83155 66.1701Z" fill="#F2CB13"/>
<path d="M106.168 66.1701C104.605 66.1701 103.337 65.039 103.337 63.6448V37.8265C103.337 36.4324 104.605 35.3013 106.168 35.3013C107.732 35.3013 109 36.4324 109 37.8265V63.6448C109 65.039 107.732 66.1701 106.168 66.1701Z" fill="#F2CB13"/>
<path d="M17.5938 83.1892C16.0305 83.1892 14.7622 82.0581 14.7622 80.6639V20.8202C14.7622 19.426 16.0305 18.2949 17.5938 18.2949C19.157 18.2949 20.4253 19.426 20.4253 20.8202V80.6639C20.4253 82.0581 19.157 83.1892 17.5938 83.1892Z" fill="#F2CB13"/>
<path d="M91.4063 79.0331C89.843 79.0331 88.5747 77.902 88.5747 76.5078V24.9764C88.5747 23.5823 89.843 22.4512 91.4063 22.4512C92.9695 22.4512 94.2378 23.5823 94.2378 24.9764V76.4947C94.2378 77.8888 92.9695 79.0199 91.4063 79.0199V79.0331Z" fill="#F2CB13"/>
<path d="M61.8814 79.0331C60.3181 79.0331 59.0498 77.902 59.0498 76.5078V24.9764C59.0498 23.5823 60.3181 22.4512 61.8814 22.4512C63.4446 22.4512 64.7129 23.5823 64.7129 24.9764V76.4947C64.7129 77.8888 63.4446 79.0199 61.8814 79.0199V79.0331Z" fill="#F2CB13"/>
<path d="M32.3565 101.484C30.7932 101.484 29.5249 100.353 29.5249 98.9592V2.52527C29.5249 1.13111 30.7932 0 32.3565 0C33.9197 0 35.188 1.13111 35.188 2.52527V98.946C35.188 100.34 33.9197 101.471 32.3565 101.471V101.484Z" fill="#F2CB13"/>
<path d="M76.6436 96.8414C75.0803 96.8414 73.812 95.7103 73.812 94.3161V7.16785C73.812 5.77369 75.0803 4.64258 76.6436 4.64258C78.2068 4.64258 79.4751 5.77369 79.4751 7.16785V94.3161C79.4751 95.7103 78.2068 96.8414 76.6436 96.8414Z" fill="#F2CB13"/>
<path d="M47.1187 96.8414C45.5554 96.8414 44.2871 95.7103 44.2871 94.3161V7.16785C44.2871 5.77369 45.5554 4.64258 47.1187 4.64258C48.6819 4.64258 49.9502 5.77369 49.9502 7.16785V94.3161C49.9502 95.7103 48.6819 96.8414 47.1187 96.8414Z" fill="#F2CB13"/>
</g>
<defs>
<clipPath id="clip0_91_579">
<rect width="109" height="101.484" fill="white"/>
</clipPath>
</defs>
</svg>
