<svg width="143" height="102" viewBox="0 0 143 102" fill="none" xmlns="http://www.w3.org/2000/svg">
<g clip-path="url(#clip0_91_590)">
<path d="M88.526 101.484C88.1099 101.484 87.6877 101.466 87.2655 101.423L46.824 97.4039C43.4585 97.067 40.4234 95.4435 38.2817 92.8275C36.14 90.2115 35.1426 86.9093 35.4791 83.5459L42.6263 11.4316C43.3177 4.47197 49.5287 -0.631354 56.4739 0.0609332L96.9154 4.07988C100.281 4.41683 103.316 6.04034 105.458 8.65633C107.599 11.2723 108.597 14.5745 108.26 17.9379L101.113 90.0522C100.464 96.583 94.9511 101.478 88.526 101.478V101.484ZM87.6816 97.2814C92.3444 97.7409 96.5238 94.3223 96.9827 89.6479L104.13 17.5335C104.356 15.2729 103.683 13.0551 102.245 11.2968C100.807 9.53853 98.7695 8.44803 96.5054 8.22135L56.0639 4.20241C51.395 3.7368 47.2218 7.16148 46.7628 11.8359L39.6157 83.9503C39.3892 86.2109 40.0624 88.4287 41.5004 90.187C42.9384 91.9453 44.976 93.0358 47.2401 93.2624L87.6816 97.2814Z" fill="#F2CB13"/>
<path d="M74.4637 35.8274C74.0965 35.8274 73.7233 35.809 73.3561 35.7723C70.4251 35.4782 67.7877 34.063 65.9214 31.784C64.055 29.5049 63.1861 26.6316 63.4798 23.6971C63.7674 20.7625 65.1871 18.122 67.4634 16.2534C69.7397 14.3849 72.6096 13.5149 75.5407 13.809C78.4717 14.1031 81.1091 15.5183 82.9754 17.7973C84.8418 20.0763 85.7107 22.9496 85.417 25.8842C85.1294 28.8188 83.7097 31.4593 81.4334 33.3278C79.4447 34.9575 77.0031 35.8274 74.4698 35.8274H74.4637ZM74.4331 17.9137C72.8544 17.9137 71.3307 18.4528 70.0946 19.4698C68.675 20.6338 67.7938 22.2818 67.6102 24.1075C67.4267 25.9332 67.9713 27.7221 69.1339 29.1435C70.2966 30.5648 71.9426 31.447 73.7661 31.6247C75.5896 31.8085 77.3764 31.2632 78.7961 30.0992C80.2157 28.9352 81.0968 27.2872 81.2804 25.4615C81.464 23.6358 80.9194 21.8469 79.7568 20.4255C78.5941 19.0042 76.9481 18.122 75.1246 17.9443C74.892 17.9198 74.6656 17.9076 74.4331 17.9076V17.9137Z" fill="#F2CB13"/>
<path d="M70.2845 77.8549C69.9234 77.8549 69.5563 77.8365 69.1891 77.7998C66.2581 77.5057 63.6207 76.0905 61.7544 73.8115C59.888 71.5324 59.0191 68.6591 59.3128 65.7246C59.6004 62.79 61.0201 60.1495 63.2964 58.281C65.5727 56.4124 68.4426 55.5486 71.3737 55.8365C74.3047 56.1306 76.9421 57.5458 78.8084 59.8248C80.6748 62.1039 81.5437 64.9772 81.25 67.9117C80.687 73.5971 75.8835 77.8611 70.2906 77.8611L70.2845 77.8549ZM70.2661 59.9412C68.6874 59.9412 67.1637 60.4803 65.9276 61.4973C64.508 62.6614 63.6268 64.3094 63.4433 66.135C63.2597 67.9607 63.8043 69.7496 64.9669 71.171C66.1296 72.5923 67.7756 73.4745 69.5991 73.6522C73.3685 74.0259 76.7402 71.2629 77.1134 67.489C77.297 65.6633 76.7524 63.8744 75.5898 62.4531C74.4271 61.0317 72.7811 60.1495 70.9576 59.9719C70.725 59.9473 70.4986 59.9351 70.2661 59.9351V59.9412Z" fill="#F2CB13"/>
<path d="M70.297 89.5989C69.5505 89.5989 68.7917 89.5622 68.0329 89.4887C61.9872 88.8883 56.5351 85.966 52.68 81.2609C48.831 76.5558 47.0381 70.6315 47.6378 64.5724C48.8739 52.0745 60.0413 42.9216 72.5244 44.153C85.0075 45.3906 94.1556 56.5713 92.9195 69.0693C91.7569 80.8075 81.8377 89.5989 70.297 89.5989ZM70.2664 48.1965C60.8307 48.1965 52.7228 55.3828 51.7744 64.9768C51.2848 69.927 52.7473 74.773 55.8987 78.6143C59.05 82.4617 63.5048 84.851 68.449 85.3411C73.3933 85.8312 78.2336 84.367 82.0703 81.2119C85.907 78.0567 88.2996 73.5967 88.7891 68.6465C89.7988 58.4276 82.3212 49.2931 72.1205 48.2822C71.4964 48.221 70.8845 48.1904 70.2725 48.1904L70.2664 48.1965Z" fill="#F2CB13"/>
<path d="M35.0505 25.2228C34.5915 25.2228 34.1265 25.0696 33.741 24.7572L26.0798 18.5388L25.8656 20.6831C25.7922 21.4366 25.3088 22.0922 24.6112 22.3862C23.9136 22.6803 23.112 22.5762 22.5123 22.1044L7.08597 9.90668C6.18646 9.19602 6.03348 7.88496 6.7433 6.98437C7.45312 6.08379 8.76262 5.93062 9.66213 6.64129L22.1207 16.4926L22.341 14.2871C22.4206 13.5274 22.904 12.8719 23.6077 12.5778C24.3114 12.2837 25.1191 12.4001 25.7127 12.8841L36.36 21.5224C37.2534 22.2453 37.388 23.5564 36.6659 24.4447C36.256 24.9532 35.6563 25.2167 35.0505 25.2167V25.2228Z" fill="#F2CB13"/>
<path d="M35.0505 25.2228C34.5915 25.2228 34.1265 25.0696 33.741 24.7572L26.0798 18.5388L25.8656 20.6831C25.7922 21.4366 25.3088 22.0922 24.6112 22.3862C23.9136 22.6803 23.112 22.5762 22.5123 22.1044L7.08597 9.90668C6.18646 9.19602 6.03348 7.88496 6.7433 6.98437C7.45312 6.08379 8.76262 5.93062 9.66213 6.64129L22.1207 16.4926L22.341 14.2871C22.4206 13.5274 22.904 12.8719 23.6077 12.5778C24.3114 12.2837 25.1191 12.4001 25.7127 12.8841L36.36 21.5224C37.2534 22.2453 37.388 23.5564 36.6659 24.4447C36.256 24.9532 35.6563 25.2167 35.0505 25.2167V25.2228Z" fill="#F2CB13"/>
<path d="M3.81251 78.1368C2.91912 78.1368 2.09303 77.5548 1.82379 76.6542C1.49335 75.5515 2.11751 74.3936 3.21895 74.0627L18.425 69.4924L16.7484 68.0466C16.1732 67.5503 15.9101 66.7723 16.0753 66.0249C16.2405 65.2774 16.7973 64.6832 17.5316 64.4749L30.7062 60.6949C31.8076 60.3763 32.958 61.0196 33.2762 62.1223C33.5944 63.2251 32.9519 64.3769 31.8505 64.6954L22.3719 67.4156L24.0057 68.8246C24.5809 69.3209 24.8379 70.0928 24.6788 70.8341C24.5197 71.5754 23.969 72.1758 23.2469 72.3902L4.41219 78.0449C4.21026 78.1062 4.01444 78.1307 3.81251 78.1307V78.1368Z" fill="#F2CB13"/>
<path d="M113.572 32.4945C112.966 32.4945 112.366 32.231 111.956 31.7226C111.234 30.8281 111.369 29.5232 112.262 28.8002L122.91 20.162C123.503 19.678 124.311 19.5677 125.015 19.8556C125.718 20.1497 126.208 20.8052 126.281 21.5649L126.501 23.7704L138.96 13.9191C139.86 13.2085 141.169 13.3616 141.879 14.2622C142.589 15.1628 142.436 16.4677 141.536 17.1845L126.104 29.3884C125.51 29.8601 124.702 29.9704 124.005 29.6702C123.307 29.3761 122.824 28.7206 122.75 27.967L122.536 25.8228L114.875 32.0411C114.49 32.3536 114.031 32.5067 113.566 32.5067L113.572 32.4945Z" fill="#F2CB13"/>
<path d="M138.477 85.4085C138.281 85.4085 138.079 85.3779 137.877 85.3228L119.042 79.6681C118.314 79.4475 117.763 78.8533 117.61 78.112C117.451 77.3707 117.708 76.5987 118.283 76.1025L119.917 74.6934L110.439 71.9733C109.337 71.6547 108.701 70.509 109.013 69.4002C109.331 68.2974 110.475 67.6541 111.583 67.9727L124.757 71.7527C125.492 71.961 126.049 72.5614 126.214 73.3027C126.379 74.0501 126.122 74.8221 125.541 75.3244L123.864 76.7703L139.07 81.3406C140.172 81.6714 140.79 82.8293 140.465 83.9321C140.196 84.8327 139.37 85.4147 138.477 85.4147V85.4085Z" fill="#F2CB13"/>
<path d="M31.2812 39.736C31.0732 39.736 30.859 39.7053 30.6448 39.638L18.5411 35.7599C17.4458 35.4107 16.8461 34.2406 17.1949 33.1439C17.5437 32.0473 18.7125 31.4469 19.8078 31.7961L31.9115 35.6741C33.0068 36.0234 33.6065 37.1935 33.2577 38.2901C32.9762 39.1723 32.1562 39.736 31.2812 39.736Z" fill="#F2CB13"/>
<path d="M2.07467 58.1459C1.15068 58.1459 0.306233 57.521 0.0614668 56.5837C-0.220014 55.4687 0.446973 54.3353 1.56066 54.0535L29.3049 46.9468C30.4186 46.665 31.5506 47.3328 31.8321 48.4478C32.1136 49.5628 31.4466 50.6962 30.3329 50.978L2.58868 58.0847C2.41734 58.1275 2.23988 58.1521 2.07467 58.1521V58.1459Z" fill="#F2CB13"/>
<path d="M115.64 45.2683C114.649 45.2683 113.768 44.5515 113.596 43.5406C113.4 42.4072 114.159 41.3351 115.291 41.1391L139.896 36.8996C141.028 36.6974 142.099 37.4632 142.295 38.5966C142.491 39.73 141.732 40.8021 140.6 40.9982L115.995 45.2377C115.879 45.256 115.756 45.2683 115.64 45.2683Z" fill="#F2CB13"/>
<path d="M124.739 62.3487C124.512 62.3487 124.286 62.3119 124.06 62.2323L112.886 58.3542C111.803 57.9805 111.228 56.792 111.601 55.7076C111.974 54.6232 113.155 54.0473 114.245 54.421L125.418 58.2991C126.501 58.6728 127.076 59.8613 126.703 60.9457C126.403 61.8034 125.602 62.3425 124.739 62.3425V62.3487Z" fill="#F2CB13"/>
</g>
<defs>
<clipPath id="clip0_91_590">
<rect width="142.325" height="101.484" fill="white"/>
</clipPath>
</defs>
</svg>
