<svg width="120" height="101" viewBox="0 0 120 101" fill="none" xmlns="http://www.w3.org/2000/svg">
<path d="M56.7425 37.9994V21.3808C56.7425 20.6064 56.2948 19.8916 55.5635 19.4813C54.8247 19.071 53.9069 19.0246 53.1233 19.3556L20.4837 33.1747H3.17889C1.42528 33.1747 0 34.4388 0 35.9941V68.4968C0 70.0521 1.42528 71.3162 3.17889 71.3162H20.4837L53.1233 85.1353C53.4666 85.2809 53.8397 85.3537 54.2128 85.3537C54.6829 85.3537 55.1531 85.2346 55.5635 85.0096C56.3022 84.5992 56.7425 83.8778 56.7425 83.1101V65.9289C62.5779 63.2286 66.2792 57.8743 66.2792 51.9641C66.2792 46.054 62.5854 40.6997 56.7425 38.0061V37.9994ZM18.5212 66.8223H5.06683V37.6685H18.5212V66.8223ZM51.6757 79.5428L23.588 67.6496V36.8346L51.6757 24.9414V79.5428ZM56.7425 60.5415V43.3735C59.5334 45.4716 61.2198 48.5756 61.2198 51.9575C61.2198 55.3395 59.5408 58.4369 56.7425 60.5415Z" fill="#F2CB13"/>
<path d="M77.3539 34.7499C76.5778 33.7174 75.0033 33.4461 73.8392 34.1344C72.6751 34.8227 72.3691 36.2191 73.1452 37.2516C76.5181 41.719 78.2941 46.9342 78.2717 52.3348C78.2494 57.0338 76.8539 61.6534 74.2198 65.6973C73.5183 66.7694 73.9362 68.146 75.1451 68.7682C75.5406 68.9733 75.9808 69.0726 76.4062 69.0726C77.2793 69.0726 78.13 68.6689 78.6001 67.9475C81.6745 63.2286 83.3087 57.8347 83.3311 52.348C83.3535 46.0474 81.2865 39.9585 77.3464 34.7499H77.3539Z" fill="#F2CB13"/>
<path d="M82.4944 17.6347C81.4497 16.8074 79.8453 16.8935 78.92 17.8267C77.9947 18.7532 78.0842 20.1762 79.1364 20.9969C89.2552 28.9587 95.0309 40.4018 94.9786 52.3877C94.9413 62.5137 90.7625 72.2626 83.2257 79.8472C82.3004 80.7804 82.4049 82.1967 83.4496 83.0174C83.9346 83.3946 84.5316 83.5799 85.1211 83.5799C85.8225 83.5799 86.524 83.3218 87.024 82.8188C95.3741 74.4201 100.001 63.6124 100.045 52.4009C100.098 39.1245 93.7026 26.4504 82.4944 17.6281V17.6347Z" fill="#F2CB13"/>
<path d="M90.1653 0.427215C89.031 -0.300803 87.449 -0.0757796 86.6282 0.930209C85.8073 1.9362 86.061 3.33929 87.1953 4.06731C104.642 15.2854 115.014 33.3733 114.932 52.454C114.865 69.4499 106.567 85.6516 92.1726 96.8896C91.1204 97.7103 91.0234 99.1266 91.9487 100.06C92.4487 100.563 93.1501 100.821 93.8516 100.821C94.4485 100.821 95.0455 100.636 95.5231 100.258C111.007 88.1666 119.932 70.7471 119.999 52.4673C120.081 31.9438 108.925 12.4858 90.1653 0.427215Z" fill="#F2CB13"/>
</svg>
