<svg width="70" height="113" viewBox="0 0 70 113" fill="none" xmlns="http://www.w3.org/2000/svg">
<g clip-path="url(#clip0_91_625)">
<path d="M35.0241 0C15.7271 0 0 15.9943 0 35.6193V76.9298C0 96.5547 15.7271 112.549 35.0241 112.549C54.3212 112.549 70.0482 96.5547 70.0482 76.9298V35.6193C70 15.9943 54.3212 0 35.0241 0ZM65.224 76.9298C65.224 93.8563 51.6678 107.643 35.0241 107.643C18.3804 107.643 4.77602 93.9053 4.77602 76.9298V35.6193C4.77602 18.6437 18.3322 4.85717 35.0241 4.85717C51.7161 4.85717 65.224 18.6437 65.224 35.5702V76.8807V76.9298Z" fill="#F2CB13"/>
<path d="M36.6646 18.9869C36.5198 18.8397 36.3269 18.6925 36.1339 18.5944C36.0374 18.5454 35.9892 18.4472 35.8927 18.4472C35.7962 18.4472 35.6515 18.3982 35.555 18.3491C35.362 18.3 35.1691 18.251 34.9761 18.251C34.8796 18.251 34.7831 18.3 34.6384 18.3C34.4454 18.3 34.2524 18.3 34.1077 18.3982C33.9147 18.4472 33.77 18.5944 33.6253 18.6925C33.5288 18.7416 33.4323 18.7907 33.3358 18.8888C33.1911 19.036 33.0946 19.2322 32.9499 19.4285C32.9017 19.5266 32.8052 19.5757 32.8052 19.6738C32.7569 19.821 32.7569 19.9682 32.7087 20.0663C32.7087 20.2625 32.6122 20.4097 32.6122 20.606V49.4546L18.9595 34.2453C18.0912 33.2641 16.5474 33.1659 15.5826 34.0981C14.6177 34.9812 14.5212 36.5512 15.4378 37.5325L31.7438 55.6855L15.872 74.0349C15.0037 75.0652 15.1001 76.5861 16.065 77.4692C16.4992 77.8617 17.0781 78.058 17.657 78.058C18.3324 78.058 18.9595 77.7636 19.442 77.2239L32.6604 62.0146V90.8142C32.6604 90.8142 32.6604 90.8633 32.6604 90.9123C32.6604 91.1086 32.7087 91.2557 32.7569 91.4029C32.7569 91.5501 32.8052 91.6973 32.8534 91.8445C32.9017 91.9917 32.9981 92.0898 33.0946 92.1879C33.1911 92.3351 33.2876 92.4823 33.4323 92.6295C33.4323 92.6295 33.4323 92.6295 33.4806 92.6786C33.577 92.7767 33.7218 92.8257 33.8665 92.9239C33.963 92.9729 34.0595 93.0711 34.156 93.1201C34.4454 93.2182 34.7349 93.3164 35.0243 93.3164C35.362 93.3164 35.6997 93.2182 35.9892 93.1201C36.0374 93.1201 36.0857 93.022 36.1821 92.9729C36.4234 92.8257 36.6163 92.7276 36.8093 92.5314C36.8093 92.5314 36.8093 92.5314 36.8575 92.4823L53.5977 72.9555L38.2083 55.7346L53.5977 37.3853L36.7611 19.036L36.6646 18.9869ZM47.085 72.9555L37.34 84.338V62.0146L47.085 72.9555ZM37.34 49.1112V26.7878L47.085 37.4344L37.34 49.0621V49.1112Z" fill="#F2CB13"/>
</g>
<defs>
<clipPath id="clip0_91_625">
<rect width="70" height="112.549" fill="white"/>
</clipPath>
</defs>
</svg>
