<svg xmlns="http://www.w3.org/2000/svg" width="167" height="49" fill="none"><g clip-path="url(#a)"><path fill="#fff" d="M8.64 48.778H.448v-30.84H11.91v27.577a3.263 3.263 0 0 1-3.27 3.263m3.27-37.326V.232H.448v11.22zm58.788 34.063V.232H59.236v48.546h8.192a3.263 3.263 0 0 0 3.257-3.263m46.846-33.82V.232H78.526v11.463h13.775v37.083h8.192a3.264 3.264 0 0 0 3.263-3.263v-33.82zm-66.137 0V.232h-17.3a14.355 14.355 0 0 0-14.356 14.355v34.191h8.192a3.263 3.263 0 0 0 3.257-3.263V33.27h16.364v-9.439H31.187v-7.524a4.625 4.625 0 0 1 4.625-4.612z"/><path fill="#0091DA" d="M148.971 20.514a.53.53 0 0 1-.377.16.52.52 0 0 1-.378-.16L127.948.232h14.031a5.4 5.4 0 0 1 3.823 1.585l4.403 4.41a8.25 8.25 0 0 1 2.427 6.87 12.98 12.98 0 0 1-3.661 7.417m9.817-5.698a1.2 1.2 0 0 0-.762-.357h-.06a1.214 1.214 0 0 0-1.248 1.059 15.37 15.37 0 0 1-4.389 8.866l-24.388 24.394h14.031a5.35 5.35 0 0 0 3.823-1.584l20.08-20.1a3.67 3.67 0 0 0 0-5.185z"/></g><defs><clipPath id="a"><path fill="#fff" d="M.448.232h166.5v48.546H.447z"/></clipPath></defs></svg>
