<svg width="100" height="13" viewBox="0 0 100 13" fill="none" xmlns="http://www.w3.org/2000/svg">
<g id="nordictrack-logo" clip-path="url(#clip0_14_495)">
<path id="Vector" fill-rule="evenodd" clip-rule="evenodd" d="M5.49921 0L8.44613 6.46924L8.8056 3.80982L9.45297 0H12.9749L10.998 12.2559H7.47609L4.49318 5.39083L3.52273 12.2559H0L1.97729 0H5.49921ZM21.9596 8.01509C21.4206 10.9976 19.5877 12.507 16.3888 12.507C15.0229 12.507 14.0169 12.1476 13.2976 11.4299C12.5075 10.6385 12.2551 9.6325 12.4351 8.26701C12.9745 5.24729 14.843 3.77383 18.0058 3.77383C19.4433 3.77383 20.5217 4.1333 21.2407 4.88823C21.9592 5.67833 22.2107 6.75633 21.9592 8.01509H21.9596ZM17.6472 5.92983C16.7127 5.92983 16.1018 6.64837 15.8143 8.01468C15.5627 9.52413 15.9226 10.2782 16.8211 10.2782C17.7915 10.2782 18.3665 9.52413 18.6896 8.01468C18.9055 6.5768 18.5461 5.85786 17.6472 5.92983ZM28.4293 7.00825C27.0634 7.00825 26.2373 7.76358 25.9134 9.38059L25.4459 12.2564H22.2111L23.649 3.98935H26.6319L26.3444 5.67874C27.0629 4.42079 28.0338 3.77342 29.2917 3.77342L29.6508 3.80941L29.1114 7.04383L28.4289 7.00784L28.4293 7.00825ZM40.1818 0L38.1333 12.2559H35.222L35.4019 11.1775C34.5035 12.0756 33.605 12.5066 32.5626 12.5066C31.3766 12.5066 30.4777 12.076 29.9387 11.3207C29.4713 10.5306 29.3277 9.52413 29.5792 8.30218C29.7592 6.93709 30.2978 5.78629 31.1962 4.9602C31.9872 4.16929 32.8856 3.77424 33.8917 3.77424C34.8977 3.77424 35.6886 4.13371 36.156 4.85265L36.839 0.000408954H40.1818V0ZM35.6894 8.19421C35.8685 6.93668 35.5095 6.2889 34.611 6.2889C33.7125 6.2889 33.1016 6.93668 32.8141 8.2666C32.6349 9.52413 32.994 10.0991 33.8201 10.0991C34.7905 10.0991 35.4019 9.45134 35.6894 8.1938V8.19421ZM39.7144 12.2559L41.1518 3.98894H44.4222L42.9488 12.2559H39.7144ZM49.8855 5.92983C48.915 5.92983 48.34 6.68476 48.0169 8.2666C47.801 9.63169 48.1605 10.2782 49.0954 10.2782C49.8863 10.2782 50.3533 9.8836 50.6052 9.09228H53.9472C53.3006 11.3571 51.5037 12.507 48.6999 12.507C47.298 12.507 46.2204 12.1476 45.5011 11.4299C44.7825 10.6385 44.5666 9.56012 44.7469 8.19421C44.9625 6.82912 45.6454 5.75071 46.6514 4.88782C47.6575 4.13289 48.9158 3.77342 50.3177 3.77342C53.1211 3.77342 54.451 4.88782 54.2707 7.11539H50.8559C50.8919 6.75592 50.8559 6.46884 50.6768 6.28849C50.532 6.0378 50.3165 5.92943 49.8855 5.92943V5.92983Z" fill="black"/>
<path id="Vector_2" fill-rule="evenodd" clip-rule="evenodd" d="M51.0722 2.62282L51.6108 0.106934H64.8732L64.3333 2.62282H59.661L58.224 12.3633H54.4501L55.888 2.62282H51.0718H51.0722Z" fill="black"/>
<path id="Vector_3" fill-rule="evenodd" clip-rule="evenodd" d="M66.5263 7.04423L65.9513 7.00825C64.5494 7.00825 63.7229 7.76358 63.435 9.38059L62.9328 12.2564H59.5896L61.0991 3.98935H64.0824L63.7945 5.67874C64.513 4.42079 65.4479 3.77342 66.7054 3.77342L67.1373 3.80941L66.5263 7.04383V7.04423ZM76.122 7.1886L75.4742 11.07C75.4026 11.5006 75.4742 11.8601 75.6905 12.0756V12.2559H72.2758V11.429C71.2689 12.1472 70.1913 12.5062 68.9326 12.5062C66.9557 12.5062 66.1292 11.6793 66.4891 9.99116C66.6694 8.55328 67.7826 7.65521 69.9038 7.36731L71.9167 7.04423C72.5993 6.93668 72.9591 6.68476 72.9951 6.39768C73.0667 5.92983 72.7072 5.67833 72.0607 5.67833C71.3421 5.67833 70.8379 5.96582 70.6588 6.50523H67.4951C67.8558 4.67148 69.544 3.77301 72.5277 3.77301C74.3242 3.77301 75.4742 4.06051 76.0136 4.70747C76.3011 5.13933 76.3739 5.96541 76.1224 7.18819L76.122 7.1886ZM70.7311 10.6381C71.8096 10.6381 72.4201 9.91959 72.5997 8.55368L70.8387 9.09269C70.2637 9.27303 69.9406 9.52454 69.9042 9.91959C69.7599 10.4226 70.0834 10.6381 70.7311 10.6381ZM82.8783 6.2889C82.7708 6.03739 82.5188 5.92983 82.1242 5.92983C81.2253 5.92983 80.5424 6.68476 80.2557 8.2666C80.0753 9.63169 80.4348 10.2782 81.3329 10.2782C82.1242 10.2782 82.5916 9.8836 82.8783 9.09228H86.1847C85.5381 11.3571 83.7772 12.507 80.9738 12.507C79.6075 12.507 78.5291 12.1476 77.8465 11.4299C77.0924 10.6385 76.7681 9.56012 77.0196 8.19421C77.2 6.82912 77.8465 5.75071 78.8881 4.88782C79.895 4.13289 81.1529 3.77342 82.518 3.77342C85.3578 3.77342 86.6513 4.88782 86.4722 7.11539H83.129C83.192 6.81481 83.0971 6.50319 82.8775 6.28849L82.8783 6.2889ZM92.0434 0L91.1089 6.50605L93.6256 3.98935H97.4346L93.8411 7.1886L96.3562 12.2559H92.4033L91.1457 9.34419L90.4979 9.91918L90.0305 12.2559H86.7965L88.773 0H92.0434ZM98.7645 3.70185L98.5126 3.0553V3.70185H98.3323V2.91175H98.5842L98.7645 3.45075L99.0165 2.91175H99.232V3.70185H99.0516V3.0553L98.8361 3.70185H98.7645ZM97.5786 3.0553V2.91175H98.2251V3.0553H97.9732V3.70185H97.7941V3.0553H97.5786Z" fill="black"/>
</g>
<defs>
<clipPath id="clip0_14_495">
<rect width="99.2323" height="12.5075" fill="white"/>
</clipPath>
</defs>
</svg>
