<svg width="108" height="8" viewBox="0 0 108 8" fill="none" xmlns="http://www.w3.org/2000/svg">
<g id="proform-logo" clip-path="url(#clip0_14_423)">
<path id="Vector" d="M107.141 0.894535C107.141 0.733216 107.033 0.643594 106.872 0.643594H106.478V1.50396H106.549V1.14548H106.836L107.033 1.50396H107.123L106.908 1.14548C107.051 1.12755 107.141 1.03793 107.141 0.894535ZM106.872 1.07378H106.567V0.733216H106.872C106.944 0.733216 107.069 0.75114 107.069 0.912459C107.069 1.02 106.962 1.07378 106.872 1.07378ZM106.765 0.304824C106.334 0.304824 105.994 0.645386 105.994 1.07557C105.994 1.50575 106.334 1.84632 106.765 1.84632C107.195 1.84632 107.535 1.48783 107.535 1.07557C107.553 0.645386 107.195 0.304824 106.765 0.304824ZM106.765 1.77283C106.388 1.77283 106.066 1.46811 106.066 1.07378C106.066 0.679443 106.37 0.374729 106.765 0.374729C107.159 0.374729 107.464 0.679443 107.464 1.07378C107.464 1.46811 107.159 1.77283 106.765 1.77283ZM75.0923 2.77659L74.4649 4.5511C74.0348 5.8058 72.8338 6.64824 71.5074 6.64824H64.3018C63.9254 6.64824 63.6028 6.469 63.3877 6.18221C63.1726 5.8775 63.1188 5.51901 63.2443 5.16052L63.8717 3.38602C64.3018 2.13131 65.5028 1.28887 66.8292 1.28887H74.0348C74.4112 1.28887 74.7338 1.46811 74.9489 1.7549C75.164 2.05962 75.2178 2.43603 75.0923 2.77659ZM75.7734 1.18312C75.3612 0.609538 74.7338 0.2869 74.0348 0.2869H66.8292C65.0726 0.2869 63.4953 1.39821 62.9217 3.06517L62.2943 4.83968C62.0613 5.50288 62.1689 6.20193 62.5632 6.77551C62.9754 7.34908 63.6028 7.67172 64.3018 7.67172H71.5074C73.264 7.67172 74.8413 6.56041 75.4149 4.89345L76.0423 3.11894C76.2753 2.45574 76.1677 1.73877 75.7734 1.18312ZM40.3191 2.77659L39.6918 4.5511C39.2616 5.8058 38.0606 6.64824 36.7342 6.64824H29.5287C29.1523 6.64824 28.8296 6.469 28.6145 6.18221C28.3994 5.8775 28.3457 5.51901 28.4711 5.16052L29.0985 3.38602C29.5287 2.13131 30.7296 1.28887 32.056 1.28887H39.2616C39.638 1.28887 39.9606 1.46811 40.1757 1.7549C40.3908 2.05962 40.4446 2.43603 40.3191 2.77659ZM39.2616 0.2869H32.056C30.2994 0.2869 28.7221 1.39821 28.1485 3.06517L27.5211 4.83968C27.2881 5.50288 27.3957 6.20193 27.79 6.77551C28.2023 7.34908 28.8296 7.67172 29.5287 7.67172H36.7342C38.4908 7.67172 40.0682 6.56041 40.6597 4.89345L41.287 3.11894C41.52 2.45574 41.4125 1.75669 41.0182 1.18312C40.6059 0.609538 39.9606 0.2869 39.2616 0.2869ZM89.7723 2.97555C89.9874 2.3482 89.8978 1.685 89.5214 1.12934C89.145 0.591614 88.5355 0.268976 87.8723 0.268976H78.7668C78.48 0.268976 78.2649 0.501992 78.2649 0.770857C78.2649 1.05765 78.4979 1.27274 78.7668 1.27274H87.8723C88.2129 1.27274 88.4997 1.43406 88.6969 1.70292C88.894 1.97179 88.9299 2.31235 88.8223 2.61706C88.6072 3.20856 88.0516 3.6029 87.4242 3.6029H78.48C77.8347 3.6029 77.2791 4.01516 77.064 4.60666L76.2394 6.97267C76.2036 7.09814 76.2036 7.24154 76.2574 7.36701C76.3111 7.49248 76.4187 7.5821 76.5442 7.61795C76.5979 7.63587 76.6517 7.6538 76.7055 7.6538C76.9206 7.6538 77.1177 7.5104 77.1894 7.31324L78.014 4.94722C78.0856 4.75006 78.2649 4.62459 78.48 4.62459H84.7894L87.1554 7.47455C87.3346 7.68965 87.6752 7.70757 87.8723 7.54625C88.0874 7.36701 88.1233 7.04437 87.944 6.82928L86.1157 4.62459H87.4421C88.4638 4.64251 89.4138 3.96139 89.7723 2.97555ZM60.3943 3.62082H49.9445L50.285 2.61706C50.5539 1.82839 51.3067 1.29066 52.1492 1.29066H62.1151C62.4019 1.29066 62.617 1.05765 62.617 0.788781C62.617 0.519916 62.3839 0.2869 62.1151 0.2869H52.1492C50.8765 0.2869 49.7473 1.09349 49.335 2.29442L47.7398 7.00852C47.7039 7.13399 47.7039 7.27739 47.7577 7.38493C47.8115 7.5104 47.919 7.60002 48.0445 7.63587C48.0983 7.6538 48.152 7.67172 48.2058 7.67172C48.4209 7.67172 48.6181 7.52833 48.6898 7.33116L49.6039 4.64251H60.3943C60.6811 4.64251 60.8962 4.40949 60.8962 4.14063C60.8962 3.87176 60.6811 3.62082 60.3943 3.62082ZM104.829 0.267183C104.47 0.034167 104.004 0.0700156 103.7 0.374729L97.1392 6.55862C97.0675 6.63032 96.96 6.66617 96.8524 6.64824C96.7449 6.63032 96.6732 6.55862 96.6194 6.469L93.9845 0.769064C93.8053 0.356805 93.3751 0.105864 92.927 0.141713C92.4789 0.159637 92.1025 0.464351 91.9412 0.87661L89.8799 7.00673C89.844 7.1322 89.844 7.27559 89.8978 7.40106C89.9516 7.52653 90.0591 7.61616 90.1846 7.652C90.2383 7.66993 90.2921 7.68785 90.3459 7.68785C90.561 7.68785 90.7581 7.54446 90.8298 7.34729L92.9091 1.19925C92.9091 1.18132 92.927 1.14548 92.9808 1.14548C93.0525 1.14548 93.0525 1.18132 93.0704 1.19925L95.7053 6.89918C95.8845 7.29352 96.243 7.56238 96.6553 7.652C97.0854 7.74163 97.4977 7.61616 97.8203 7.31144L104.13 1.36057L102.23 7.00673C102.194 7.1322 102.194 7.27559 102.248 7.40106C102.301 7.52653 102.409 7.61616 102.534 7.652C102.66 7.68785 102.803 7.68785 102.911 7.63408C103.036 7.58031 103.126 7.47276 103.162 7.34729L105.187 1.36057C105.349 0.930383 105.187 0.500199 104.829 0.267183ZM46.8615 3.62082H42.7747C42.4879 3.62082 42.2729 3.85384 42.2729 4.1227C42.2729 4.39157 42.5059 4.62459 42.7747 4.62459H46.8615C47.1483 4.62459 47.3634 4.39157 47.3634 4.1227C47.3634 3.85384 47.1483 3.62082 46.8615 3.62082ZM24.9042 0.2869H15.8166C15.5298 0.2869 15.3147 0.519916 15.3147 0.788781C15.3147 1.05765 15.5477 1.29066 15.8166 1.29066H24.9042C25.2268 1.29066 25.5315 1.45198 25.7287 1.72085C25.9259 1.98971 25.9617 2.33027 25.8542 2.63499C25.6391 3.22649 25.0834 3.62082 24.4561 3.62082H15.5118C14.8666 3.62082 14.3109 4.03308 14.0958 4.62459L13.2713 7.00852C13.2355 7.13399 13.2355 7.27739 13.2892 7.40286C13.343 7.52833 13.4505 7.61795 13.576 7.6538C13.6298 7.67172 13.6836 7.68965 13.7373 7.68965C13.9524 7.68965 14.1496 7.54625 14.2213 7.34908L15.0458 4.98307C15.1175 4.7859 15.2968 4.66043 15.5118 4.66043H21.8212L24.1872 7.5104C24.3665 7.72549 24.6891 7.74342 24.9042 7.5821C25.0117 7.49248 25.0655 7.36701 25.0834 7.24154C25.1014 7.09814 25.0476 6.97267 24.9759 6.86513L23.1476 4.66043H24.474C25.5315 4.66043 26.4815 3.99723 26.8221 2.99347C27.0372 2.36612 26.9476 1.70292 26.5712 1.16519C26.1589 0.591613 25.5674 0.2869 24.9042 0.2869ZM13.3072 1.12934C12.9307 0.591614 12.3213 0.268976 11.6581 0.268976H2.57048C2.28369 0.268976 2.0686 0.501992 2.0686 0.770857C2.0686 1.05765 2.30162 1.27274 2.57048 1.27274H11.6581C11.9987 1.27274 12.2855 1.43406 12.4826 1.70292C12.6798 1.97179 12.7156 2.31235 12.6081 2.61706C12.393 3.20856 11.8374 3.6029 11.21 3.6029H2.26577C1.62049 3.6029 1.06484 4.01516 0.849747 4.60666L0.0252284 7.00852C-0.0106202 7.13399 -0.0106202 7.27739 0.0431528 7.40286C0.0969257 7.52833 0.204472 7.61795 0.329942 7.6538C0.383715 7.67172 0.437488 7.68965 0.491261 7.68965C0.706353 7.68965 0.90352 7.54625 0.975218 7.34908L1.79974 4.98307C1.87143 4.7859 2.05068 4.66043 2.26577 4.66043H11.21C12.2675 4.66043 13.2175 3.99723 13.5581 2.99347C13.7911 2.3482 13.6836 1.66707 13.3072 1.12934Z" fill="black"/>
</g>
<defs>
<clipPath id="clip0_14_423">
<rect width="107.535" height="7.57303" fill="white"/>
</clipPath>
</defs>
</svg>
