<svg width="170" height="170" viewBox="0 0 170 170" fill="none" xmlns="http://www.w3.org/2000/svg">
<g clip-path="url(#clip0_0_185)">
<path d="M85 4.7588C129.326 4.7588 165.271 40.7042 165.271 85.0299C165.271 129.356 129.326 165.301 85 165.301C40.6743 165.301 4.72887 129.356 4.72887 85.0299C4.7588 40.6743 40.6743 4.7588 85 4.7588ZM85 0C38.1303 0 0 38.1303 0 85C0 131.87 38.1303 170 85 170C131.87 170 170 131.87 170 85C170 38.1303 131.87 0 85 0Z" fill="#FF8200"/>
<path d="M121.724 131.959H97.4207C96.5528 131.959 95.8345 131.241 95.8345 130.373C95.8345 129.505 96.5528 128.787 97.4207 128.787H109.333V99.0968C109.333 97.8697 108.345 96.882 107.118 96.882C106.519 96.882 105.981 97.1214 105.532 97.5405L99.4859 103.586C98.8574 104.215 97.8398 104.215 97.2412 103.586C96.6127 102.958 96.6127 101.94 97.2412 101.342L103.287 95.2957C104.305 94.2781 105.681 93.7095 107.118 93.7095C110.111 93.7095 112.535 96.1338 112.535 99.1267V128.817H121.724C122.592 128.817 123.31 129.535 123.31 130.403C123.31 131.271 122.592 131.989 121.724 131.989V131.959Z" fill="#FF8200"/>
<path d="M121.724 132.887H97.4208C96.044 132.887 94.9067 131.78 94.9067 130.373C94.9067 128.966 96.044 127.859 97.4208 127.859H108.405V99.0968C108.405 98.3784 107.806 97.7798 107.088 97.7798C106.729 97.7798 106.4 97.9295 106.16 98.1689L100.114 104.215C99.6356 104.694 99.0071 104.963 98.3486 104.963C97.6902 104.963 97.0617 104.694 96.5828 104.215C95.5951 103.257 95.5951 101.641 96.5828 100.683L102.629 94.6373C103.826 93.4401 105.412 92.7816 107.088 92.7816C110.56 92.7816 113.403 95.6249 113.403 99.0968V127.859H121.694C123.07 127.859 124.208 128.966 124.208 130.373C124.208 131.78 123.07 132.887 121.694 132.887H121.724ZM97.4208 129.685C97.0317 129.685 96.7324 129.984 96.7324 130.373C96.7324 130.762 97.0317 131.062 97.4208 131.062H121.724C122.113 131.062 122.412 130.762 122.412 130.373C122.412 129.984 122.113 129.685 121.724 129.685H111.607V99.0968C111.607 96.6126 109.572 94.5774 107.088 94.5774C105.891 94.5774 104.754 95.0563 103.916 95.8943L97.8698 101.94C97.6004 102.209 97.6004 102.628 97.8698 102.898C97.9895 103.047 98.1691 103.107 98.3486 103.107C98.5282 103.107 98.7078 103.047 98.8275 102.898L104.873 96.852C105.472 96.2534 106.25 95.9242 107.088 95.9242C108.824 95.9242 110.231 97.3309 110.231 99.0369V129.625H97.4208V129.685Z" fill="#FF8200"/>
<path d="M49.2043 128.518C48.7852 128.518 48.3962 128.368 48.0669 128.039C47.4384 127.41 47.4384 126.393 48.0669 125.794L123.639 50.2219C124.268 49.5934 125.285 49.5934 125.884 50.2219C126.482 50.8504 126.512 51.868 125.884 52.4666L50.3116 128.039C50.0124 128.338 49.5933 128.518 49.1743 128.518H49.2043Z" fill="#FF8200"/>
<path d="M49.2258 130.315C48.5673 130.315 47.9388 130.046 47.46 129.597C46.9811 129.118 46.7117 128.49 46.7117 127.831C46.7117 127.143 46.9811 126.544 47.46 126.065L123.032 50.4931C124.02 49.5353 125.606 49.5353 126.564 50.4931C127.043 50.972 127.282 51.5706 127.312 52.2589C127.312 52.9174 127.043 53.5459 126.564 54.0248L50.9916 129.597C50.5128 130.076 49.8842 130.315 49.2258 130.315ZM124.798 51.5406C124.618 51.5406 124.439 51.6005 124.319 51.7501L48.7469 127.322C48.7469 127.322 48.5374 127.622 48.5374 127.801C48.5374 127.981 48.5973 128.16 48.7469 128.28C49.0163 128.549 49.4652 128.549 49.7346 128.28L125.307 52.7079C125.307 52.7079 125.516 52.4086 125.516 52.229C125.516 52.0494 125.456 51.8699 125.307 51.7501C125.157 51.6005 124.978 51.5406 124.828 51.5406H124.798Z" fill="#FF8200"/>
<path d="M79.8521 77.6672H56.5669C52.1972 77.6672 48.6356 74.1056 48.6356 69.7359C48.6356 66.9824 50.1021 64.4084 52.4366 62.9718L75.9912 48.5757C77.3979 47.7077 78.2658 46.1813 78.2658 44.5352C78.2658 41.9313 76.1408 39.8063 73.537 39.8063H51.8979C51.0299 39.8063 50.3116 39.088 50.3116 38.2201C50.3116 37.3521 51.0299 36.6338 51.8979 36.6338H73.537C77.9067 36.6338 81.4683 40.1954 81.4683 44.5651C81.4683 47.3186 80.0018 49.8926 77.6673 51.3292L54.1127 65.7253C52.706 66.5933 51.838 68.1197 51.838 69.7658C51.838 72.3697 53.963 74.4947 56.5669 74.4947H79.8521C80.7201 74.4947 81.4384 75.213 81.4384 76.081C81.4384 76.9489 80.7201 77.6672 79.8521 77.6672Z" fill="#FF8200"/>
<path d="M79.8522 78.5651H56.5669C51.6884 78.5651 47.7377 74.6144 47.7377 69.7359C47.7377 66.6831 49.3539 63.8098 51.9578 62.1936L75.5124 47.7975C76.6497 47.1091 77.3381 45.8521 77.3381 44.5352C77.3381 42.4401 75.6321 40.7042 73.5071 40.7042H51.868C50.4912 40.7042 49.3539 39.5968 49.3539 38.1901C49.3539 36.7834 50.4912 35.676 51.868 35.676H73.5071C78.3856 35.676 82.3363 39.6267 82.3363 44.5053C82.3363 47.5581 80.7201 50.4313 78.1162 52.0475L54.5617 66.4436C53.4243 67.132 52.736 68.3891 52.736 69.706C52.736 71.801 54.4419 73.5369 56.5669 73.5369H79.8522C81.2289 73.5369 82.3662 74.6443 82.3662 76.051C82.3662 77.4577 81.2289 78.5651 79.8522 78.5651ZM51.8979 37.5317C51.5088 37.5317 51.2096 37.831 51.2096 38.22C51.2096 38.6091 51.5088 38.9084 51.8979 38.9084H73.537C76.6497 38.9084 79.1638 41.4524 79.1638 44.5352C79.1638 46.4806 78.1162 48.3362 76.4701 49.3538L52.9155 63.75C50.8504 65.007 49.5634 67.3116 49.5634 69.7359C49.5634 73.5968 52.706 76.7394 56.5669 76.7394H79.8522C80.2412 76.7394 80.5405 76.4401 80.5405 76.051C80.5405 75.6619 80.2412 75.3627 79.8522 75.3627H56.5669C53.4543 75.3627 50.9402 72.8186 50.9402 69.7359C50.9402 67.7905 51.9578 65.9348 53.6338 64.9172L77.1884 50.5211C79.2536 49.2641 80.5405 46.9595 80.5405 44.5352C80.5405 40.6743 77.3979 37.5317 73.537 37.5317H51.8979Z" fill="#FF8200"/>
</g>
<defs>
<clipPath id="clip0_0_185">
<rect width="170" height="170" fill="white"/>
</clipPath>
</defs>
</svg>
