<svg width="170" height="170" viewBox="0 0 170 170" fill="none" xmlns="http://www.w3.org/2000/svg">
<g clip-path="url(#clip0_7_79)">
<path d="M117.563 39H51.4369C44.5793 39 39 44.5793 39 51.4369V117.562C39 124.421 44.5793 130 51.4369 130H117.563C124.421 130 130 124.421 130 117.562V51.4369C130 44.5793 124.421 39 117.563 39ZM124.641 118.29C124.641 121.792 121.792 124.641 118.291 124.641H50.7092C47.2082 124.641 44.3592 121.792 44.3592 118.29V50.7092C44.3592 47.2082 47.2082 44.3592 50.7092 44.3592H118.291C121.792 44.3592 124.641 47.2082 124.641 50.7092V118.29Z" fill="#FF8200"/>
<path d="M68.7447 97.5339L56.0786 109.394V99.398C56.0786 97.9868 54.9351 96.8438 53.5243 96.8438C52.1134 96.8438 50.97 97.9872 50.97 99.398V115.269C50.9693 115.356 50.9735 115.443 50.9815 115.529V115.532C50.9822 115.536 50.9822 115.539 50.9833 115.542C50.9833 115.546 50.9833 115.548 50.984 115.552V115.556C51.0057 115.759 51.0505 115.953 51.1163 116.139V116.14C51.118 116.144 51.1194 116.148 51.1205 116.152C51.1212 116.154 51.1229 116.157 51.1236 116.159C51.1243 116.161 51.1243 116.163 51.1254 116.165C51.2286 116.447 51.383 116.715 51.5902 116.953C51.5909 116.955 51.5902 116.955 51.5968 116.962C51.5993 116.964 51.6017 116.967 51.6042 116.97C51.6042 116.971 51.6049 116.971 51.6059 116.972C51.6094 116.975 51.6119 116.979 51.615 116.983L51.6157 116.983C51.6192 116.988 51.6224 116.991 51.6259 116.995C51.6259 116.995 51.6266 116.995 51.6266 116.996C51.6301 116.999 51.6332 117.003 51.6367 117.007C51.6374 117.007 51.6374 117.007 51.6374 117.007C51.6406 117.011 51.6441 117.015 51.6476 117.018C51.6483 117.019 51.6493 117.02 51.6493 117.02C51.6525 117.023 51.656 117.026 51.6584 117.03C51.6584 117.03 51.659 117.031 51.6602 117.032L51.6609 117.032C51.6633 117.036 51.6668 117.038 51.6693 117.042C51.6728 117.043 51.6742 117.048 51.6794 117.052C51.6819 117.055 51.6868 117.059 51.6868 117.06C51.9405 117.323 52.238 117.52 52.5572 117.651C52.8134 117.755 53.0903 117.82 53.3804 117.836C53.3853 117.835 53.3888 117.836 53.3944 117.837C53.4378 117.839 53.4809 117.84 53.525 117.84H69.4108C70.822 117.84 71.9651 116.696 71.9651 115.286C71.9651 113.875 70.8216 112.731 69.4108 112.731H59.9891L72.237 101.262C73.2664 100.299 73.3196 98.6823 72.355 97.6522C71.3897 96.6222 69.7748 96.5697 68.7447 97.5343V97.5339Z" fill="#FF8200"/>
<path d="M115.281 96.455C113.87 96.455 112.727 97.5984 112.727 99.0093V109.006L100.061 97.1452C99.0306 96.1806 97.4122 96.2348 96.4504 97.2631C95.4858 98.2932 95.539 99.9098 96.5683 100.873L108.816 112.342H99.3946C97.9834 112.342 96.8403 113.486 96.8403 114.896C96.8403 116.307 97.9837 117.451 99.3946 117.451H115.28C115.324 117.451 115.368 117.45 115.411 117.448C115.415 117.448 115.419 117.447 115.424 117.447H115.425C115.721 117.43 116.004 117.364 116.265 117.255C116.268 117.252 116.272 117.251 116.276 117.25C116.596 117.115 116.894 116.912 117.146 116.643C117.369 116.404 117.537 116.135 117.652 115.849C117.653 115.847 117.654 115.845 117.654 115.843C117.655 115.84 117.656 115.839 117.657 115.836C117.772 115.545 117.836 115.228 117.836 114.896V99.0093C117.836 97.5981 116.692 96.455 115.281 96.455H115.281Z" fill="#FF8200"/>
<path d="M59.9892 57.6276H69.4108C70.822 57.6276 71.9651 56.4842 71.9651 55.0733C71.9651 53.6625 70.8217 52.519 69.4108 52.519H53.5243C53.1467 52.519 52.7886 52.6013 52.4659 52.7476C52.4624 52.7493 52.4586 52.7511 52.4551 52.7525C52.4509 52.7549 52.4516 52.7598 52.4442 52.7574C52.1856 52.8778 51.9437 53.0444 51.7299 53.2554C51.6676 53.317 51.6077 53.3818 51.5521 53.45C51.5514 53.4507 51.5503 53.4518 51.5496 53.4525C51.5472 53.4556 51.5454 53.4584 51.543 53.4616C51.5395 53.4651 51.537 53.4682 51.5346 53.4717C51.5346 53.4717 51.5339 53.4717 51.5339 53.4724C51.3585 53.6901 51.2245 53.9288 51.1307 54.1791C51.1307 54.1798 51.1307 54.1808 51.13 54.1822C51.1293 54.1857 51.1275 54.1889 51.1268 54.1924C51.1251 54.1959 51.1244 54.1983 51.1233 54.2015C51.1226 54.2032 51.1216 54.2039 51.1216 54.2057C51.0533 54.3954 51.0061 54.5949 50.9844 54.8028V54.807C50.9837 54.8105 50.9837 54.8129 50.9837 54.8161C50.983 54.8196 50.983 54.8227 50.9819 54.8262V54.8297C50.9735 54.9162 50.9693 55.0037 50.9704 55.0901V70.9609C50.9704 72.3721 52.1138 73.5152 53.5247 73.5152C54.9355 73.5152 56.079 72.3717 56.079 70.9609V60.9645L68.7451 72.825C69.2383 73.2866 69.8651 73.5152 70.4906 73.5152C71.1724 73.5152 71.8535 73.2443 72.3557 72.707C73.3203 71.677 73.2671 70.0603 72.2378 69.0968L59.9899 57.628L59.9892 57.6276Z" fill="#FF8200"/>
<path d="M117.656 53.7424C117.654 53.7389 117.653 53.735 117.652 53.7308C117.65 53.7284 117.649 53.7249 117.647 53.7217C117.647 53.721 117.647 53.7193 117.646 53.7186C117.548 53.4767 117.409 53.2464 117.232 53.0368C117.201 52.9993 117.168 52.9629 117.134 52.9269C117.134 52.9269 117.134 52.9262 117.134 52.9262C117.13 52.9227 117.127 52.9195 117.123 52.9153C117.123 52.9146 117.122 52.9136 117.121 52.9129C117.119 52.9104 117.116 52.908 117.114 52.9055C117.112 52.9038 117.111 52.902 117.109 52.9006L117.108 52.8999C116.88 52.6654 116.617 52.4852 116.334 52.3571C116.33 52.3553 116.327 52.3536 116.323 52.3522C116.005 52.2101 115.652 52.131 115.281 52.131H99.3946C97.9834 52.131 96.8403 53.2744 96.8403 54.6853C96.8403 56.0961 97.9837 57.2396 99.3946 57.2396H108.816L96.5683 68.7084C95.539 69.6719 95.4858 71.2886 96.4504 72.3186C96.9526 72.8559 97.6327 73.1268 98.3155 73.1268C98.941 73.1268 99.5678 72.8982 100.061 72.4366L112.727 60.5761V70.5725C112.727 71.9837 113.871 73.1268 115.281 73.1268C116.692 73.1268 117.836 71.9833 117.836 70.5725V54.6853C117.836 54.3528 117.772 54.036 117.657 53.7441C117.657 53.7441 117.656 53.7441 117.656 53.7434L117.656 53.7424Z" fill="#FF8200"/>
</g>
<g clip-path="url(#clip1_7_79)">
<path d="M84.9851 4.73961C129.311 4.73961 165.231 40.6593 165.231 84.9851C165.231 129.311 129.311 165.231 84.9851 165.231C40.6593 165.231 4.73961 129.311 4.73961 84.9851C4.73961 40.6593 40.6891 4.73961 84.9851 4.73961ZM84.9851 0C38.1255 0 0 38.1255 0 84.9851C0 131.845 38.1255 169.97 84.9851 169.97C131.845 169.97 169.97 131.845 169.97 84.9851C169.97 38.1255 131.845 0 84.9851 0Z" fill="#FF8200"/>
</g>
<defs>
<clipPath id="clip0_7_79">
<rect width="91" height="91" fill="white" transform="translate(39 39)"/>
</clipPath>
<clipPath id="clip1_7_79">
<rect width="170" height="170" fill="white"/>
</clipPath>
</defs>
</svg>
