<svg width="170" height="170" viewBox="0 0 170 170" fill="none" xmlns="http://www.w3.org/2000/svg">
<g clip-path="url(#clip0_3_14)">
<path d="M85 4.74067C129.327 4.74067 165.259 40.6732 165.259 85C165.259 129.327 129.327 165.259 85 165.259C40.6732 165.259 4.74067 129.327 4.74067 85C4.74067 40.6732 40.6732 4.74067 85 4.74067ZM85 0C38.1368 0 0 38.1368 0 85C0 131.863 38.1368 170 85 170C131.863 170 170 131.863 170 85C170 38.1368 131.863 0 85 0Z" fill="#FF8200"/>
<path d="M60.9947 146.538C60.0888 146.538 59.1528 146.266 58.3677 145.753C56.4352 144.455 55.7709 142.1 56.7673 139.895C57.6732 137.902 67.3055 109.217 74.0995 88.8349L53.1439 88.0498C50.9698 88.0498 49.762 87.1439 49.1279 86.389C48.4938 85.6342 47.8597 84.3056 48.2522 82.1617C48.2522 82.0107 48.3126 81.8899 48.373 81.739L65.373 35.2381C66.0071 32.1883 67.6679 30.8597 70.8686 30.8597H111.693C114.41 30.8597 115.679 32.1581 116.192 32.9432C116.705 33.7283 117.4 35.389 116.343 37.8953C116.252 38.1066 116.131 38.2878 116.011 38.469L95.9006 64.2256L122.835 64.9805C125.281 64.9805 126.941 66.0072 127.696 68.0001C128.089 69.0267 128.451 71.0498 126.609 73.0729L64.4974 144.908C64.4974 144.908 64.4672 144.968 64.437 144.968C63.5311 145.934 62.2629 146.448 60.9645 146.448L60.9947 146.538ZM79.897 88.0196C78.2061 93.0622 66.3393 128.632 62.5951 139.201L122.171 70.2647L92.0658 69.4192H90.9787C90.103 69.4192 89.2878 68.9965 88.8046 68.2718C88.3215 67.5471 88.2309 66.6413 88.5329 65.826L88.6839 65.4335C88.7745 65.1919 88.865 64.9805 88.9556 64.7994C89.0462 64.588 89.167 64.4068 89.2878 64.2256L111.179 36.1741H70.8082C70.8082 36.1741 70.5666 36.1741 70.4761 36.1741C70.4761 36.2647 70.4459 36.3553 70.4157 36.5063C70.4157 36.6573 70.3553 36.778 70.2949 36.929L53.476 82.8864L76.7869 83.7621C77.0285 83.7621 77.2398 83.7621 77.4814 83.7621H77.7833C78.6288 83.8224 79.4139 84.2754 79.8668 85.0001C80.3197 85.7248 80.4103 86.6306 80.0782 87.4157L79.9574 87.6875C79.9574 87.6875 79.8668 87.929 79.8064 88.0498L79.897 88.0196Z" fill="#FF8200"/>
</g>
<defs>
<clipPath id="clip0_3_14">
<rect width="170" height="170" fill="white"/>
</clipPath>
</defs>
</svg>
