<svg width="170" height="170" viewBox="0 0 170 170" fill="none" xmlns="http://www.w3.org/2000/svg">
<g clip-path="url(#clip0_3_23)">
<path d="M85 4.73997C129.324 4.73997 165.26 40.6759 165.26 85C165.26 129.324 129.324 165.26 85 165.26C40.6759 165.26 4.73997 129.324 4.73997 85C4.73997 40.6759 40.6759 4.73997 85 4.73997ZM85 0C38.1328 0 0 38.1328 0 85C0 131.867 38.1328 170 85 170C131.867 170 170 131.867 170 85C170 38.1328 131.88 0 85 0Z" fill="#FF8200"/>
<path d="M74.1487 124.478C71.7254 124.478 69.3821 123.625 67.5047 122.041L42.5 100.977C41.4881 100.125 40.9822 98.8338 41.142 97.529C41.2884 96.2508 42.0607 95.1323 43.2057 94.5598L43.3255 94.4932C48.3851 91.9901 54.603 92.789 59.1698 96.5037L72.3113 106.663C73.0968 107.262 73.2433 108.394 72.6308 109.179C72.0184 109.965 70.8999 110.111 70.1144 109.499L56.933 99.3131C53.418 96.4505 48.7046 95.838 44.91 97.7154L44.8168 97.7553C44.8168 97.7553 44.7103 97.8086 44.6836 97.9417C44.6836 98.0083 44.6836 98.1281 44.7901 98.2346L69.7948 119.298C71.1529 120.443 72.8572 120.989 74.6147 120.869C89.5669 119.791 101.523 119.778 111.136 120.829C112.122 120.936 112.827 121.828 112.721 122.8C112.614 123.785 111.736 124.491 110.75 124.384C101.35 123.359 89.6202 123.386 74.8677 124.438C74.6147 124.451 74.375 124.464 74.1221 124.464L74.1487 124.478Z" fill="#FF8200"/>
<path d="M74.7078 111.416C73.1633 111.416 71.6721 110.87 70.4738 109.872C69.129 108.74 68.3035 107.142 68.1571 105.398C67.8508 101.776 70.5404 98.5809 74.1619 98.2613L86.4512 97.2095C88.6348 97.0231 90.9249 96.3174 93.2816 95.1324C101.63 90.8851 113.094 95.5585 120.749 102.083C121.508 102.722 121.588 103.853 120.949 104.612C120.31 105.371 119.178 105.451 118.419 104.812C111.882 99.2466 101.736 94.8528 94.906 98.3279C92.1365 99.7392 89.4071 100.565 86.7575 100.791L74.4682 101.843C72.8172 101.989 71.5922 103.441 71.7254 105.092C71.7919 105.891 72.1647 106.623 72.7772 107.129C73.3897 107.648 74.1752 107.888 74.9741 107.821L92.0567 106.357C93.0419 106.263 93.9074 107.009 94.0006 107.994C94.0805 108.98 93.3482 109.845 92.3629 109.938L75.2803 111.403C75.0939 111.416 74.8942 111.429 74.7078 111.429V111.416Z" fill="#FF8200"/>
<path d="M123.652 136.687C123.266 136.687 122.893 136.607 122.534 136.447L109.512 130.722C108.42 130.243 107.808 129.058 108.047 127.899C110.338 116.808 114.878 106.49 121.548 97.2228C122.254 96.2375 123.572 95.878 124.677 96.3707L137.659 102.083C139.057 102.695 139.696 104.346 139.084 105.744L126.195 135.036C125.902 135.715 125.356 136.234 124.664 136.501C124.331 136.634 123.998 136.687 123.652 136.687ZM111.749 127.78L123.239 132.839L135.475 105.025L123.985 99.9656C118.033 108.42 113.919 117.767 111.736 127.78H111.749Z" fill="#FF8200"/>
<path d="M126.941 109.978C125.516 109.978 124.358 108.82 124.358 107.395C124.358 105.97 125.516 104.812 126.941 104.812C128.365 104.812 129.524 105.97 129.524 107.395C129.524 108.82 128.365 109.978 126.941 109.978ZM126.941 106.396C126.382 106.396 125.942 106.849 125.942 107.395C125.942 107.941 126.395 108.394 126.941 108.394C127.487 108.394 127.939 107.941 127.939 107.395C127.939 106.849 127.487 106.396 126.941 106.396Z" fill="#FF8200"/>
<path d="M71.4991 74.7744C70.8866 74.7744 70.3008 74.5348 69.8614 74.0954L61.42 65.7205C60.7143 65.0282 60.7143 63.8831 61.42 63.1908C62.1124 62.4851 63.2574 62.4851 63.9498 63.1908L71.366 70.5404L82.6833 55.7346C83.2825 54.9491 84.4142 54.8026 85.1998 55.4018C85.9853 56.0009 86.1318 57.1327 85.5326 57.9182L73.3365 73.869C72.9371 74.4016 72.3246 74.7345 71.6589 74.7744C71.6056 74.7744 71.5524 74.7744 71.4991 74.7744Z" fill="#FF8200"/>
<path d="M73.403 92.5493L72.8305 92.3496C66.3197 90.1394 60.914 86.1983 56.7465 80.6594C52.6723 75.2271 50.4221 68.3701 50.4221 61.3533V50.6218C50.4221 48.4382 51.8734 46.481 53.9372 45.8819C57.3457 44.8833 60.0086 42.2603 61.0338 38.8651C61.6995 36.6948 63.6834 35.2302 65.9602 35.2302H80.8325C83.1226 35.2302 85.1065 36.6948 85.7589 38.8651C86.7974 42.2603 89.447 44.8833 92.8555 45.8819C94.9193 46.481 96.3706 48.4382 96.3706 50.6218V61.3533C96.3706 68.3701 94.1204 75.2271 90.0462 80.6594C85.892 86.1983 80.473 90.1261 73.9622 92.3496L73.3897 92.5493H73.403ZM65.9735 38.8252C65.2811 38.8252 64.6687 39.2778 64.469 39.9169C63.0842 44.4838 59.5159 47.9989 54.9357 49.3303C54.3899 49.4901 54.0037 50.0227 54.0037 50.6351V61.3667C54.0037 67.6112 56.0009 73.7092 59.6092 78.5158C63.2041 83.309 67.8375 86.7442 73.403 88.7547C78.9552 86.7442 83.6019 83.2957 87.1969 78.5158C90.8051 73.6959 92.8023 67.6112 92.8023 61.3667V50.6351C92.8023 50.036 92.4162 49.4901 91.8703 49.3303C87.2901 47.9989 83.7351 44.4838 82.3371 39.9169C82.1373 39.2778 81.5249 38.8252 80.8325 38.8252H65.9602H65.9735Z" fill="#FF8200"/>
</g>
<defs>
<clipPath id="clip0_3_23">
<rect width="170" height="170" fill="white"/>
</clipPath>
</defs>
</svg>
