<svg width="273" height="138" viewBox="0 0 273 138" fill="none" xmlns="http://www.w3.org/2000/svg">
<g clip-path="url(#clip0_101_84)">
<path d="M0 7.79643C0 5.6281 0.757868 3.78661 2.2736 2.27994C3.78934 0.765294 5.63216 0 7.80205 0C9.97195 0 11.8068 0.765294 13.3225 2.27197C14.8383 3.78661 15.5961 5.6281 15.5961 7.78846V61.4308H45.4402C47.5702 61.4308 49.3891 62.1961 50.9048 63.7027C52.4285 65.2174 53.1784 67.0429 53.1784 69.1634C53.1784 71.2839 52.4205 73.1732 50.9048 74.6879C49.3891 76.2025 47.5622 76.9599 45.4402 76.9599H7.80205C5.63216 76.9599 3.78934 76.2025 2.2736 74.6879C0.757868 73.1653 0 71.3318 0 69.1634L0 7.79643Z" fill="white"/>
<path d="M75.1806 69.1794C75.1806 71.3397 74.4227 73.1812 72.907 74.6959C71.3832 76.2105 69.5484 76.9678 67.3865 76.9678C65.2246 76.9678 63.3738 76.2105 61.866 74.6959C60.3423 73.1732 59.5924 71.3397 59.5924 69.1794V27.3353C59.5924 25.1989 60.3503 23.3813 61.866 21.8667C63.3818 20.3122 65.2246 19.5389 67.3865 19.5389C69.5484 19.5389 71.3912 20.3122 72.907 21.8667C74.4227 23.3813 75.1806 25.2069 75.1806 27.3353V69.1794ZM72.907 2.27197C74.4227 3.78661 75.1806 5.6281 75.1806 7.78846C75.1806 9.94882 74.4227 11.7983 72.907 13.305C71.3832 14.8276 69.5484 15.5769 67.3865 15.5769C65.2246 15.5769 63.3738 14.8196 61.866 13.305C60.3423 11.7903 59.5924 9.94882 59.5924 7.78846C59.5924 5.6281 60.3503 3.77864 61.866 2.27197C63.3818 0.757322 65.2246 0 67.3865 0C69.5484 0 71.3912 0.765294 72.907 2.27197Z" fill="white"/>
<path d="M84.9291 6.92766C84.9291 5.01443 85.5912 3.37224 86.9394 2.00108C88.3116 0.66182 89.9549 -0.0078125 91.8696 -0.0078125C93.7842 -0.0078125 95.4116 0.66182 96.7438 2.00108C98.116 3.37224 98.7941 5.01443 98.7941 6.92766V16.8366H123.493C125.407 16.8366 127.051 17.4983 128.423 18.8375C129.763 20.2167 130.433 21.8509 130.433 23.7641C130.433 25.6774 129.763 27.3196 128.423 28.6907C127.051 30.03 125.407 30.6916 123.493 30.6916H98.7941V52.6699C98.7941 55.5158 99.8072 57.9712 101.826 60.0279C103.884 62.0448 106.341 63.0572 109.189 63.0572C111.359 63.0572 113.321 62.4593 115.1 61.2715C116.863 60.0757 118.148 58.4734 118.945 56.4565C119.631 54.6868 120.852 53.4033 122.631 52.6061C124.362 51.8488 126.133 51.8169 127.936 52.4945C129.707 53.22 130.991 54.4397 131.789 56.1775C132.547 57.9473 132.579 59.717 131.901 61.4867C130.05 66.1423 127.059 69.897 122.902 72.7429C118.786 75.557 114.215 76.96 109.197 76.96C102.48 76.96 96.7598 74.6004 92.0291 69.8651C87.2984 65.1378 84.9291 59.4061 84.9291 52.654V6.92766Z" fill="white"/>
<path d="M182 39.5162C179.216 32.4452 174.597 28.9057 168.135 28.9057C160.979 28.9057 156.057 32.4452 153.345 39.5162H182ZM184.114 56.6715C186.427 56.815 188.246 57.6999 189.587 59.3261C190.959 60.9524 191.477 62.77 191.158 64.7868C190.863 66.7001 189.874 68.3582 188.175 69.7692C185.39 72.081 182.255 73.8667 178.753 75.1263C175.291 76.3539 171.749 76.9678 168.143 76.9678C159.471 76.9678 152.068 73.8986 145.933 67.7683C139.799 61.638 136.727 54.2321 136.727 45.5748C136.727 36.9174 139.799 29.4637 145.933 23.3334C152.068 17.1951 159.479 14.126 168.143 14.126C176.807 14.126 184.266 17.1951 190.4 23.3334C196.543 29.4637 199.606 36.8775 199.606 45.5748C199.606 49.5846 197.006 51.5855 191.812 51.5855H153.624C154.382 54.6148 155.857 57.0542 158.067 58.8957C160.708 61.064 164.058 62.1482 168.143 62.1482C171.972 62.1482 175.323 60.9364 178.219 58.521C179.918 57.1498 181.88 56.536 184.122 56.6795" fill="white"/>
<path d="M206.643 6.92766C206.643 5.01443 207.305 3.37224 208.645 2.00108C210.025 0.66182 211.661 -0.0078125 213.575 -0.0078125C215.49 -0.0078125 217.109 0.66182 218.449 2.00108C219.822 3.37224 220.5 5.01443 220.5 6.92766V16.8366H245.198C247.105 16.8366 248.756 17.4983 250.128 18.8375C251.469 20.2167 252.139 21.8509 252.139 23.7641C252.139 25.6774 251.469 27.3196 250.128 28.6907C248.756 30.03 247.113 30.6916 245.198 30.6916H220.5V52.6699C220.5 55.5158 221.513 57.9712 223.531 60.0279C225.589 62.0448 228.046 63.0572 230.894 63.0572C233.064 63.0572 235.027 62.4593 236.806 61.2715C238.569 60.0757 239.853 58.4734 240.651 56.4565C241.337 54.6868 242.558 53.4033 244.337 52.6061C246.068 51.8488 247.839 51.8169 249.642 52.4945C251.413 53.22 252.697 54.4397 253.495 56.1775C254.253 57.9473 254.285 59.717 253.607 61.4867C251.756 66.1423 248.764 69.897 244.608 72.7429C240.491 75.557 235.92 76.96 230.902 76.96C224.185 76.96 218.465 74.6004 213.735 69.8651C209.004 65.1378 206.635 59.4061 206.635 52.654V6.92766H206.643Z" fill="white"/>
<path d="M253.846 33.5533C255.402 33.5454 256.877 34.3983 258.17 35.6499C259.877 37.3001 259.981 37.3001 261.736 35.618C264.344 33.0989 267.767 32.796 270.519 34.8527C273.263 36.9095 273.893 41.1823 271.596 43.7413C269.075 46.5553 266.339 49.1781 263.69 51.8805C262.861 52.7255 262.023 53.5626 261.169 54.3916C260.284 55.2526 259.638 55.2685 258.784 54.4156C255.441 51.0833 252.099 47.7671 248.796 44.403C246.786 42.3542 246.347 39.6358 247.52 37.1247C248.589 34.8288 251.006 33.3859 253.854 33.5454" fill="white"/>
<path d="M109.62 108.273C109.62 112.028 106.748 114.388 102.225 114.388H99.8791V118.374H94.4065V102.151H102.225C106.748 102.151 109.62 104.511 109.62 108.265V108.273ZM104.099 108.273C104.099 107.093 103.381 106.376 101.873 106.376H99.8791V110.178H101.873C103.381 110.178 104.099 109.461 104.099 108.281V108.273Z" fill="#F8E620"/>
<path d="M110.561 112.028C110.561 108.178 113.648 105.467 117.932 105.467C122.216 105.467 125.304 108.178 125.304 112.028C125.304 115.878 122.24 118.613 117.932 118.613C113.624 118.613 110.561 115.878 110.561 112.028ZM119.998 112.028C119.998 110.386 119.097 109.549 117.932 109.549C116.768 109.549 115.866 110.386 115.866 112.028C115.866 113.67 116.768 114.531 117.932 114.531C119.097 114.531 119.998 113.67 119.998 112.028Z" fill="#F8E620"/>
<path d="M136.041 105.475V110.107C135.579 110.035 135.252 110.011 134.885 110.011C133.305 110.011 132.196 110.729 132.196 112.746V118.374H126.955V105.698H131.941V107.07C132.866 106.001 134.286 105.467 136.041 105.467V105.475Z" fill="#F8E620"/>
<path d="M158.347 105.707V118.382H153.361V117.178C152.411 118.151 151.135 118.613 149.763 118.613C146.723 118.613 144.426 116.827 144.426 112.706V105.707H149.667V111.805C149.667 113.615 150.289 114.212 151.31 114.212C152.212 114.212 153.097 113.543 153.097 111.661V105.707H158.339H158.347Z" fill="#F8E620"/>
<path d="M182.503 111.151V118.381H177.261V112.052C177.261 110.473 176.679 109.876 175.849 109.876C174.924 109.876 174.206 110.497 174.206 112.195V118.381H168.965V112.052C168.965 110.473 168.43 109.876 167.553 109.876C166.627 109.876 165.909 110.497 165.909 112.195V118.381H160.668V105.706H165.654V106.886C166.603 105.937 167.856 105.475 169.252 105.475C170.895 105.475 172.339 106.081 173.217 107.396C174.238 106.169 175.722 105.475 177.461 105.475C180.333 105.475 182.519 107.165 182.519 111.151H182.503Z" fill="#F8E620"/>
<path d="M197.317 111.566V118.381H192.451V116.715C191.844 117.991 190.64 118.613 188.853 118.613C185.742 118.613 184.146 116.851 184.146 114.675C184.146 112.219 186.005 110.848 189.946 110.848H192.06C191.9 109.876 191.158 109.365 189.674 109.365C188.542 109.365 187.265 109.74 186.428 110.362L184.76 106.91C186.244 105.985 188.494 105.475 190.464 105.475C194.82 105.475 197.325 107.348 197.325 111.574L197.317 111.566ZM192.076 114.252V113.375H190.775C189.658 113.375 189.172 113.75 189.172 114.443C189.172 115.025 189.635 115.464 190.424 115.464C191.142 115.464 191.788 115.097 192.068 114.26L192.076 114.252Z" fill="#F8E620"/>
<path d="M220.667 105.707L215.562 118.382H210.137L205.039 105.707H210.416L212.969 112.499L215.705 105.707H220.667Z" fill="#F8E620"/>
<path d="M220.938 102.023C220.938 100.517 222.167 99.3608 224.09 99.3608C226.012 99.3608 227.241 100.429 227.241 101.936C227.241 103.538 226.012 104.694 224.09 104.694C222.167 104.694 220.938 103.538 220.938 102.031V102.023ZM221.473 105.706H226.714V118.382H221.473V105.706Z" fill="#F8E620"/>
<path d="M243.06 101.187V118.382H238.074V117.337C237.308 118.198 236.176 118.613 234.596 118.613C231.277 118.613 228.477 116.11 228.477 112.028C228.477 107.947 231.285 105.467 234.596 105.467C235.984 105.467 237.053 105.818 237.819 106.56V101.187H243.06ZM237.915 112.028C237.915 110.386 237.013 109.549 235.849 109.549C234.684 109.549 233.782 110.386 233.782 112.028C233.782 113.67 234.684 114.531 235.849 114.531C237.013 114.531 237.915 113.67 237.915 112.028Z" fill="#F8E620"/>
<path d="M257.914 111.566V118.381H253.048V116.715C252.442 117.991 251.237 118.613 249.45 118.613C246.339 118.613 244.744 116.851 244.744 114.675C244.744 112.219 246.602 110.848 250.543 110.848H252.657C252.498 109.876 251.756 109.365 250.272 109.365C249.139 109.365 247.863 109.74 247.025 110.362L245.358 106.91C246.842 105.985 249.091 105.475 251.062 105.475C255.417 105.475 257.922 107.348 257.922 111.574L257.914 111.566ZM252.673 114.252V113.375H251.373C250.256 113.375 249.769 113.75 249.769 114.443C249.769 115.025 250.232 115.464 251.022 115.464C251.74 115.464 252.386 115.097 252.665 114.26L252.673 114.252Z" fill="#F8E620"/>
<path d="M71.8699 131.424C71.8699 127.573 74.9811 124.863 79.3608 124.863C82.4481 124.863 84.7616 126.274 85.5993 128.618L81.5387 130.61C81.0042 129.431 80.2383 128.944 79.3369 128.944C78.1562 128.944 77.1829 129.781 77.1829 131.424C77.1829 133.066 78.1562 133.927 79.3369 133.927C80.2383 133.927 81.0042 133.44 81.5387 132.261L85.5993 134.254C84.7616 136.597 82.4481 138.008 79.3608 138.008C74.9811 138.008 71.8699 135.298 71.8699 131.424Z" fill="#F8E620"/>
<path d="M86.014 131.424C86.014 127.573 89.1014 124.863 93.3853 124.863C97.6692 124.863 100.757 127.573 100.757 131.424C100.757 135.274 97.6932 138.008 93.3853 138.008C89.0774 138.008 86.014 135.274 86.014 131.424ZM95.4515 131.424C95.4515 129.781 94.55 128.944 93.3853 128.944C92.2206 128.944 91.3191 129.781 91.3191 131.424C91.3191 133.066 92.2206 133.927 93.3853 133.927C94.55 133.927 95.4515 133.066 95.4515 131.424Z" fill="#F8E620"/>
<path d="M124.25 130.539V137.769H119.009V131.44C119.009 129.861 118.427 129.263 117.597 129.263C116.672 129.263 115.954 129.885 115.954 131.583V137.769H110.713V131.44C110.713 129.861 110.178 129.263 109.301 129.263C108.375 129.263 107.657 129.885 107.657 131.583V137.769H102.416V125.094H107.402V126.274C108.351 125.325 109.604 124.863 111 124.863C112.643 124.863 114.087 125.469 114.965 126.784C115.986 125.556 117.47 124.863 119.209 124.863C122.081 124.863 124.266 126.553 124.266 130.539H124.25Z" fill="#F8E620"/>
<path d="M155.315 130.539V137.769H150.074V131.44C150.074 129.861 149.492 129.263 148.662 129.263C147.736 129.263 147.018 129.885 147.018 131.583V137.769H141.777V131.44C141.777 129.861 141.243 129.263 140.365 129.263C139.44 129.263 138.722 129.885 138.722 131.583V137.769H133.481V125.094H138.467V126.274C139.416 125.325 140.668 124.863 142.064 124.863C143.708 124.863 145.152 125.469 146.029 126.784C147.05 125.556 148.534 124.863 150.273 124.863C153.145 124.863 155.331 126.553 155.331 130.539H155.315Z" fill="#F8E620"/>
<path d="M170.122 130.953V137.769H165.255V136.103C164.649 137.379 163.444 138 161.657 138C158.546 138 156.951 136.239 156.951 134.062C156.951 131.607 158.809 130.236 162.75 130.236H164.864C164.705 129.263 163.963 128.753 162.479 128.753C161.346 128.753 160.07 129.128 159.232 129.75L157.565 126.298C159.049 125.373 161.298 124.863 163.269 124.863C167.625 124.863 170.129 126.736 170.129 130.961L170.122 130.953ZM164.88 133.64V132.763H163.58C162.463 132.763 161.976 133.138 161.976 133.831C161.976 134.413 162.439 134.851 163.229 134.851C163.947 134.851 164.593 134.485 164.872 133.648L164.88 133.64Z" fill="#F8E620"/>
<path d="M171.861 121.411C171.861 119.904 173.089 118.748 175.012 118.748C176.934 118.748 178.163 119.816 178.163 121.323C178.163 122.925 176.934 124.081 175.012 124.081C173.089 124.081 171.861 122.925 171.861 121.419V121.411ZM172.395 125.094H177.636V137.769H172.395V125.094Z" fill="#F8E620"/>
<path d="M179.16 136.748L180.596 133.297C181.801 134.014 183.516 134.429 185.024 134.429C186.3 134.429 186.651 134.197 186.651 133.823C186.651 132.523 179.344 134.261 179.344 129.191C179.344 126.808 181.569 124.854 185.837 124.854C187.696 124.854 189.666 125.205 191.007 125.899L189.571 129.351C188.27 128.633 186.97 128.426 185.909 128.426C184.561 128.426 184.194 128.729 184.194 129.032C184.194 130.355 191.477 128.641 191.477 133.711C191.477 136.007 189.323 138 184.912 138C182.734 138 180.46 137.49 179.16 136.748Z" fill="#F8E620"/>
<path d="M199.335 131.424C199.335 127.573 202.447 124.863 206.826 124.863C209.914 124.863 212.227 126.274 213.065 128.618L209.004 130.61C208.47 129.431 207.704 128.944 206.802 128.944C205.622 128.944 204.648 129.781 204.648 131.424C204.648 133.066 205.622 133.927 206.802 133.927C207.704 133.927 208.47 133.44 209.004 132.261L213.065 134.254C212.227 136.597 209.914 138.008 206.826 138.008C202.447 138.008 199.335 135.298 199.335 131.424Z" fill="#F8E620"/>
<path d="M213.472 131.424C213.472 127.573 216.559 124.863 220.843 124.863C225.127 124.863 228.214 127.573 228.214 131.424C228.214 135.274 225.151 138.008 220.843 138.008C216.535 138.008 213.472 135.274 213.472 131.424ZM222.909 131.424C222.909 129.781 222.008 128.944 220.843 128.944C219.678 128.944 218.777 129.781 218.777 131.424C218.777 133.066 219.678 133.927 220.843 133.927C222.008 133.927 222.909 133.066 222.909 131.424Z" fill="#F8E620"/>
<path d="M229.865 120.574H235.107V137.769H229.865V120.574Z" fill="#F8E620"/>
<path d="M236.75 131.424C236.75 127.573 239.837 124.863 244.121 124.863C248.405 124.863 251.493 127.573 251.493 131.424C251.493 135.274 248.429 138.008 244.121 138.008C239.813 138.008 236.75 135.274 236.75 131.424ZM246.187 131.424C246.187 129.781 245.286 128.944 244.121 128.944C242.957 128.944 242.055 129.781 242.055 131.424C242.055 133.066 242.957 133.927 244.121 133.927C245.286 133.927 246.187 133.066 246.187 131.424Z" fill="#F8E620"/>
<path d="M252.442 134.987C252.442 133.201 253.766 132.021 255.505 132.021C257.244 132.021 258.569 133.201 258.569 134.987C258.569 136.773 257.244 138 255.505 138C253.766 138 252.442 136.749 252.442 134.987Z" fill="#F8E620"/>
</g>
<defs>
<clipPath id="clip0_101_84">
<rect width="273" height="138" fill="white"/>
</clipPath>
</defs>
</svg>
