<svg width="343" height="174" viewBox="0 0 343 174" fill="none" xmlns="http://www.w3.org/2000/svg">
<g clip-path="url(#clip0_101_16)">
<path d="M0 9.78C0 7.06 0.95 4.75 2.85 2.86C4.75 0.96 7.06 0 9.78 0C12.5 0 14.8 0.96 16.7 2.85C18.6 4.75 19.55 7.06 19.55 9.77V77.06H56.96C59.63 77.06 61.91 78.02 63.81 79.91C65.72 81.81 66.66 84.1 66.66 86.76C66.66 89.42 65.71 91.79 63.81 93.69C61.91 95.59 59.62 96.54 56.96 96.54H9.78C7.06 96.54 4.75 95.59 2.85 93.69C0.95 91.78 0 89.48 0 86.76L0 9.78Z" fill="white"/>
<path d="M94.24 86.78C94.24 89.49 93.29 91.8 91.39 93.7C89.48 95.6 87.18 96.55 84.47 96.55C81.76 96.55 79.44 95.6 77.55 93.7C75.64 91.79 74.7 89.49 74.7 86.78V34.29C74.7 31.61 75.65 29.33 77.55 27.43C79.45 25.48 81.76 24.51 84.47 24.51C87.18 24.51 89.49 25.48 91.39 27.43C93.29 29.33 94.24 31.62 94.24 34.29V86.78ZM91.39 2.85C93.29 4.75 94.24 7.06 94.24 9.77C94.24 12.48 93.29 14.8 91.39 16.69C89.48 18.6 87.18 19.54 84.47 19.54C81.76 19.54 79.44 18.59 77.55 16.69C75.64 14.79 74.7 12.48 74.7 9.77C74.7 7.06 75.65 4.74 77.55 2.85C79.45 0.95 81.76 0 84.47 0C87.18 0 89.49 0.96 91.39 2.85Z" fill="white"/>
<path d="M106.46 8.69C106.46 6.29 107.29 4.23 108.98 2.51C110.7 0.830002 112.76 -0.00999832 115.16 -0.00999832C117.56 -0.00999832 119.6 0.830002 121.27 2.51C122.99 4.23 123.84 6.29 123.84 8.69V21.12H154.8C157.2 21.12 159.26 21.95 160.98 23.63C162.66 25.36 163.5 27.41 163.5 29.81C163.5 32.21 162.66 34.27 160.98 35.99C159.26 37.67 157.2 38.5 154.8 38.5H123.84V66.07C123.84 69.64 125.11 72.72 127.64 75.3C130.22 77.83 133.3 79.1 136.87 79.1C139.59 79.1 142.05 78.35 144.28 76.86C146.49 75.36 148.1 73.35 149.1 70.82C149.96 68.6 151.49 66.99 153.72 65.99C155.89 65.04 158.11 65 160.37 65.85C162.59 66.76 164.2 68.29 165.2 70.47C166.15 72.69 166.19 74.91 165.34 77.13C163.02 82.97 159.27 87.68 154.06 91.25C148.9 94.78 143.17 96.54 136.88 96.54C128.46 96.54 121.29 93.58 115.36 87.64C109.43 81.71 106.46 74.52 106.46 66.05V8.69Z" fill="white"/>
<path d="M228.14 49.57C224.65 40.7 218.86 36.26 210.76 36.26C201.79 36.26 195.62 40.7 192.22 49.57H228.14ZM230.79 71.09C233.69 71.27 235.97 72.38 237.65 74.42C239.37 76.46 240.02 78.74 239.62 81.27C239.25 83.67 238.01 85.75 235.88 87.52C232.39 90.42 228.46 92.66 224.07 94.24C219.73 95.78 215.29 96.55 210.77 96.55C199.9 96.55 190.62 92.7 182.93 85.01C175.24 77.32 171.39 68.03 171.39 57.17C171.39 46.31 175.24 36.96 182.93 29.27C190.62 21.57 199.91 17.72 210.77 17.72C221.63 17.72 230.98 21.57 238.67 29.27C246.37 36.96 250.21 46.26 250.21 57.17C250.21 62.2 246.95 64.71 240.44 64.71H192.57C193.52 68.51 195.37 71.57 198.14 73.88C201.45 76.6 205.65 77.96 210.77 77.96C215.57 77.96 219.77 76.44 223.4 73.41C225.53 71.69 227.99 70.92 230.8 71.1" fill="white"/>
<path d="M259.03 8.69C259.03 6.29 259.86 4.23 261.54 2.51C263.27 0.830002 265.32 -0.00999832 267.72 -0.00999832C270.12 -0.00999832 272.15 0.830002 273.83 2.51C275.55 4.23 276.4 6.29 276.4 8.69V21.12H307.36C309.75 21.12 311.82 21.95 313.54 23.63C315.22 25.36 316.06 27.41 316.06 29.81C316.06 32.21 315.22 34.27 313.54 35.99C311.82 37.67 309.76 38.5 307.36 38.5H276.4V66.07C276.4 69.64 277.67 72.72 280.2 75.3C282.78 77.83 285.86 79.1 289.43 79.1C292.15 79.1 294.61 78.35 296.84 76.86C299.05 75.36 300.66 73.35 301.66 70.82C302.52 68.6 304.05 66.99 306.28 65.99C308.45 65.04 310.67 65 312.93 65.85C315.15 66.76 316.76 68.29 317.76 70.47C318.71 72.69 318.75 74.91 317.9 77.13C315.58 82.97 311.83 87.68 306.62 91.25C301.46 94.78 295.73 96.54 289.44 96.54C281.02 96.54 273.85 93.58 267.92 87.64C261.99 81.71 259.02 74.52 259.02 66.05V8.69H259.03Z" fill="white"/>
<path d="M318.2 42.09C320.15 42.08 322 43.15 323.62 44.72C325.76 46.79 325.89 46.79 328.09 44.68C331.36 41.52 335.65 41.14 339.1 43.72C342.54 46.3 343.33 51.66 340.45 54.87C337.29 58.4 333.86 61.69 330.54 65.08C329.5 66.14 328.45 67.19 327.38 68.23C326.27 69.31 325.46 69.33 324.39 68.26C320.2 64.08 316.01 59.92 311.87 55.7C309.35 53.13 308.8 49.72 310.27 46.57C311.61 43.69 314.64 41.88 318.21 42.08" fill="white"/>
<path d="M137.41 135.82C137.41 140.53 133.81 143.49 128.14 143.49H125.2V148.49H118.34V128.14H128.14C133.81 128.14 137.41 131.1 137.41 135.81V135.82ZM130.49 135.82C130.49 134.34 129.59 133.44 127.7 133.44H125.2V138.21H127.7C129.59 138.21 130.49 137.31 130.49 135.83V135.82Z" fill="#F8E620"/>
<path d="M138.59 140.53C138.59 135.7 142.46 132.3 147.83 132.3C153.2 132.3 157.07 135.7 157.07 140.53C157.07 145.36 153.23 148.79 147.83 148.79C142.43 148.79 138.59 145.36 138.59 140.53ZM150.42 140.53C150.42 138.47 149.29 137.42 147.83 137.42C146.37 137.42 145.24 138.47 145.24 140.53C145.24 142.59 146.37 143.67 147.83 143.67C149.29 143.67 150.42 142.59 150.42 140.53Z" fill="#F8E620"/>
<path d="M170.53 132.31V138.12C169.95 138.03 169.54 138 169.08 138C167.1 138 165.71 138.9 165.71 141.43V148.49H159.14V132.59H165.39V134.31C166.55 132.97 168.33 132.3 170.53 132.3V132.31Z" fill="#F8E620"/>
<path d="M198.49 132.6V148.5H192.24V146.99C191.05 148.21 189.45 148.79 187.73 148.79C183.92 148.79 181.04 146.55 181.04 141.38V132.6H187.61V140.25C187.61 142.52 188.39 143.27 189.67 143.27C190.8 143.27 191.91 142.43 191.91 140.07V132.6H198.48H198.49Z" fill="#F8E620"/>
<path d="M228.77 139.43V148.5H222.2V140.56C222.2 138.58 221.47 137.83 220.43 137.83C219.27 137.83 218.37 138.61 218.37 140.74V148.5H211.8V140.56C211.8 138.58 211.13 137.83 210.03 137.83C208.87 137.83 207.97 138.61 207.97 140.74V148.5H201.4V132.6H207.65V134.08C208.84 132.89 210.41 132.31 212.16 132.31C214.22 132.31 216.03 133.07 217.13 134.72C218.41 133.18 220.27 132.31 222.45 132.31C226.05 132.31 228.79 134.43 228.79 139.43H228.77Z" fill="#F8E620"/>
<path d="M247.34 139.95V148.5H241.24V146.41C240.48 148.01 238.97 148.79 236.73 148.79C232.83 148.79 230.83 146.58 230.83 143.85C230.83 140.77 233.16 139.05 238.1 139.05H240.75C240.55 137.83 239.62 137.19 237.76 137.19C236.34 137.19 234.74 137.66 233.69 138.44L231.6 134.11C233.46 132.95 236.28 132.31 238.75 132.31C244.21 132.31 247.35 134.66 247.35 139.96L247.34 139.95ZM240.77 143.32V142.22H239.14C237.74 142.22 237.13 142.69 237.13 143.56C237.13 144.29 237.71 144.84 238.7 144.84C239.6 144.84 240.41 144.38 240.76 143.33L240.77 143.32Z" fill="#F8E620"/>
<path d="M276.61 132.6L270.21 148.5H263.41L257.02 132.6H263.76L266.96 141.12L270.39 132.6H276.61Z" fill="#F8E620"/>
<path d="M276.95 127.98C276.95 126.09 278.49 124.64 280.9 124.64C283.31 124.64 284.85 125.98 284.85 127.87C284.85 129.88 283.31 131.33 280.9 131.33C278.49 131.33 276.95 129.88 276.95 127.99V127.98ZM277.62 132.6H284.19V148.5H277.62V132.6Z" fill="#F8E620"/>
<path d="M304.68 126.93V148.5H298.43V147.19C297.47 148.27 296.05 148.79 294.07 148.79C289.91 148.79 286.4 145.65 286.4 140.53C286.4 135.41 289.92 132.3 294.07 132.3C295.81 132.3 297.15 132.74 298.11 133.67V126.93H304.68ZM298.23 140.53C298.23 138.47 297.1 137.42 295.64 137.42C294.18 137.42 293.05 138.47 293.05 140.53C293.05 142.59 294.18 143.67 295.64 143.67C297.1 143.67 298.23 142.59 298.23 140.53Z" fill="#F8E620"/>
<path d="M323.3 139.95V148.5H317.2V146.41C316.44 148.01 314.93 148.79 312.69 148.79C308.79 148.79 306.79 146.58 306.79 143.85C306.79 140.77 309.12 139.05 314.06 139.05H316.71C316.51 137.83 315.58 137.19 313.72 137.19C312.3 137.19 310.7 137.66 309.65 138.44L307.56 134.11C309.42 132.95 312.24 132.31 314.71 132.31C320.17 132.31 323.31 134.66 323.31 139.96L323.3 139.95ZM316.73 143.32V142.22H315.1C313.7 142.22 313.09 142.69 313.09 143.56C313.09 144.29 313.67 144.84 314.66 144.84C315.56 144.84 316.37 144.38 316.72 143.33L316.73 143.32Z" fill="#F8E620"/>
<path d="M90.09 164.86C90.09 160.03 93.99 156.63 99.48 156.63C103.35 156.63 106.25 158.4 107.3 161.34L102.21 163.84C101.54 162.36 100.58 161.75 99.45 161.75C97.97 161.75 96.75 162.8 96.75 164.86C96.75 166.92 97.97 168 99.45 168C100.58 168 101.54 167.39 102.21 165.91L107.3 168.41C106.25 171.35 103.35 173.12 99.48 173.12C93.99 173.12 90.09 169.72 90.09 164.86Z" fill="#F8E620"/>
<path d="M107.82 164.86C107.82 160.03 111.69 156.63 117.06 156.63C122.43 156.63 126.3 160.03 126.3 164.86C126.3 169.69 122.46 173.12 117.06 173.12C111.66 173.12 107.82 169.69 107.82 164.86ZM119.65 164.86C119.65 162.8 118.52 161.75 117.06 161.75C115.6 161.75 114.47 162.8 114.47 164.86C114.47 166.92 115.6 168 117.06 168C118.52 168 119.65 166.92 119.65 164.86Z" fill="#F8E620"/>
<path d="M155.75 163.75V172.82H149.18V164.88C149.18 162.9 148.45 162.15 147.41 162.15C146.25 162.15 145.35 162.93 145.35 165.06V172.82H138.78V164.88C138.78 162.9 138.11 162.15 137.01 162.15C135.85 162.15 134.95 162.93 134.95 165.06V172.82H128.38V156.92H134.63V158.4C135.82 157.21 137.39 156.63 139.14 156.63C141.2 156.63 143.01 157.39 144.11 159.04C145.39 157.5 147.25 156.63 149.43 156.63C153.03 156.63 155.77 158.75 155.77 163.75H155.75Z" fill="#F8E620"/>
<path d="M194.69 163.75V172.82H188.12V164.88C188.12 162.9 187.39 162.15 186.35 162.15C185.19 162.15 184.29 162.93 184.29 165.06V172.82H177.72V164.88C177.72 162.9 177.05 162.15 175.95 162.15C174.79 162.15 173.89 162.93 173.89 165.06V172.82H167.32V156.92H173.57V158.4C174.76 157.21 176.33 156.63 178.08 156.63C180.14 156.63 181.95 157.39 183.05 159.04C184.33 157.5 186.19 156.63 188.37 156.63C191.97 156.63 194.71 158.75 194.71 163.75H194.69Z" fill="#F8E620"/>
<path d="M213.25 164.27V172.82H207.15V170.73C206.39 172.33 204.88 173.11 202.64 173.11C198.74 173.11 196.74 170.9 196.74 168.17C196.74 165.09 199.07 163.37 204.01 163.37H206.66C206.46 162.15 205.53 161.51 203.67 161.51C202.25 161.51 200.65 161.98 199.6 162.76L197.51 158.43C199.37 157.27 202.19 156.63 204.66 156.63C210.12 156.63 213.26 158.98 213.26 164.28L213.25 164.27ZM206.68 167.64V166.54H205.05C203.65 166.54 203.04 167.01 203.04 167.88C203.04 168.61 203.62 169.16 204.61 169.16C205.51 169.16 206.32 168.7 206.67 167.65L206.68 167.64Z" fill="#F8E620"/>
<path d="M215.43 152.3C215.43 150.41 216.97 148.96 219.38 148.96C221.79 148.96 223.33 150.3 223.33 152.19C223.33 154.2 221.79 155.65 219.38 155.65C216.97 155.65 215.43 154.2 215.43 152.31V152.3ZM216.1 156.92H222.67V172.82H216.1V156.92Z" fill="#F8E620"/>
<path d="M224.58 171.54L226.38 167.21C227.89 168.11 230.04 168.63 231.93 168.63C233.53 168.63 233.97 168.34 233.97 167.87C233.97 166.24 224.81 168.42 224.81 162.06C224.81 159.07 227.6 156.62 232.95 156.62C235.28 156.62 237.75 157.06 239.43 157.93L237.63 162.26C236 161.36 234.37 161.1 233.04 161.1C231.35 161.1 230.89 161.48 230.89 161.86C230.89 163.52 240.02 161.37 240.02 167.73C240.02 170.61 237.32 173.11 231.79 173.11C229.06 173.11 226.21 172.47 224.58 171.54Z" fill="#F8E620"/>
<path d="M249.87 164.86C249.87 160.03 253.77 156.63 259.26 156.63C263.13 156.63 266.03 158.4 267.08 161.34L261.99 163.84C261.32 162.36 260.36 161.75 259.23 161.75C257.75 161.75 256.53 162.8 256.53 164.86C256.53 166.92 257.75 168 259.23 168C260.36 168 261.32 167.39 261.99 165.91L267.08 168.41C266.03 171.35 263.13 173.12 259.26 173.12C253.77 173.12 249.87 169.72 249.87 164.86Z" fill="#F8E620"/>
<path d="M267.59 164.86C267.59 160.03 271.46 156.63 276.83 156.63C282.2 156.63 286.07 160.03 286.07 164.86C286.07 169.69 282.23 173.12 276.83 173.12C271.43 173.12 267.59 169.69 267.59 164.86ZM279.42 164.86C279.42 162.8 278.29 161.75 276.83 161.75C275.37 161.75 274.24 162.8 274.24 164.86C274.24 166.92 275.37 168 276.83 168C278.29 168 279.42 166.92 279.42 164.86Z" fill="#F8E620"/>
<path d="M288.14 151.25H294.71V172.82H288.14V151.25Z" fill="#F8E620"/>
<path d="M296.77 164.86C296.77 160.03 300.64 156.63 306.01 156.63C311.38 156.63 315.25 160.03 315.25 164.86C315.25 169.69 311.41 173.12 306.01 173.12C300.61 173.12 296.77 169.69 296.77 164.86ZM308.6 164.86C308.6 162.8 307.47 161.75 306.01 161.75C304.55 161.75 303.42 162.8 303.42 164.86C303.42 166.92 304.55 168 306.01 168C307.47 168 308.6 166.92 308.6 164.86Z" fill="#F8E620"/>
<path d="M316.44 169.33C316.44 167.09 318.1 165.61 320.28 165.61C322.46 165.61 324.12 167.09 324.12 169.33C324.12 171.57 322.46 173.11 320.28 173.11C318.1 173.11 316.44 171.54 316.44 169.33Z" fill="#F8E620"/>
</g>
<defs>
<clipPath id="clip0_101_16">
<rect width="342.21" height="173.11" fill="white"/>
</clipPath>
</defs>
</svg>
