<svg width="200" height="200" viewBox="0 0 200 200" fill="none" xmlns="http://www.w3.org/2000/svg">
<g id="Prancheta 1 1">
<path id="Vector" d="M106.44 58.1067L121.16 70.7667L110.413 80.0133C108.913 81.2867 107.413 82.5667 105.967 83.8933C105.293 84.5067 104.9 85.6467 105.04 86.5267C105.18 87.5267 106.267 88.3867 107.153 88.5267C108.02 88.6467 108.973 88.1867 109.553 87.7C112.653 85.06 115.753 82.4067 118.833 79.7467L122.553 76.56V106.68C122.547 107.387 122.547 109.033 124.22 109.733C124.593 109.887 124.947 109.953 125.267 109.953C126.407 109.953 127.213 109.16 127.567 108.82C133.28 103.26 138.993 97.7133 144.72 92.1733L146.9 90.06C147.747 89.24 147.9 88.44 147.887 87.9133C147.873 87.38 147.667 86.5933 146.76 85.8133L137.28 77.66L129.273 70.7667L146.827 55.6867C147.673 54.96 147.867 54.1733 147.887 53.64C147.9 53.1 147.753 52.3 146.947 51.5067L143.56 48.2333C138.24 43.0733 132.927 37.9067 127.6 32.7534C126.987 32.1467 126.427 31.8067 125.847 31.68C124.753 31.44 124.007 31.7934 123.587 32.1334C123.107 32.52 122.54 33.2867 122.54 34.78V64.9867L112.187 56.0733C111.233 55.2467 110.273 54.42 109.307 53.6133C108.673 53.0867 107.947 52.84 107.22 52.9067C106.547 52.9733 105.92 53.3133 105.473 53.8733C104.52 55.02 104.647 56.4333 105.813 57.5533C105.987 57.72 106.167 57.8733 106.44 58.1133V58.1067ZM127.933 64.9267V40.4067L141.32 53.4067L127.933 64.92V64.9267ZM127.907 101.113V76.58L141.293 88.1L127.907 101.113Z" fill="black"/>
<path id="Vector_2" d="M156.26 142.753C155.987 140.147 154.02 138.407 151.933 136.9C144.593 131.633 137.64 127.44 130.66 124.06C124.853 121.253 122.673 121.707 118.353 126.667L113.333 132.347C107.12 130.487 101.413 127.327 95.9134 122.72C88.1867 116.247 82.7067 108.18 79.58 98.5733C81.38 97.0467 83.14 95.48 84.9 93.9067L85.7067 93.1867C90.1267 89.2533 90.6 87.02 88.1067 81.7667C84.8534 74.9 80.6534 67.9067 74.8867 59.76C74.2867 58.92 73.54 58.1133 72.6067 57.3067C70.24 55.24 67.6934 55.0667 65.08 56.7933C64.18 57.3867 63.3 58.04 62.5134 58.7733C56.7467 64.08 51.4067 70.3533 45.7067 78.5067C43.8867 81.1133 43.3267 83.9267 43.9534 87.3467C45.36 95.0933 48.22 102.72 52.68 110.653C60.0067 123.7 69.9667 135.593 82.2867 146.013C91.84 154.087 101.22 159.96 110.973 163.96C116.92 166.407 122.32 167.813 127.953 168.4L129.933 168C130.54 167.767 131.467 167.413 132.347 166.847C140.213 161.747 147.233 155.867 153.2 149.367C154.94 147.467 156.52 145.347 156.253 142.747L156.26 142.753ZM148.607 145.16C143 151.267 136.387 156.807 128.96 161.62C128.673 161.807 128.26 161.973 127.867 162.12C123.1 161.553 118.473 160.293 113.347 158.2C104.213 154.447 95.3667 148.907 86.3267 141.253C74.5734 131.32 65.0867 119.993 58.12 107.6C54.0067 100.287 51.38 93.2933 50.0934 86.2333C49.7734 84.4667 49.98 83.3 50.8334 82.0867C56.2667 74.3133 61.3267 68.3667 66.7467 63.36C67.2934 62.86 67.8934 62.42 68.5267 62.02C69.0734 62.4933 69.5 62.9533 69.8 63.3733C75.3467 71.2133 79.38 77.9133 82.4734 84.4467C83.2134 86.0133 83.3734 86.58 83.4134 86.64C83.2867 86.9133 82.6667 87.5467 81.5667 88.5267L80.7467 89.2533C78.8867 90.9133 77.02 92.58 75.1134 94.1867C73.86 95.24 72.56 97.12 73.5067 100.093C76.92 110.913 83.1067 120.133 91.9067 127.5C98.24 132.813 105.153 136.54 112.453 138.587C114.94 139.273 116.487 138.187 117.4 137.16L123.067 130.76C123.5 130.26 124.807 128.753 125.167 128.58C125.507 128.58 126.433 128.947 127.94 129.68C134.587 132.9 141.247 136.92 148.293 141.967C149.5 142.833 149.913 143.3 150.027 143.3C149.933 143.513 149.627 144.047 148.607 145.153V145.16Z" fill="black"/>
</g>
</svg>
