<svg width="200" height="200" viewBox="0 0 200 200" fill="none" xmlns="http://www.w3.org/2000/svg">
<g id="Prancheta 3 1">
<path id="Vector" d="M35.6 137.98C36.32 136.58 37.4467 136.053 39.0267 136.127C41.0733 136.227 43.12 136.14 45.1733 136.153C46.8533 136.167 48.02 137.22 48.0533 138.713C48.0867 140.26 46.9133 141.367 45.16 141.387C43.1133 141.407 41.06 141.327 39.0133 141.413C37.4467 141.48 36.2933 140.993 35.6067 139.547V137.973L35.6 137.98Z" fill="black"/>
<path id="Vector_2" d="M106.7 151.5C99.34 147.213 93.7867 140.947 87.5533 135.52C84.3267 132.713 81.2333 129.747 78.0133 126.933C77.46 126.447 76.5667 126.12 75.82 126.113C66.1267 126.06 56.4333 126.08 46.74 126.08C46.3067 126.08 45.8667 126.1 45.4333 126.053C43.8267 125.907 42.7333 124.793 42.76 123.373C42.7867 121.947 43.9133 120.82 45.5067 120.753C47.0333 120.693 48.56 120.733 50.0933 120.733C56.9933 120.733 63.8867 120.733 71.14 120.733C70.6267 120.227 70.3267 119.913 70.0067 119.62C62.2733 112.613 54.56 105.587 46.8067 98.6C37.9267 90.6 39.4267 77.0467 49.84 71.1667C50.28 70.9134 50.6933 70.3067 50.8 69.8C53.5267 56.2067 64.9733 45.3934 78.8067 43.4534C80.3133 43.24 81.8467 43.1867 83.3733 43.1467C84.88 43.1067 85.74 43.76 86.1667 45.2C86.7133 47.0334 87.16 48.9 87.7467 50.72C90.1533 58.1667 97.8333 62.5534 105.453 60.72C109.82 59.6734 113.84 59.9934 117.447 62.88C119.267 64.3334 120.473 66.2134 121.307 68.38C126.347 81.4667 131.44 94.5267 136.447 107.627C138.56 113.16 142.327 116.747 148.013 118.427C151.847 119.56 155.76 120.54 159.107 122.9C166.393 128.047 170.04 135.08 169.72 144.007C169.473 150.873 163.193 156.78 156.213 156.813C144.64 156.867 133.073 156.827 121.5 156.827C106.433 156.827 91.3733 156.813 76.3067 156.793C75.66 156.793 74.98 156.76 74.3867 156.547C73.18 156.107 72.6667 155.133 72.7733 153.86C72.8733 152.673 73.72 151.767 74.9333 151.587C75.4933 151.507 76.0667 151.5 76.6333 151.5C86.1933 151.5 95.76 151.5 105.32 151.5H106.72H106.7ZM72.5067 88.7134C72.8467 89.1 73.1267 89.4267 73.42 89.7467C76.5133 93.1334 79.6533 96.4734 82.6667 99.9267C83.2533 100.6 83.7133 101.753 83.5733 102.58C83.4467 103.333 82.5467 104.18 81.78 104.553C80.6933 105.073 79.6933 104.447 78.8933 103.573C74.6867 98.96 70.4733 94.3534 66.26 89.7467C62.1667 85.2667 58.0533 80.8 53.9933 76.2867C53.3667 75.5934 52.82 75.4267 52.1267 75.9867C50.98 76.9134 49.7 77.7467 48.7867 78.8734C45.2867 83.1734 45.2 90.14 50.76 95.1134C67.58 110.167 84.2533 125.393 100.96 140.567C107.807 146.78 115.773 150.773 124.993 151.24C135.32 151.767 145.68 151.567 156.033 151.553C159.827 151.553 163.207 148.827 163.92 145.527H162.48C157.193 145.527 151.913 145.587 146.627 145.5C143.667 145.453 140.68 145.34 137.747 144.947C126.327 143.433 115.98 139.227 106.733 132.333C102.44 129.133 98.7 125.347 95.1667 121.353C94.46 120.553 94 119.54 94.6133 118.607C95.0933 117.88 95.9067 117.187 96.72 116.913C97.8067 116.553 98.6333 117.38 99.4133 118.147C102.593 121.26 105.82 124.313 109.007 127.413C109.693 128.08 110.353 128.173 111.22 127.76C113.853 126.507 116.52 125.32 119.167 124.093C119.7 123.847 120.213 123.54 120.747 123.253C120.42 122.68 120.167 122.22 119.907 121.767C112.587 109.127 105.273 96.4867 97.94 83.8534C96.3933 81.1934 95.56 78.3667 95.6 75.2667C95.6467 71.9734 96.7267 69.0467 98.58 66.2267C89.0467 64.0067 83.56 57.9534 81.64 48.5267C76.7267 48.8267 72.4067 50.36 68.38 52.92C80.4467 61.88 81.5133 78.1867 72.5133 88.72L72.5067 88.7134ZM117.78 73.8734C117.093 72.1867 116.573 70.6067 115.833 69.14C114.053 65.6467 109.88 64.4134 106.433 66.2667C101.08 69.1467 99.3133 75.6467 102.48 81.1534C108.327 91.32 114.233 101.453 120.113 111.6C121.86 114.607 123.6 117.62 125.44 120.787C128.433 118.833 131.333 116.947 134.04 115.187C132.54 111.733 131.147 108.52 129.733 105.28C129.1 105.56 128.467 105.853 127.82 106.12C126.187 106.793 124.727 106.273 124.113 104.813C123.52 103.413 124.127 102.06 125.687 101.3C126.413 100.947 127.147 100.593 127.92 100.227C126.82 97.3867 125.767 94.6867 124.693 91.9134C123.527 92.44 122.507 92.9267 121.473 93.3667C119.847 94.0667 118.32 93.5867 117.687 92.1934C117.033 90.76 117.647 89.3334 119.267 88.56C120.173 88.1334 121.12 87.78 121.993 87.3C122.273 87.1467 122.62 86.6067 122.54 86.3867C121.64 83.9 120.66 81.4334 119.66 78.8667C118.567 79.36 117.593 79.82 116.6 80.24C114.98 80.92 113.507 80.4 112.88 78.9467C112.273 77.5467 112.867 76.1734 114.427 75.42C115.48 74.9134 116.553 74.4467 117.78 73.8867V73.8734ZM115.52 131.707C115.647 131.853 115.693 131.933 115.76 131.973C124 136.78 132.873 139.627 142.393 140.04C149.327 140.34 156.28 140.16 163.22 140.187C163.553 140.187 163.887 140.12 164.307 140.073C163.093 133.52 159.647 128.76 153.707 125.947C151.987 125.133 150.113 124.62 148.287 124.067C144.893 123.04 141.54 121.933 138.76 119.62C138.047 119.027 137.62 119.1 136.86 119.567C131.507 122.84 126.127 126.067 120.707 129.227C119.067 130.18 117.273 130.88 115.52 131.707ZM63.92 56.4734C60.0267 60.3334 57.4267 64.82 56.2267 70.0934C56.1467 70.46 56.34 71.02 56.6 71.3134C60.4267 75.5534 64.2933 79.76 68.1467 83.9667C68.3667 84.2067 68.6333 84.4 68.88 84.6134C75.8733 76.36 74.3067 62.74 63.9133 56.4667L63.92 56.4734Z" fill="black"/>
<path id="Vector_3" d="M52.7733 156.813C49.7667 156.813 46.7533 156.84 43.7467 156.8C42.4533 156.787 41.4733 156.173 41.12 154.86C40.78 153.627 41.1667 152.587 42.26 151.933C42.72 151.66 43.3333 151.527 43.8733 151.527C49.8067 151.5 55.7333 151.487 61.6667 151.52C63.4733 151.527 64.64 152.633 64.6333 154.153C64.6333 155.7 63.3733 156.8 61.5333 156.813C58.6133 156.827 55.6867 156.813 52.7667 156.813H52.7733Z" fill="black"/>
<path id="Vector_4" d="M66.1267 141.4C63.4667 141.4 60.8 141.413 58.14 141.4C56.3067 141.387 55.22 140.393 55.22 138.787C55.22 137.18 56.3133 136.167 58.1333 136.167C63.5 136.16 68.8667 136.16 74.2333 136.167C75.98 136.167 77.2067 137.267 77.2067 138.78C77.2067 140.293 75.9933 141.387 74.24 141.4C71.5333 141.42 68.8267 141.4 66.1267 141.4Z" fill="black"/>
</g>
</svg>
