<svg width="61" height="61" viewBox="0 0 61 61" fill="none" xmlns="http://www.w3.org/2000/svg">
<path d="M20.2833 40.394C20.1166 40.394 19.95 40.3573 19.7933 40.2773C19.2566 40.004 19.0433 39.3507 19.3166 38.814L37.0866 3.77734C37.36 3.24068 38.0133 3.02734 38.55 3.30068C39.0866 3.57401 39.3 4.22734 39.0266 4.76401L21.2566 39.8007C21.0633 40.1773 20.6833 40.3973 20.2866 40.3973L20.2833 40.394Z" fill="black"/>
<path d="M20.2833 40.7461C20.06 40.7461 19.8333 40.6927 19.6333 40.5894C18.9233 40.2294 18.64 39.3594 19 38.6527L36.77 3.61608C37.13 2.90941 38 2.62274 38.7067 2.98274C39.4167 3.34274 39.7 4.21274 39.34 4.91941L21.57 39.9561C21.3233 40.4427 20.83 40.7461 20.2833 40.7461ZM38.0567 3.53274C37.7867 3.53274 37.53 3.67941 37.4 3.93608L19.63 38.9727C19.4467 39.3327 19.5933 39.7761 19.9533 39.9594C20.31 40.1394 20.7633 39.9894 20.94 39.6361L38.71 4.59941C38.8933 4.23941 38.7467 3.79608 38.3867 3.61275C38.28 3.55941 38.1667 3.53274 38.0567 3.53274Z" fill="black"/>
<path d="M22.23 57.1235C22.0633 57.1235 21.8966 57.0868 21.74 57.0068C21.2033 56.7335 20.99 56.0802 21.2633 55.5435L39.0333 20.5068C39.3066 19.9702 39.96 19.7568 40.4966 20.0302C41.0333 20.3035 41.2466 20.9568 40.9733 21.4935L23.2033 56.5302C23.01 56.9068 22.63 57.1268 22.2333 57.1268L22.23 57.1235Z" fill="black"/>
<path d="M22.23 57.4765C22.0033 57.4765 21.7833 57.4232 21.58 57.3199C20.87 56.9599 20.5866 56.0899 20.9466 55.3832L38.7166 20.3465C39.0766 19.6399 39.9433 19.3532 40.6533 19.7132C41.36 20.0732 41.6466 20.9432 41.2866 21.6499L23.5166 56.6865C23.27 57.1732 22.7766 57.4765 22.23 57.4765ZM40.0033 20.2632C39.7333 20.2632 39.4766 20.4099 39.3466 20.6665L21.5766 55.7032C21.3933 56.0632 21.54 56.5065 21.9 56.6899C22.2533 56.8699 22.7066 56.7165 22.8866 56.3665L40.6566 21.3299C40.84 20.9699 40.6933 20.5265 40.3333 20.3432C40.2266 20.2899 40.1133 20.2632 40.0033 20.2632Z" fill="black"/>
<path d="M30.1433 60.2866C13.5233 60.2866 0 46.7633 0 30.1433C0 13.5233 13.5233 0 30.1433 0C46.7633 0 60.2867 13.5233 60.2867 30.1433C60.2867 46.7633 46.7633 60.2866 30.1433 60.2866ZM30.1433 3.06333C15.2133 3.06333 3.06333 15.21 3.06333 30.1433C3.06333 45.0767 15.21 57.2233 30.1433 57.2233C45.0767 57.2233 57.2233 45.0767 57.2233 30.1433C57.2233 15.21 45.0767 3.06333 30.1433 3.06333Z" fill="black"/>
</svg>
