<svg width="57" height="78" viewBox="0 0 57 78" fill="none" xmlns="http://www.w3.org/2000/svg">
<g id="Prancheta 14 1" clip-path="url(#clip0_24_15)">
<path id="Vector" d="M55.2852 9.60373L48.5375 7.14823C44.4912 5.67493 40.445 4.20163 36.4046 2.72833C35.2536 2.30393 33.9498 1.87346 32.6872 1.44905C31.3013 0.988263 29.8625 0.503226 28.6057 0.0363778L28.5059 0L28.406 0.0363778C27.1493 0.503226 25.7105 0.9822 24.3245 1.44905C23.0619 1.87346 21.7582 2.30393 20.6072 2.72833C16.5668 4.2077 12.5205 5.68099 8.47424 7.14823L1.72069 9.60373C0.352359 10.1009 0 10.6162 0 12.1138V17.3098C0 22.3299 0 27.35 0.0117453 32.3701C0.0234906 37.9966 0.305378 42.5802 0.898516 46.8C2.12003 55.47 5.59664 62.1939 11.5339 67.3474C14.7932 70.1788 18.6516 72.8283 23.6785 75.69C24.395 76.0962 25.1232 76.4843 25.8514 76.8723C26.3624 77.1451 26.8674 77.4119 27.3724 77.6908C27.7659 77.909 28.1418 78.0061 28.4941 77.9879C28.5235 77.9879 28.5529 77.9879 28.5822 77.9879C28.9287 77.9879 29.2752 77.8909 29.6393 77.6908C30.1443 77.4119 30.6494 77.1391 31.1603 76.8723C31.8885 76.4843 32.6167 76.0962 33.3332 75.69C38.3543 72.8283 42.2127 70.1788 45.4779 67.3474C51.4151 62.1939 54.8976 55.47 56.1132 46.8C56.7064 42.5802 56.9883 37.9966 57 32.3701C57.0117 27.35 57.0117 22.3299 57.0117 17.3098V12.1138C57.0117 10.6162 56.6594 10.1009 55.2911 9.60373H55.2852ZM53.3178 13.387C53.2944 16.3518 53.2885 19.3166 53.2767 22.2814C53.2591 27.2166 53.2415 32.3216 53.171 37.3357C53.0947 42.9803 52.5015 47.5276 51.3035 51.6504C50.1525 55.6216 48.2321 59.0957 45.5953 61.9877C41.9425 65.9893 37.5733 68.8874 32.141 72.0037C30.9606 72.6828 29.9094 73.2527 28.9228 73.7499C28.8289 73.7984 28.6703 73.8226 28.4883 73.8166C28.3414 73.8226 28.1829 73.7984 28.0889 73.7499C27.1023 73.2527 26.0452 72.6828 24.8648 72.0037C19.4326 68.8874 15.0634 65.9893 11.4106 61.9877C8.77375 59.0957 6.85339 55.6216 5.70235 51.6504C4.5102 47.5276 3.91706 42.9803 3.83484 37.3357C3.76437 32.3156 3.74675 27.2166 3.72914 22.2814C3.71739 19.3166 3.71152 16.3518 3.68803 13.387C3.68803 13.0232 3.7585 12.9262 4.14022 12.7868C7.66969 11.5075 11.1933 10.2222 14.7227 8.9368C19.139 7.32406 23.5611 5.71737 27.9832 4.11069C28.1007 4.06825 28.2475 4.044 28.4237 4.044C28.453 4.044 28.4883 4.044 28.5176 4.044C28.7114 4.03187 28.8876 4.05612 29.0227 4.10462C33.4448 5.70525 37.8669 7.31799 42.2831 8.93074C45.8067 10.2161 49.3362 11.5014 52.8657 12.7807C53.2415 12.9202 53.3178 13.0172 53.3178 13.381V13.387Z" fill="black"/>
<path id="Vector_2" d="M46.576 23.9063C46.1121 24.076 45.6364 24.3913 45.2664 24.7672C38.6655 31.5577 32.0764 38.3604 25.4932 45.1691C25.3522 45.3146 25.2407 45.4843 25.1173 45.6784C25.1173 45.6784 25.1115 45.6905 25.1056 45.6905C25.088 45.6662 25.0645 45.642 25.0469 45.6177C24.8883 45.4176 24.7767 45.2721 24.6475 45.1388C21.2003 41.5737 17.753 38.0148 14.2999 34.4558C14.0826 34.2315 13.8301 33.9768 13.5306 33.7828C12.8376 33.3281 11.8686 33.4433 11.2872 34.0496C10.7117 34.6438 10.5884 35.5896 10.9936 36.299C11.1815 36.6264 11.434 36.9053 11.6396 37.1175C15.5508 41.1615 19.4678 45.2054 23.3849 49.2434C24.0015 49.88 24.5477 50.1953 25.0938 50.1953C25.64 50.1953 26.1744 49.88 26.7793 49.2555C33.8147 41.9921 40.856 34.7286 47.8915 27.4592C48.144 27.1984 48.4024 26.9135 48.5786 26.574C48.9427 25.8949 48.8722 25.1734 48.3848 24.5429C47.8856 23.8941 47.2279 23.6637 46.576 23.9002V23.9063Z" fill="black"/>
</g>
<defs>
<clipPath id="clip0_24_15">
<rect width="57" height="78" fill="white"/>
</clipPath>
</defs>
</svg>
