<svg width="94" height="72" viewBox="0 0 94 72" fill="none" xmlns="http://www.w3.org/2000/svg">
<path d="M82.618 24.4715C82.618 22.2407 84.4352 20.4235 86.666 20.4235C88.8968 20.4235 90.714 22.2407 90.714 24.4715V47.5275C90.714 49.7583 88.8968 51.5755 86.666 51.5755C84.4352 51.5755 82.618 49.7583 82.618 47.5275V24.4715ZM79.3312 24.4715V47.5275C79.3312 51.5623 82.6312 54.8623 86.666 54.8623C90.7008 54.8623 94.0008 51.5623 94.0008 47.5275V24.4715C94.0008 20.4367 90.7008 17.1367 86.666 17.1367C82.6312 17.1367 79.3312 20.4367 79.3312 24.4715Z" fill="black"/>
<path d="M62.7828 8.24886C62.7828 6.01806 64.6 4.20086 66.8308 4.20086C69.0616 4.20086 70.8788 6.01806 70.8788 8.24886V63.7505C70.8788 65.9813 69.0616 67.7985 66.8308 67.7985C64.6 67.7985 62.7828 65.9813 62.7828 63.7505V8.24886ZM59.496 8.24886V63.7505C59.496 67.7853 62.796 71.0853 66.8308 71.0853C70.8656 71.0853 74.1656 67.7853 74.1656 63.7505V8.24886C74.1656 4.21406 70.8656 0.914062 66.8308 0.914062C62.796 0.914062 59.496 4.21406 59.496 8.24886Z" fill="black"/>
<path d="M42.952 28.2078C42.952 25.977 44.7692 24.1598 47 24.1598C49.2308 24.1598 51.048 25.977 51.048 28.2078V43.797C51.048 46.0278 49.2308 47.845 47 47.845C44.7692 47.845 42.952 46.0278 42.952 43.797V28.2078ZM39.6652 28.2078V43.797C39.6652 47.8318 42.9652 51.1318 47 51.1318C51.0348 51.1318 54.3348 47.8318 54.3348 43.797V28.2078C54.3348 24.173 51.0348 20.873 47 20.873C42.9652 20.873 39.6652 24.173 39.6652 28.2078Z" fill="black"/>
<path d="M3.28601 27.6971C3.28601 25.4663 5.10321 23.6491 7.33401 23.6491C9.56481 23.6491 11.382 25.4663 11.382 27.6971V44.2983C11.382 46.5291 9.56481 48.3463 7.33401 48.3463C5.10321 48.3463 3.28601 46.5291 3.28601 44.2983V27.6971ZM-0.000793457 27.6971V44.2983C-0.000793457 48.3331 3.29921 51.6331 7.33401 51.6331C11.3688 51.6331 14.6688 48.3331 14.6688 44.2983V27.6971C14.6688 23.6623 11.3688 20.3623 7.33401 20.3623C3.29921 20.3623 -0.000793457 23.6623 -0.000793457 27.6971Z" fill="black"/>
<path d="M23.1168 9.6971C23.1168 7.4663 24.934 5.6491 27.1648 5.6491C29.3956 5.6491 31.2128 7.4663 31.2128 9.6971V62.3035C31.2128 64.5343 29.3956 66.3515 27.1648 66.3515C24.934 66.3515 23.1168 64.5343 23.1168 62.3035V9.6971ZM19.83 9.6971V62.3035C19.83 66.3383 23.13 69.6383 27.1648 69.6383C31.1996 69.6383 34.4996 66.3383 34.4996 62.3035V9.6971C34.4996 5.6623 31.1996 2.3623 27.1648 2.3623C23.13 2.3623 19.83 5.6623 19.83 9.6971Z" fill="black"/>
</svg>
