<svg width="179" height="33" viewBox="0 0 179 33" fill="none" xmlns="http://www.w3.org/2000/svg">
<g id="Layer_1" clip-path="url(#clip0_101_122)">
<path id="Vector" d="M103.43 3.58014C100.88 2.89014 90.69 2.89014 90.69 2.89014C90.69 2.89014 80.49 2.89014 77.95 3.58014C76.55 3.95014 75.44 5.07014 75.07 6.48014C74.39 9.04014 74.39 14.3801 74.39 14.3801C74.39 14.3801 74.39 19.7201 75.07 22.2801C75.44 23.6901 76.55 24.8001 77.95 25.1801C80.41 25.8401 90.06 25.8601 90.66 25.8601H90.72C91.32 25.8601 100.96 25.8401 103.43 25.1801C104.83 24.8001 105.94 23.6901 106.31 22.2801C106.99 19.7201 106.99 14.3801 106.99 14.3801C106.99 14.3801 106.99 9.04014 106.31 6.48014C105.94 5.07014 104.83 3.96014 103.43 3.58014ZM87.36 19.2301V9.53014L95.88 14.3801L87.36 19.2301Z" fill="#F8E620"/>
<g id="Group">
<path id="Vector_2" d="M24.62 5.56006C23.55 5.56006 22.69 6.42006 22.69 7.48006C22.69 8.54006 23.55 9.41006 24.62 9.41006C25.69 9.41006 26.55 8.55006 26.55 7.48006C26.55 6.41006 25.68 5.56006 24.62 5.56006Z" fill="#F8E620"/>
<path id="Vector_3" d="M16.05 7.81006C11.5 7.81006 7.81 11.5001 7.81 16.0501C7.81 20.6001 11.5 24.2901 16.05 24.2901C20.6 24.2901 24.29 20.6001 24.29 16.0501C24.29 11.5001 20.6 7.81006 16.05 7.81006ZM16.05 21.4101C13.09 21.4101 10.7 19.0101 10.7 16.0601C10.7 13.1101 13.09 10.7101 16.05 10.7101C19.01 10.7101 21.4 13.1001 21.4 16.0601C21.4 19.0201 19.01 21.4101 16.05 21.4101Z" fill="#F8E620"/>
<path id="Vector_4" d="M29.41 29.42C30.3 28.53 30.85 27.63 31.26 26.58C31.66 25.56 31.93 24.39 32.01 22.68C32.09 20.97 32.1 20.42 32.1 16.06C32.1 11.7 32.08 11.15 32.01 9.44C31.93 7.73 31.66 6.56 31.26 5.54C30.85 4.49 30.3 3.59 29.41 2.7C28.52 1.81 27.62 1.26 26.57 0.85C25.55 0.45 24.38 0.18 22.67 0.1C20.96 0.02 20.41 0 16.05 0C11.69 0 11.14 0.02 9.43 0.1C7.72 0.18 6.55 0.45 5.53 0.85C4.48 1.26 3.58 1.81 2.69 2.7C1.8 3.59 1.25 4.49 0.84 5.54C0.44 6.56 0.17 7.73 0.09 9.44C0.01 11.15 0 11.7 0 16.06C0 20.42 0.02 20.97 0.09 22.68C0.17 24.39 0.44 25.56 0.84 26.58C1.25 27.63 1.8 28.53 2.69 29.42C3.58 30.31 4.48 30.86 5.53 31.27C6.55 31.67 7.72 31.94 9.43 32.02C11.14 32.1 11.69 32.11 16.05 32.11C20.41 32.11 20.96 32.1 22.67 32.02C24.38 31.94 25.55 31.67 26.57 31.27C27.62 30.86 28.52 30.31 29.41 29.42ZM22.54 29.13C20.85 29.21 20.34 29.22 16.05 29.22C11.76 29.22 11.25 29.21 9.56 29.13C8 29.06 7.15 28.8 6.58 28.58C5.83 28.29 5.29 27.94 4.73 27.38C4.17 26.82 3.82 26.29 3.53 25.54C3.31 24.97 3.05 24.12 2.98 22.56C2.9 20.87 2.89 20.36 2.89 16.07C2.89 11.78 2.9 11.28 2.98 9.58C3.05 8.02 3.31 7.17 3.53 6.6C3.82 5.85 4.17 5.32 4.73 4.76C5.29 4.2 5.82 3.85 6.58 3.56C7.14 3.34 7.99 3.08 9.56 3.01C11.25 2.93 11.76 2.92 16.05 2.92C20.34 2.92 20.85 2.93 22.54 3.01C24.11 3.08 24.95 3.34 25.52 3.56C26.27 3.85 26.8 4.2 27.37 4.76C27.93 5.32 28.28 5.85 28.57 6.6C28.79 7.17 29.05 8.02 29.12 9.58C29.2 11.27 29.21 11.78 29.21 16.07C29.21 20.36 29.2 20.86 29.12 22.56C29.05 24.12 28.79 24.97 28.57 25.54C28.28 26.29 27.93 26.82 27.37 27.38C26.81 27.94 26.27 28.29 25.52 28.58C24.95 28.8 24.11 29.06 22.54 29.13Z" fill="#F8E620"/>
</g>
<path id="Vector_5" d="M178.43 9.44C178.35 7.73 178.08 6.56 177.68 5.54C177.27 4.49 176.72 3.59 175.83 2.7C174.94 1.81 174.04 1.26 172.99 0.85C171.97 0.45 170.8 0.18 169.09 0.1C167.38 0.02 166.83 0 162.47 0C158.11 0 157.56 0.02 155.85 0.1C154.14 0.18 152.97 0.45 151.95 0.85C150.9 1.26 150 1.81 149.11 2.7C148.22 3.59 147.67 4.49 147.26 5.54C146.86 6.56 146.59 7.73 146.51 9.44C146.43 11.15 146.42 11.7 146.42 16.06C146.42 20.42 146.44 20.97 146.51 22.68C146.59 24.39 146.86 25.56 147.26 26.58C147.67 27.63 148.22 28.53 149.11 29.42C150 30.31 150.9 30.86 151.95 31.27C152.97 31.67 154.14 31.94 155.85 32.02C157.56 32.1 158.11 32.11 162.47 32.11C166.83 32.11 167.38 32.1 169.09 32.02C170.8 31.94 171.97 31.67 172.99 31.27C174.04 30.86 174.94 30.31 175.83 29.42C176.72 28.53 177.27 27.63 177.68 26.58C178.08 25.56 178.35 24.39 178.43 22.68C178.51 20.97 178.52 20.42 178.52 16.06C178.52 11.7 178.5 11.15 178.43 9.44ZM168.16 8.06H165.48C164.53 8.06 164.33 8.45 164.33 9.43V11.8H168.16L167.79 15.96H164.33V28.38H159.37V16.02H156.79V11.81H159.37V8.49C159.37 5.38 161.04 3.76 164.73 3.76H168.16V8.08V8.06Z" fill="#F8E620"/>
</g>
<defs>
<clipPath id="clip0_101_122">
<rect width="178.53" height="32.11" fill="white"/>
</clipPath>
</defs>
</svg>
