<svg width="200" height="200" viewBox="0 0 200 200" fill="none" xmlns="http://www.w3.org/2000/svg">
<path d="M35.6 137.981C36.32 136.581 37.4467 136.054 39.0267 136.128C41.0733 136.228 43.12 136.141 45.1733 136.154C46.8533 136.168 48.02 137.221 48.0533 138.714C48.0867 140.261 46.9133 141.368 45.16 141.388C43.1133 141.408 41.06 141.328 39.0133 141.414C37.4467 141.481 36.2933 140.994 35.6067 139.548V137.974L35.6 137.981Z" fill="black"/>
<path d="M106.7 151.5C99.34 147.213 93.7867 140.946 87.5533 135.52C84.3267 132.713 81.2333 129.746 78.0133 126.933C77.46 126.446 76.5667 126.12 75.82 126.113C66.1267 126.06 56.4333 126.08 46.74 126.08C46.3067 126.08 45.8667 126.1 45.4333 126.053C43.8267 125.906 42.7333 124.793 42.76 123.373C42.7867 121.946 43.9133 120.82 45.5067 120.753C47.0333 120.693 48.56 120.733 50.0933 120.733C56.9933 120.733 63.8867 120.733 71.14 120.733C70.6267 120.226 70.3267 119.913 70.0067 119.62C62.2733 112.613 54.56 105.586 46.8067 98.5996C37.9267 90.5996 39.4267 77.0463 49.84 71.1663C50.28 70.9129 50.6933 70.3063 50.8 69.7996C53.5267 56.2063 64.9733 45.3929 78.8067 43.4529C80.3133 43.2396 81.8467 43.1863 83.3733 43.1463C84.88 43.1063 85.74 43.7596 86.1667 45.1996C86.7133 47.0329 87.16 48.8996 87.7467 50.7196C90.1533 58.1663 97.8333 62.5529 105.453 60.7196C109.82 59.6729 113.84 59.9929 117.447 62.8796C119.267 64.3329 120.473 66.2129 121.307 68.3796C126.347 81.4663 131.44 94.5263 136.447 107.626C138.56 113.16 142.327 116.746 148.013 118.426C151.847 119.56 155.76 120.54 159.107 122.9C166.393 128.046 170.04 135.08 169.72 144.006C169.473 150.873 163.193 156.78 156.213 156.813C144.64 156.866 133.073 156.826 121.5 156.826C106.433 156.826 91.3733 156.813 76.3067 156.793C75.66 156.793 74.98 156.76 74.3867 156.546C73.18 156.106 72.6667 155.133 72.7733 153.86C72.8733 152.673 73.72 151.766 74.9333 151.586C75.4933 151.506 76.0667 151.5 76.6333 151.5C86.1933 151.5 95.76 151.5 105.32 151.5H106.72H106.7ZM72.5067 88.7129C72.8467 89.0996 73.1267 89.4263 73.42 89.7463C76.5133 93.1329 79.6533 96.4729 82.6667 99.9263C83.2533 100.6 83.7133 101.753 83.5733 102.58C83.4467 103.333 82.5467 104.18 81.78 104.553C80.6933 105.073 79.6933 104.446 78.8933 103.573C74.6867 98.9596 70.4733 94.3529 66.26 89.7463C62.1667 85.2663 58.0533 80.7996 53.9933 76.2863C53.3667 75.5929 52.82 75.4263 52.1267 75.9863C50.98 76.9129 49.7 77.7463 48.7867 78.8729C45.2867 83.1729 45.2 90.1396 50.76 95.1129C67.58 110.166 84.2533 125.393 100.96 140.566C107.807 146.78 115.773 150.773 124.993 151.24C135.32 151.766 145.68 151.566 156.033 151.553C159.827 151.553 163.207 148.826 163.92 145.526H162.48C157.193 145.526 151.913 145.586 146.627 145.5C143.667 145.453 140.68 145.34 137.747 144.946C126.327 143.433 115.98 139.226 106.733 132.333C102.44 129.133 98.7 125.346 95.1667 121.353C94.46 120.553 94 119.54 94.6133 118.606C95.0933 117.88 95.9067 117.186 96.72 116.913C97.8067 116.553 98.6333 117.38 99.4133 118.146C102.593 121.26 105.82 124.313 109.007 127.413C109.693 128.08 110.353 128.173 111.22 127.76C113.853 126.506 116.52 125.32 119.167 124.093C119.7 123.846 120.213 123.54 120.747 123.253C120.42 122.68 120.167 122.22 119.907 121.766C112.587 109.126 105.273 96.4863 97.94 83.8529C96.3933 81.1929 95.56 78.3663 95.6 75.2663C95.6467 71.9729 96.7267 69.0463 98.58 66.2263C89.0467 64.0063 83.56 57.9529 81.64 48.5263C76.7267 48.8263 72.4067 50.3596 68.38 52.9196C80.4467 61.8796 81.5133 78.1863 72.5133 88.7196L72.5067 88.7129ZM117.78 73.8729C117.093 72.1863 116.573 70.6063 115.833 69.1396C114.053 65.6463 109.88 64.4129 106.433 66.2663C101.08 69.1463 99.3133 75.6463 102.48 81.1529C108.327 91.3196 114.233 101.453 120.113 111.6C121.86 114.606 123.6 117.62 125.44 120.786C128.433 118.833 131.333 116.946 134.04 115.186C132.54 111.733 131.147 108.52 129.733 105.28C129.1 105.56 128.467 105.853 127.82 106.12C126.187 106.793 124.727 106.273 124.113 104.813C123.52 103.413 124.127 102.06 125.687 101.3C126.413 100.946 127.147 100.593 127.92 100.226C126.82 97.3863 125.767 94.6863 124.693 91.9129C123.527 92.4396 122.507 92.9263 121.473 93.3663C119.847 94.0663 118.32 93.5863 117.687 92.1929C117.033 90.7596 117.647 89.3329 119.267 88.5596C120.173 88.1329 121.12 87.7796 121.993 87.2996C122.273 87.1463 122.62 86.6063 122.54 86.3863C121.64 83.8996 120.66 81.4329 119.66 78.8663C118.567 79.3596 117.593 79.8196 116.6 80.2396C114.98 80.9196 113.507 80.3996 112.88 78.9463C112.273 77.5463 112.867 76.1729 114.427 75.4196C115.48 74.9129 116.553 74.4463 117.78 73.8863V73.8729ZM115.52 131.706C115.647 131.853 115.693 131.933 115.76 131.973C124 136.78 132.873 139.626 142.393 140.04C149.327 140.34 156.28 140.16 163.22 140.186C163.553 140.186 163.887 140.12 164.307 140.073C163.093 133.52 159.647 128.76 153.707 125.946C151.987 125.133 150.113 124.62 148.287 124.066C144.893 123.04 141.54 121.933 138.76 119.62C138.047 119.026 137.62 119.1 136.86 119.566C131.507 122.84 126.127 126.066 120.707 129.226C119.067 130.18 117.273 130.88 115.52 131.706ZM63.92 56.4729C60.0267 60.3329 57.4267 64.8196 56.2267 70.0929C56.1467 70.4596 56.34 71.0196 56.6 71.3129C60.4267 75.5529 64.2933 79.7596 68.1467 83.9663C68.3667 84.2063 68.6333 84.3996 68.88 84.6129C75.8733 76.3596 74.3067 62.7396 63.9133 56.4663L63.92 56.4729Z" fill="black"/>
<path d="M52.7733 156.813C49.7667 156.813 46.7533 156.84 43.7467 156.8C42.4533 156.786 41.4733 156.173 41.12 154.86C40.78 153.626 41.1667 152.586 42.26 151.933C42.72 151.66 43.3333 151.526 43.8733 151.526C49.8067 151.5 55.7333 151.486 61.6667 151.52C63.4733 151.526 64.64 152.633 64.6333 154.153C64.6333 155.7 63.3733 156.8 61.5333 156.813C58.6133 156.826 55.6867 156.813 52.7667 156.813H52.7733Z" fill="black"/>
<path d="M66.1267 141.398C63.4667 141.398 60.8 141.412 58.14 141.398C56.3067 141.385 55.22 140.392 55.22 138.785C55.22 137.178 56.3133 136.165 58.1333 136.165C63.5 136.158 68.8667 136.158 74.2333 136.165C75.98 136.165 77.2067 137.265 77.2067 138.778C77.2067 140.292 75.9933 141.385 74.24 141.398C71.5333 141.418 68.8267 141.398 66.1267 141.398Z" fill="black"/>
</svg>
