<svg width="190" height="172" viewBox="0 0 190 172" fill="none" xmlns="http://www.w3.org/2000/svg">
<path d="M167.655 83.0606C163.838 82.3517 160.022 81.6428 156.199 80.9395C153.091 80.3664 149.988 79.7933 146.885 79.2146L137.681 77.5028C128.281 75.7519 118.889 74.0011 109.492 72.2837C108.894 72.1739 108.816 72.1013 108.707 71.4761C104.772 50.0264 101.261 31.0941 97.9711 13.6001C97.8226 12.8186 97.3865 12.1488 96.9708 11.505C96.8019 11.2389 96.6275 10.9654 96.4772 10.6919L96.2897 10.3477H93.7715L93.5766 10.6528C93.4412 10.8742 93.2778 11.0882 93.1164 11.3096C92.6951 11.8697 92.2535 12.4483 92.1161 13.1573C91.1623 18.0769 90.2604 23.0095 89.3566 27.944L86.534 43.2182C84.7878 52.6425 83.0415 62.0593 81.3286 71.4817C81.2191 72.0864 81.1338 72.172 80.5306 72.2818C59.2414 76.2059 40.3516 79.7263 22.8017 83.0458C22.0167 83.1946 21.3486 83.6319 20.6991 84.0487C20.4338 84.2236 20.1665 84.3929 19.8937 84.5436L19.5504 84.7315V87.2564L19.8622 87.4518C20.083 87.5951 20.3039 87.757 20.5247 87.9263C21.0833 88.3431 21.6548 88.7785 22.3675 88.9217C27.9422 90.0028 33.5317 91.0299 39.1194 92.0588L56.2295 95.235C64.3763 96.7514 72.5212 98.2679 80.6735 99.7638C81.1597 99.855 81.2117 99.8997 81.2971 100.376C82.4792 106.859 83.6854 113.339 84.8861 119.816L86.7679 129.968C87.7737 135.396 88.7665 140.831 89.7668 146.264L92.0716 158.836C92.5003 161.114 93.8754 161.627 94.9592 161.648H95.0297C96.5811 161.648 97.6129 160.684 97.9432 158.92C98.7152 154.743 99.4817 150.564 100.248 146.392L104.052 125.795C105.617 117.347 107.181 108.907 108.725 100.46C108.822 99.9127 108.887 99.8476 109.427 99.7508C114.567 98.813 119.708 97.8511 124.848 96.8947C127.969 96.3086 131.093 95.7225 134.214 95.1513L149.183 92.3789C155.368 91.2327 161.548 90.094 167.733 88.9422C170.142 88.4863 170.472 86.8787 170.453 85.9558C170.435 84.8692 169.934 83.4756 167.657 83.0606H167.655ZM102.546 74.4383C100.617 76.3064 98.7356 78.2192 96.8019 80.1841L95.0501 81.961L93.1814 80.0873C91.0918 78.0052 89.0523 75.9734 87.0611 73.9043C86.9571 73.8001 86.8606 73.2996 86.9386 72.8884C88.8927 62.1765 90.8784 51.4647 92.864 40.7528L95.0186 29.1106L97.4719 42.3548C99.335 52.4285 101.204 62.504 103.08 72.5776C103.236 73.4243 103.106 73.8987 102.547 74.4383H102.546ZM89.0838 84.0821L90.96 85.9372C90.8431 86.0861 90.7336 86.2163 90.6167 86.341L88.6236 88.3393C86.8718 90.0902 85.1181 91.8411 83.4052 93.6236C82.9246 94.1242 82.5423 94.2618 81.8093 94.1242C75.1879 92.8868 68.5684 91.6569 61.9471 90.427L38.249 86.0079L57.3188 82.4671C65.3542 80.9841 73.3841 79.4937 81.4121 77.9773C82.4309 77.7689 82.9895 77.9457 83.6316 78.6211C85.4094 80.4687 87.1947 82.2271 89.0838 84.0821ZM87.6623 97.4101C89.4606 95.6722 91.2068 93.8823 93.0496 92.0011C93.7121 91.3239 94.3876 90.6336 95.0816 89.9246L95.6718 90.5684C96.3992 91.3685 97.1063 92.1426 97.8393 92.9054C99.3833 94.487 100.974 96.1262 102.629 97.6687C103.115 98.1246 103.24 98.5414 103.102 99.2689C101.649 107.099 100.207 114.926 98.7598 122.756L97.2343 131.016C96.6702 134.08 96.0986 137.146 95.527 140.205L95.0148 142.926L91.14 121.911C89.7705 114.485 88.4009 107.054 86.998 99.628C86.8031 98.6326 86.972 98.0725 87.6605 97.4082L87.6623 97.4101ZM100.831 87.7532L99.079 86.0098L100.456 84.6236C102.688 82.3852 104.882 80.1729 107.129 78.0052C107.246 77.914 107.706 77.8229 108.155 77.914C119.411 79.9831 130.671 82.0801 141.927 84.1752L151.753 86.0172L128.658 90.2986C121.985 91.536 115.319 92.7715 108.653 94.0349C107.575 94.2432 107.049 94.087 106.42 93.4301C104.609 91.5099 102.772 89.6883 100.833 87.7551L100.831 87.7532Z" fill="black"/>
<path d="M112.346 59.991C113.242 60.218 114.378 59.9464 115.74 59.1258C120.862 56.0278 125.976 52.9298 131.091 49.8318L121.634 65.5619L121.485 65.7963C121.233 66.2056 120.966 66.6299 120.81 67.1174C120.35 68.5426 120.836 69.8191 122.114 70.528C122.575 70.7885 123.055 70.9187 123.523 70.9187C124.263 70.9187 124.976 70.6005 125.568 69.9809C125.88 69.6628 126.106 69.2776 126.314 68.9464L126.411 68.7845C131.46 60.4022 136.51 52.0199 141.554 43.6376C141.606 43.5465 141.67 43.4553 141.728 43.3641C141.962 43.0329 142.253 42.6217 142.24 42.1212V41.9519C142.22 41.0866 142.194 40.013 141.578 39.4195C140.884 38.7627 139.722 38.6715 138.781 38.6641H138.762C138.224 38.6641 137.762 38.9822 137.361 39.2632C137.252 39.3413 137.141 39.4195 137.031 39.4846L112.704 54.2118C110.471 55.5719 109.816 57.0884 110.757 58.709C111.147 59.3863 111.685 59.8161 112.348 59.991H112.346Z" fill="black"/>
<path d="M126.27 103.074C125.841 102.365 124.932 101.591 124.108 101.545C123.219 101.427 121.751 101.915 121.374 102.761C120.932 103.744 120.966 105.182 121.445 106.047C123.074 108.924 124.813 111.793 126.494 114.566C127.157 115.66 127.825 116.752 128.48 117.851C129.356 119.29 130.219 120.728 131.083 122.172L126.416 119.347C122.56 117.01 118.705 114.681 114.849 112.359C113.084 111.298 111.429 111.551 110.494 113.068C110.085 113.732 109.961 114.448 110.13 115.144C110.33 115.978 110.935 116.718 111.876 117.291C117.219 120.533 122.56 123.761 127.908 126.995L137.833 133.001C138.508 133.405 139.111 133.567 139.631 133.567C140.475 133.567 141.123 133.15 141.572 132.707C142.624 131.686 142.734 130.351 141.897 128.952C136.704 120.317 131.512 111.68 126.268 103.07L126.27 103.074Z" fill="black"/>
<path d="M74.8947 112.516C74.544 112.717 74.2006 112.933 73.8499 113.147L58.9407 122.173L59.5513 121.152C62.3609 116.498 65.1724 111.832 67.9764 107.173L68.1898 106.815C68.5406 106.255 68.8969 105.677 69.1511 105.038C69.5149 104.134 69.4369 103.165 68.9247 102.389C68.4125 101.613 67.5682 101.159 66.6143 101.138C66.5828 101.138 66.5568 101.133 66.5234 101.133C64.881 101.133 64.1276 102.383 63.6748 103.137C58.5789 111.603 53.4774 120.071 48.3833 128.531C47.9157 129.287 46.8393 131.056 48.4149 132.671C49.07 133.335 49.7399 133.557 50.369 133.557C51.3173 133.557 52.1598 133.043 52.6738 132.731C55.1012 131.235 57.5415 129.763 59.9818 128.293L67.5886 123.692C71.0162 121.615 74.4437 119.539 77.8639 117.456C79.6028 116.396 80.1484 114.749 79.2539 113.259C78.3835 111.802 76.6966 111.495 74.8984 112.516H74.8947Z" fill="black"/>
<path d="M48.4761 43.6366C53.4681 51.9351 58.4657 60.2393 63.4632 68.536L63.5931 68.75C63.7546 69.0235 63.9364 69.3417 64.1963 69.6152C64.8198 70.2794 65.5528 70.6181 66.3192 70.6181C66.7999 70.6181 67.2935 70.4878 67.7797 70.2218C69.0008 69.5445 69.474 68.3146 69.0453 66.9414C68.8765 66.3683 68.5647 65.8473 68.2919 65.3859L68.201 65.2296C65.1186 60.1016 62.0343 54.9662 58.9445 49.8382C62.2867 51.8551 65.6308 53.8795 68.9656 55.9039L74.6646 59.3592C75.0023 59.5601 75.3401 59.7629 75.6908 59.9379C77.1773 60.6468 78.5524 60.3286 79.4747 59.0131C80.371 57.7367 80.0203 56.0974 78.6248 55.0369C78.378 54.8415 78.1052 54.6796 77.7025 54.4377L52.8687 39.424C52.7722 39.3589 52.6683 39.2882 52.5699 39.2156C52.1876 38.9421 51.8165 38.6165 51.2264 38.6556C50.1871 38.6946 49.1164 38.7858 48.4613 39.4166C47.8322 40.0027 47.8118 41.0688 47.7932 41.9285V42.1238C47.7802 42.6188 48.0716 43.0356 48.2998 43.3668C48.3648 43.4579 48.4223 43.5417 48.4743 43.6328L48.4761 43.6366Z" fill="black"/>
</svg>
