<svg width="44" height="56" viewBox="0 0 44 56" fill="none" xmlns="http://www.w3.org/2000/svg">
<path d="M36.7333 55.1138H7.27001C3.50001 55.1138 0.43335 52.0471 0.43335 48.2771V7.72046C0.43335 3.95046 3.50001 0.883789 7.27001 0.883789H36.7333C40.5033 0.883789 43.57 3.95046 43.57 7.72046V48.2771C43.57 52.0471 40.5033 55.1138 36.7333 55.1138ZM7.26668 2.99379C4.66002 2.99379 2.54002 5.11379 2.54002 7.72046V48.2771C2.54002 50.8838 4.66002 53.0038 7.26668 53.0038H36.73C39.3367 53.0038 41.4567 50.8838 41.4567 48.2771V7.72046C41.4567 5.11379 39.3367 2.99379 36.73 2.99379H7.26668Z" fill="black"/>
<path d="M36.7333 55.4569H7.26999C3.31332 55.4569 0.0933228 52.2369 0.0933228 48.2802V7.72354C0.0933228 3.76687 3.31332 0.546875 7.26999 0.546875H36.7333C40.6933 0.546875 43.9133 3.76687 43.9133 7.72354V48.2802C43.9133 52.2369 40.6933 55.4569 36.7333 55.4569ZM7.26666 1.22688C3.68666 1.22688 0.773323 4.14021 0.773323 7.72021V48.2769C0.773323 51.8569 3.68666 54.7702 7.26666 54.7702H36.73C40.31 54.7702 43.2233 51.8569 43.2233 48.2769V7.72021C43.2233 4.14021 40.31 1.22688 36.73 1.22688H7.26666ZM36.7333 53.3469H7.26999C4.47332 53.3469 2.19999 51.0735 2.19999 48.2769V7.72021C2.19999 4.92354 4.47332 2.65021 7.26999 2.65021H36.7333C39.53 2.65021 41.8033 4.92354 41.8033 7.72021V48.2769C41.8033 51.0735 39.53 53.3469 36.7333 53.3469ZM7.26666 3.33688C4.84999 3.33688 2.88332 5.30354 2.88332 7.72021V48.2769C2.88332 50.6935 4.84999 52.6602 7.26666 52.6602H36.73C39.1467 52.6602 41.1133 50.6935 41.1133 48.2769V7.72021C41.1133 5.30354 39.1467 3.33688 36.73 3.33688H7.26666Z" fill="black"/>
<path d="M13.5834 37.9368C13.4234 37.9368 13.26 37.9002 13.1067 37.8235C12.5867 37.5602 12.38 36.9268 12.6434 36.4068L29.8667 2.44684C30.13 1.92684 30.7634 1.72017 31.2834 1.98351C31.8034 2.24684 32.01 2.88017 31.7467 3.40017L14.5234 37.3602C14.3367 37.7268 13.9667 37.9368 13.5834 37.9368Z" fill="black"/>
<path d="M13.5833 38.2771C13.3633 38.2771 13.15 38.2271 12.9533 38.1271C12.2667 37.7771 11.99 36.9338 12.34 36.2504L29.5633 2.29043C29.9133 1.60376 30.7567 1.3271 31.44 1.6771C32.1267 2.0271 32.4033 2.87043 32.0533 3.55376L14.83 37.5138C14.59 37.9871 14.1133 38.2771 13.5833 38.2771ZM30.81 2.21043C30.55 2.21043 30.3 2.35376 30.1733 2.60043L12.95 36.5604C12.7733 36.9104 12.9133 37.3404 13.2633 37.5171C13.6067 37.6904 14.0467 37.5438 14.22 37.2038L31.4433 3.24376C31.62 2.89376 31.48 2.46376 31.13 2.2871C31.0267 2.23376 30.9167 2.21043 30.81 2.21043Z" fill="black"/>
<path d="M15.47 54.1497C15.31 54.1497 15.1467 54.1131 14.9933 54.0364C14.4733 53.7731 14.2667 53.1397 14.53 52.6197L31.7533 18.6597C32.0167 18.1397 32.65 17.9331 33.17 18.1964C33.69 18.4597 33.8967 19.0931 33.6333 19.6131L16.41 53.5731C16.2233 53.9397 15.8534 54.1497 15.47 54.1497Z" fill="black"/>
<path d="M15.47 54.4929C15.25 54.4929 15.0367 54.4429 14.8367 54.3429C14.15 53.9929 13.8734 53.1529 14.2234 52.4662L31.4467 18.5062C31.7967 17.8196 32.64 17.5429 33.3267 17.8929C34.0134 18.2429 34.29 19.0829 33.94 19.7696L16.7167 53.7296C16.4767 54.2029 16 54.4929 15.47 54.4929ZM32.6967 18.4229C32.4367 18.4229 32.1867 18.5663 32.06 18.8129L14.8367 52.7729C14.66 53.1229 14.8 53.5529 15.15 53.7296C15.4967 53.9029 15.9334 53.7563 16.1067 53.4163L33.33 19.4563C33.5067 19.1063 33.3667 18.6763 33.0167 18.4996C32.9134 18.4463 32.8034 18.4229 32.6967 18.4229Z" fill="black"/>
</svg>
