<svg width="127" height="102" viewBox="0 0 127 102" fill="none" xmlns="http://www.w3.org/2000/svg">
<path d="M37.1708 62.025C51.5321 47.6105 74.8992 47.6108 89.2607 62.025C90.4801 63.2489 90.4801 65.2396 89.2607 66.4635C88.0403 67.6884 86.0543 67.6884 84.8339 66.4635C72.9134 54.499 53.5065 54.4992 41.5859 66.4635C40.9787 67.073 40.1804 67.3892 39.3788 67.3893C38.5772 67.3893 37.7782 67.0731 37.1708 66.4635C35.9519 65.2396 35.9516 63.2488 37.1708 62.025Z" fill="black" stroke="black"/>
<path d="M63.2159 25.8308C79.5426 25.8308 94.9213 32.1195 106.593 43.5398L107.146 44.0876L107.257 44.2039C108.364 45.4345 108.327 47.3404 107.146 48.5261C105.925 49.7507 103.939 49.7507 102.719 48.5261C92.1682 37.9365 78.1424 32.1072 63.2159 32.1072C48.2895 32.1072 34.2644 37.9366 23.7139 48.5261C23.1067 49.1356 22.3084 49.4508 21.5069 49.4509C20.7052 49.4509 19.9062 49.1357 19.2989 48.5261C18.0797 47.3023 18.0799 45.3116 19.2989 44.0876C31.0355 32.3076 46.6303 25.8309 63.2159 25.8308Z" fill="black" stroke="black"/>
<path d="M1.41406 26.1494C35.4871 -8.04979 90.9315 -8.04959 125.018 26.1494C126.237 27.3733 126.237 29.364 125.018 30.5879C124.41 31.1974 123.612 31.5127 122.811 31.5127H122.798C121.996 31.5127 121.198 31.1974 120.591 30.5879C88.9587 -1.16142 37.474 -1.16142 5.8418 30.5879C4.62138 31.8128 2.63446 31.8128 1.41406 30.5879C0.194985 29.364 0.195002 27.3733 1.41406 26.1494Z" fill="black" stroke="black"/>
<path d="M63.2165 75.5957C70.5579 75.5959 75.9108 80.8936 75.9108 88.1777C75.9107 95.4617 70.5578 100.759 63.2165 100.759C55.875 100.759 50.5213 95.4618 50.5212 88.1777C50.5212 80.8935 55.8749 75.5957 63.2165 75.5957ZM63.2165 81.8721C61.2516 81.8721 59.6488 82.516 58.5397 83.6035C57.4317 84.6902 56.778 86.2573 56.778 88.1777C56.7781 90.0981 57.4316 91.6653 58.5397 92.752C59.6488 93.8394 61.2517 94.4834 63.2165 94.4834C65.1811 94.4833 66.7833 93.8393 67.8923 92.752C69.0004 91.6653 69.6549 90.0981 69.655 88.1777C69.655 86.2573 69.0004 84.6902 67.8923 83.6035C66.7833 82.516 65.1811 81.8722 63.2165 81.8721Z" fill="black" stroke="black"/>
</svg>
