<svg width="73" height="115" viewBox="0 0 73 115" fill="none" xmlns="http://www.w3.org/2000/svg">
<path d="M32.8525 1.625C33.7446 1.22118 34.775 1.37095 35.5146 1.99805L70.7148 31.8428H70.7158C71.2961 32.3261 71.6147 33.0484 71.5996 33.7852C71.5843 34.5439 71.2157 35.2368 70.626 35.6855L41.4619 57.9404L70.6748 81.5576L70.6758 81.5586C71.2647 82.0367 71.5995 82.7429 71.5996 83.4932C71.5996 84.203 71.2901 84.8698 70.7646 85.333L70.6562 85.4229L35.4521 113.06C34.9971 113.42 34.4509 113.6 33.8945 113.6H33.8828C33.5259 113.6 33.1413 113.527 32.7793 113.34V113.339C31.9283 112.919 31.3838 112.068 31.3838 111.109V65.6191L5.4209 85.4375C4.32926 86.2773 2.75602 86.0687 1.9209 84.9873L1.92188 84.9863C1.12476 83.9677 1.26423 82.5307 2.18457 81.6748L2.37988 81.5117L32.3682 58.623L32.3711 58.6201C33.1194 58.0576 34.1214 57.9512 34.9775 58.3584C34.9459 58.1985 34.9297 58.0349 34.9297 57.8701C34.9297 57.6641 34.9564 57.4607 35.0078 57.2646C34.994 57.2714 34.9808 57.2796 34.9668 57.2861L34.9629 57.2881C34.0935 57.6884 33.0665 57.5732 32.3203 56.9707L2.33008 32.7363C1.25352 31.8664 1.09777 30.2983 1.98242 29.2422H1.9834C2.86219 28.1825 4.4331 28.0329 5.49316 28.9014H5.49219L31.3945 49.8369V3.87891C31.3947 2.91088 31.974 2.02918 32.8496 1.62598L32.8525 1.625ZM36.3672 60.2314C36.3847 60.3495 36.3945 60.4698 36.3945 60.5918V105.991L65.1094 83.4521L36.3672 60.2314ZM36.3945 55.0459C36.3945 55.2389 36.3701 55.4279 36.3271 55.6104L65.126 33.6348L36.3945 9.27441V55.0459Z" fill="black" stroke="black" stroke-width="1.2"/>
</svg>
