<svg width="75" height="100" viewBox="0 0 75 100" fill="none" xmlns="http://www.w3.org/2000/svg">
<path fill-rule="evenodd" clip-rule="evenodd" d="M27.1218 100C25.2311 100 23.687 98.47 23.687 96.5965C23.687 94.7231 25.2311 93.1931 27.1218 93.1931H34.1282V79.3401L32.458 79.2256C24.0546 78.6636 16.1345 75.104 10.1786 69.2027C3.70798 62.781 0 53.903 0 44.8376C0 42.9538 1.54412 41.4342 3.43487 41.4342C5.32563 41.4342 6.86975 42.9642 6.86975 44.8376C6.86975 52.2273 9.76891 59.159 15.042 64.3838C20.3046 69.5982 27.3109 72.4812 34.7689 72.4812H40.2101C47.6681 72.4812 54.6744 69.6086 59.937 64.3838C65.1996 59.1694 68.1092 52.2273 68.1092 44.8376C68.1092 42.9538 69.6534 41.4342 71.5546 41.4342C73.4559 41.4342 74.9895 42.9642 74.9895 44.8376C74.9895 53.9134 71.271 62.7914 64.8004 69.2027C58.876 75.0728 51.0084 78.6324 42.6576 79.2152L40.9979 79.3297V93.1931H48.0042C49.895 93.1931 51.4391 94.7231 51.4391 96.5965C51.4391 98.47 49.895 100 48.0042 100H27.1008H27.1218ZM37.5945 63.624C32.0378 63.624 26.6071 61.3967 22.6891 57.5041C18.708 53.5595 16.5126 48.3139 16.5126 42.7352V20.8784C16.5126 15.2997 18.708 10.0541 22.6786 6.10946C26.5966 2.21687 32.0378 -0.010437 37.584 -0.010437C43.1302 -0.010437 48.5084 2.16483 52.4895 6.10946C56.4706 10.0541 58.666 15.2997 58.666 20.8784V42.7352C58.666 48.3139 56.4706 53.5595 52.4895 57.5041C48.5084 61.4488 43.2143 63.624 37.584 63.624H37.5945ZM37.5945 6.81721C33.855 6.81721 30.1891 8.31596 27.5525 10.9388C24.8739 13.5928 23.3929 17.1211 23.3929 20.8888V42.7456C23.3929 46.5029 24.8739 50.0416 27.5525 52.6956C30.1891 55.308 33.855 56.8172 37.5945 56.8172C41.334 56.8172 45 55.3185 47.6365 52.6956C50.3151 50.0416 51.7962 46.5133 51.7962 42.7456V20.8888C51.7962 17.1211 50.3151 13.5824 47.6365 10.9388C45 8.32637 41.3445 6.81721 37.5945 6.81721Z" fill="black"/>
</svg>
