<svg width="116" height="67" viewBox="0 0 116 67" fill="none" xmlns="http://www.w3.org/2000/svg">
<g clip-path="url(#clip0_7_97)">
<path d="M44.24 66.22C42.52 66.22 41.72 65.53 41.26 65.01C40.46 64.1 40.06 62.56 40.06 60.43V34.32H8.51V60.43C8.51 62.56 8.09 64.09 7.27 64.98C6.47 65.83 5.49 66.23 4.18 66.23C2.46 66.23 1.66 65.54 1.2 65.02C0.4 64.11 0 62.57 0 60.44V5.75C0 3.64 0.41 2.07 1.18 1.19C1.63 0.68 2.43 0 4.18 0C5.52 0 6.51 0.39 7.29 1.23C8.3 2.31 8.51 4.29 8.51 5.75V28.41H40.05V5.75C40.05 3.63 40.46 2.1 41.26 1.21C42 0.38 42.95 0 44.24 0C45.53 0 46.57 0.39 47.35 1.23C48.36 2.31 48.57 4.29 48.57 5.75V60.43C48.57 62.56 48.15 64.09 47.33 64.98C46.53 65.83 45.55 66.23 44.24 66.23V66.22Z" fill="black"/>
<path d="M67.68 66.22C65.01 66.22 63.81 65.72 63.33 65.43C62.64 65.01 62.25 64.48 62.05 63.74C61.72 62.54 61.56 60.9 61.56 58.85V6.13002C61.56 3.83002 61.98 2.17002 62.78 1.35002C63.58 0.520017 65.18 0.0800171 67.4 0.0800171H85.72C90.23 0.0800171 94.12 0.510017 97.29 1.36002C100.26 2.16002 103 3.68002 105.44 5.89002C112.01 11.72 115.33 20.82 115.33 32.95C115.33 37.05 114.98 40.82 114.3 44.17C113.63 47.44 112.6 50.42 111.22 53.02C109.86 55.59 108.09 57.93 105.95 59.96C104.33 61.47 102.51 62.71 100.57 63.63C98.6 64.57 96.44 65.23 94.16 65.61C91.78 66.01 89.03 66.21 86.01 66.21H67.69L67.68 66.22ZM70.07 60.39H83.49C85.94 60.39 87.82 60.32 89.24 60.18C90.78 60.03 92.39 59.65 94.02 59.05C95.77 58.4 97.32 57.48 98.62 56.29C103.91 51.65 106.61 43.75 106.61 32.85C106.61 25.15 105.46 19.45 103.11 15.42C100.69 11.28 97.59 8.59002 93.91 7.42002C90.63 6.38002 86.66 5.85002 82.11 5.85002H70.06V60.39H70.07Z" fill="black"/>
</g>
<defs>
<clipPath id="clip0_7_97">
<rect width="115.33" height="66.22" fill="white"/>
</clipPath>
</defs>
</svg>
