<svg width="109" height="102" viewBox="0 0 109 102" fill="none" xmlns="http://www.w3.org/2000/svg">
<g clip-path="url(#clip0_109_249)">
<path d="M2.83155 66.1701C1.2683 66.1701 0 65.039 0 63.6448V37.8265C0 36.4324 1.2683 35.3013 2.83155 35.3013C4.3948 35.3013 5.6631 36.4324 5.6631 37.8265V63.6448C5.6631 65.039 4.3948 66.1701 2.83155 66.1701Z" fill="#F2CB13"/>
<path d="M106.167 66.1701C104.604 66.1701 103.336 65.039 103.336 63.6448V37.8265C103.336 36.4324 104.604 35.3013 106.167 35.3013C107.731 35.3013 108.999 36.4324 108.999 37.8265V63.6448C108.999 65.039 107.731 66.1701 106.167 66.1701Z" fill="#F2CB13"/>
<path d="M17.5933 83.1892C16.03 83.1892 14.7617 82.0581 14.7617 80.6639V20.8202C14.7617 19.426 16.03 18.2949 17.5933 18.2949C19.1565 18.2949 20.4248 19.426 20.4248 20.8202V80.6639C20.4248 82.0581 19.1565 83.1892 17.5933 83.1892Z" fill="#F2CB13"/>
<path d="M91.4058 79.0331C89.8425 79.0331 88.5742 77.902 88.5742 76.5078V24.9764C88.5742 23.5823 89.8425 22.4512 91.4058 22.4512C92.969 22.4512 94.2373 23.5823 94.2373 24.9764V76.4947C94.2373 77.8888 92.969 79.0199 91.4058 79.0199V79.0331Z" fill="#F2CB13"/>
<path d="M61.8804 79.0331C60.3171 79.0331 59.0488 77.902 59.0488 76.5078V24.9764C59.0488 23.5823 60.3171 22.4512 61.8804 22.4512C63.4436 22.4512 64.7119 23.5823 64.7119 24.9764V76.4947C64.7119 77.8888 63.4436 79.0199 61.8804 79.0199V79.0331Z" fill="#F2CB13"/>
<path d="M32.3569 101.484C30.7937 101.484 29.5254 100.353 29.5254 98.9592V2.52527C29.5254 1.13111 30.7937 0 32.3569 0C33.9202 0 35.1885 1.13111 35.1885 2.52527V98.946C35.1885 100.34 33.9202 101.471 32.3569 101.471V101.484Z" fill="#F2CB13"/>
<path d="M76.6441 96.8414C75.0808 96.8414 73.8125 95.7103 73.8125 94.3161V7.16785C73.8125 5.77369 75.0808 4.64258 76.6441 4.64258C78.2073 4.64258 79.4756 5.77369 79.4756 7.16785V94.3161C79.4756 95.7103 78.2073 96.8414 76.6441 96.8414Z" fill="#F2CB13"/>
<path d="M47.1187 96.8414C45.5554 96.8414 44.2871 95.7103 44.2871 94.3161V7.16785C44.2871 5.77369 45.5554 4.64258 47.1187 4.64258C48.6819 4.64258 49.9502 5.77369 49.9502 7.16785V94.3161C49.9502 95.7103 48.6819 96.8414 47.1187 96.8414Z" fill="#F2CB13"/>
</g>
<defs>
<clipPath id="clip0_109_249">
<rect width="109" height="101.484" fill="white"/>
</clipPath>
</defs>
</svg>
