<svg width="70" height="113" viewBox="0 0 70 113" fill="none" xmlns="http://www.w3.org/2000/svg">
<g clip-path="url(#clip0_109_125)">
<path d="M35.0241 0C15.7271 0 0 15.9943 0 35.6193V76.9298C0 96.5547 15.7271 112.549 35.0241 112.549C54.3212 112.549 70.0482 96.5547 70.0482 76.9298V35.6193C70 15.9943 54.3212 0 35.0241 0ZM65.224 76.9298C65.224 93.8563 51.6678 107.643 35.0241 107.643C18.3804 107.643 4.77602 93.9053 4.77602 76.9298V35.6193C4.77602 18.6437 18.3322 4.85717 35.0241 4.85717C51.7161 4.85717 65.224 18.6437 65.224 35.5702V76.8807V76.9298Z" fill="#F2CB13"/>
<path d="M36.6636 18.9869C36.5189 18.8397 36.3259 18.6925 36.1329 18.5944C36.0364 18.5454 35.9882 18.4472 35.8917 18.4472C35.7952 18.4472 35.6505 18.3982 35.554 18.3491C35.361 18.3 35.1681 18.251 34.9751 18.251C34.8786 18.251 34.7821 18.3 34.6374 18.3C34.4444 18.3 34.2515 18.3 34.1067 18.3982C33.9138 18.4472 33.769 18.5944 33.6243 18.6925C33.5278 18.7416 33.4313 18.7907 33.3349 18.8888C33.1901 19.036 33.0936 19.2322 32.9489 19.4285C32.9007 19.5266 32.8042 19.5757 32.8042 19.6738C32.7559 19.821 32.7559 19.9682 32.7077 20.0663C32.7077 20.2625 32.6112 20.4097 32.6112 20.606V49.4546L18.9586 34.2453C18.0902 33.2641 16.5464 33.1659 15.5816 34.0981C14.6167 34.9812 14.5203 36.5512 15.4369 37.5325L31.7429 55.6855L15.871 74.0349C15.0027 75.0652 15.0992 76.5861 16.064 77.4692C16.4982 77.8617 17.0771 78.058 17.656 78.058C18.3314 78.058 18.9586 77.7636 19.441 77.2239L32.6595 62.0146V90.8142C32.6595 90.8142 32.6595 90.8633 32.6595 90.9123C32.6595 91.1086 32.7077 91.2557 32.7559 91.4029C32.7559 91.5501 32.8042 91.6973 32.8524 91.8445C32.9007 91.9917 32.9972 92.0898 33.0936 92.1879C33.1901 92.3351 33.2866 92.4823 33.4313 92.6295C33.4313 92.6295 33.4313 92.6295 33.4796 92.6786C33.5761 92.7767 33.7208 92.8257 33.8655 92.9239C33.962 92.9729 34.0585 93.0711 34.155 93.1201C34.4444 93.2182 34.7339 93.3164 35.0233 93.3164C35.361 93.3164 35.6987 93.2182 35.9882 93.1201C36.0364 93.1201 36.0847 93.022 36.1812 92.9729C36.4224 92.8257 36.6154 92.7276 36.8083 92.5314C36.8083 92.5314 36.8083 92.5314 36.8566 92.4823L53.5967 72.9555L38.2074 55.7346L53.5967 37.3853L36.7601 19.036L36.6636 18.9869ZM47.084 72.9555L37.339 84.338V62.0146L47.084 72.9555ZM37.339 49.1112V26.7878L47.084 37.4344L37.339 49.0621V49.1112Z" fill="#F2CB13"/>
</g>
<defs>
<clipPath id="clip0_109_125">
<rect width="70" height="112.549" fill="white"/>
</clipPath>
</defs>
</svg>
