<svg width="115" height="120" viewBox="0 0 115 120" fill="none" xmlns="http://www.w3.org/2000/svg">
<g clip-path="url(#clip0_109_92)">
<path d="M23.8822 57.8763C23.9862 57.8903 24.0903 57.8903 24.1874 57.8903C25.3805 57.8903 26.2128 57.0945 26.4834 55.6704C26.6429 54.8537 26.7539 54.037 26.8787 53.1295L27.5377 48.3059C29.4244 34.547 31.3112 20.7952 33.1771 7.03639L33.6834 3.37854C33.7944 2.56879 33.517 1.74507 32.9343 1.17266C32.3794 0.628173 31.6372 0.383851 30.888 0.502522C30.2152 0.614212 29.3481 1.03305 29.0499 2.40823C28.925 2.98763 28.821 3.50419 28.7447 4.0417L26.7955 18.2822C25.9284 24.6206 25.0614 30.966 24.1943 37.3044C23.6394 41.3601 23.0706 45.4159 22.4949 49.4786L21.718 55.0561C21.6417 56.6966 22.4255 57.7227 23.8752 57.8763H23.8822Z" fill="#F2CB13"/>
<path d="M40.8066 60.5707L40.5292 60.8918C40.1754 61.2967 39.8008 61.7225 39.5442 62.2111C38.9268 63.3769 39.1349 64.4938 40.1199 65.2687C40.5847 65.6316 41.0841 65.8201 41.5766 65.8201C42.1315 65.8201 42.6864 65.5898 43.1928 65.136C43.498 64.8568 43.7685 64.5427 44.0182 64.2355L71.0012 32.3969C73.207 29.8001 75.4197 27.1963 77.6047 24.5786C78.3261 23.713 78.6175 22.9032 78.4649 22.1702C78.3123 21.4303 77.7088 20.7881 76.6614 20.2576C75.94 19.8946 75.0729 20.0761 74.5527 20.7043L71.4104 24.4948C62.9549 34.4073 54.3952 44.5222 46.12 54.3021L40.8066 60.5777V60.5707Z" fill="#F2CB13"/>
<path d="M85.1587 35.4755L86.1437 42.5958C86.7333 46.8749 87.3229 51.1471 87.9195 55.4262C88.1414 57.0178 88.9808 57.8834 90.3056 57.8834C90.3681 57.8834 90.4374 57.8834 90.5068 57.8834C91.8802 57.7996 92.7126 56.8851 92.7265 55.3913L92.6571 54.763C92.6155 54.3581 92.5739 53.9882 92.5253 53.6182L91.8247 48.5363C90.6039 39.6918 89.3831 30.8404 88.1484 21.996L87.6975 18.7639C86.9553 13.4237 86.1923 7.90904 85.3807 2.48509C85.2142 1.35423 84.798 0.600322 84.1391 0.24431C83.4732 -0.125663 82.5922 -0.0628376 81.5795 0.404865C81.198 0.502593 80.0465 1.27744 81.2604 7.01552C82.5437 16.5092 83.8547 25.9958 85.1657 35.4895L85.1587 35.4755Z" fill="#F2CB13"/>
<path d="M45.9266 44.1872C45.9821 44.1872 46.0375 44.1872 46.093 44.1872C46.8561 44.1244 47.6052 43.6218 48.3335 42.6864C49.8387 40.7527 51.337 38.8051 52.8353 36.8645L56.0955 32.6343C57.4273 30.9031 58.7591 29.1719 60.1048 27.4476C60.84 26.5122 60.9996 25.535 60.5903 24.5507C60.1464 23.4896 59.1336 23.2942 58.107 23.2383C57.3648 23.1825 56.7198 23.9224 56.1718 24.6345L54.7775 26.4494C51.3648 30.8891 47.959 35.3218 44.5254 39.7405C43.7693 40.7108 42.9439 42.1698 44.4768 43.5659C44.9277 43.9778 45.4133 44.1872 45.9335 44.1872H45.9266Z" fill="#F2CB13"/>
<path d="M36.8057 40.1175C36.9861 40.1454 37.1525 40.1594 37.319 40.1594C38.5052 40.1594 39.3237 39.3775 39.5872 37.9465C40.1838 34.7284 40.7942 31.5104 41.3977 28.2923L42.4798 22.5472C42.7295 21.2349 42.9792 19.9225 43.215 18.6032C43.6243 16.2856 42.4728 15.5666 41.4324 15.3712C40.6624 15.2246 40.0173 15.3363 39.5179 15.6992C38.963 16.1041 38.6161 16.8092 38.4913 17.7934C38.4289 18.303 38.3109 18.8196 38.1999 19.3222C38.1306 19.6433 38.0612 19.9574 37.9988 20.2785C37.1803 24.6973 36.3687 29.116 35.5433 33.5976L34.8357 37.4299V37.4648C34.7109 38.8819 35.46 39.9011 36.7988 40.1245L36.8057 40.1175Z" fill="#F2CB13"/>
<path d="M61.8118 48.0265H61.7979C60.806 48.0824 60.0985 48.5361 59.7586 49.3389C59.3285 50.358 59.495 51.3563 60.2441 52.2358C63.2476 55.761 66.2442 59.3002 69.2338 62.8324L70.8015 64.6823C71.4119 65.4013 72.057 65.7852 72.7229 65.8271C72.7645 65.8271 72.8061 65.8271 72.8547 65.8271C73.3957 65.8271 73.9229 65.5968 74.4293 65.143C75.5114 64.1587 75.5322 62.8254 74.4778 61.5759C72.6466 59.4049 70.8084 57.2409 68.9633 55.07C67.2777 53.0875 65.5991 51.105 63.9205 49.1155C63.5182 48.6408 62.8453 48.0265 61.8118 48.0195V48.0265Z" fill="#F2CB13"/>
<path d="M75.6706 29.6605C74.3318 29.9327 73.6035 30.9798 73.8185 32.341C74.1584 34.5399 74.6023 36.8854 75.1642 39.5032C75.407 40.6201 76.2185 41.2762 77.3215 41.2762C77.4463 41.2762 77.585 41.2693 77.7168 41.2483C78.9862 41.0808 79.7631 40.2082 79.8463 38.8609V38.8191L79.555 37.1716C79.2845 35.6359 79.014 34.1351 78.7434 32.6272C78.6602 32.1665 78.577 31.7477 78.4382 31.3358C77.9804 30.0025 76.9746 29.3952 75.6775 29.6535L75.6706 29.6605Z" fill="#F2CB13"/>
<path d="M70.904 47.7268C71.2508 47.7268 71.6185 47.643 71.993 47.4685C72.8324 47.0776 73.3665 46.3446 73.3873 45.5558C73.3873 44.2225 70.5572 39.8945 69.4612 39.5315C68.4624 39.2034 67.5884 39.3989 66.9363 40.09C66.104 40.9765 65.9514 41.9468 66.5132 42.8334C67.5468 44.4599 68.4277 45.7513 69.2878 46.8891C69.704 47.4406 70.2728 47.7268 70.911 47.7268H70.904Z" fill="#F2CB13"/>
<path d="M112.164 114.671C111.477 114.594 110.839 114.587 110.27 114.657C109.861 114.706 109.583 114.664 109.445 114.538C109.292 114.398 109.229 114.084 109.25 113.575C109.327 111.502 109.327 109.407 109.25 107.334C109.216 106.392 109.486 105.694 110.221 104.835C114.314 100.053 115.375 95.1948 113.468 89.9733C112.538 87.4323 110.554 86.0362 108.168 86.2526C107.162 86.3364 106.968 86.0153 106.705 85.1287C105.525 81.2056 104.235 77.0172 102.529 71.5444C102.355 70.9929 102.418 70.6928 102.785 70.2321C105.075 67.4049 105.262 64.0402 103.264 61.4504C101.266 58.8466 97.9785 58.1556 94.6837 59.6494C87.4212 62.9303 80.1586 66.2322 72.9031 69.534C69.6915 70.9929 68.1307 73.8341 68.7273 77.1289C69.31 80.2981 71.925 82.4342 75.4002 82.5668C76.0384 82.5878 76.3228 82.6506 76.6071 83.1183C78.2303 85.8547 79.8812 88.5841 81.5251 91.3066C82.4546 92.8423 83.3772 94.378 84.2997 95.9138L84.3622 96.0115C84.5633 96.3396 84.6396 96.4653 84.3899 96.7934C81.6014 100.479 81.6569 102.769 84.6257 105.861C86.2627 107.564 86.8523 109.324 86.6096 111.76C86.568 112.2 86.5333 112.674 86.6165 113.135C86.7206 113.728 86.6859 114.119 86.5055 114.336C86.2974 114.58 85.8466 114.713 84.9518 114.685C70.2603 114.643 55.326 114.65 40.8842 114.65H29.4459H29.0783C28.8355 114.65 28.5927 114.65 28.3499 114.65C28.1349 114.657 27.9754 114.622 27.9129 114.552C27.8783 114.51 27.8644 114.44 27.8783 114.336C27.9754 113.491 27.9129 112.618 27.8575 111.767C27.7118 109.673 27.58 107.697 29.6471 106.175C30.6598 105.428 31.187 104.158 31.6032 103.132C32.5604 100.8 32.1789 98.7549 30.5141 97.2192C29.8482 96.6049 29.8829 96.3117 30.3546 95.5438C32.8101 91.53 35.2448 87.4882 37.5824 83.5232C38.0194 82.7902 38.4287 82.5529 39.2819 82.5459C42.4241 82.518 45.06 80.347 45.6981 77.2546C46.3501 74.0854 44.8588 71.0697 41.9871 69.7504C33.9199 66.0437 26.5187 62.693 19.3672 59.5168C16.3082 58.1556 13.0827 58.9374 11.1474 61.5063C9.20522 64.0821 9.37169 67.4817 11.5775 70.1623C11.9798 70.6509 12.1394 70.9162 11.9729 71.4397C10.4191 76.375 8.90001 81.3313 7.61676 85.5406C7.44334 86.113 7.27687 86.2945 6.56935 86.2596C3.75313 86.1619 1.90108 87.4323 0.895293 90.2176C-0.769466 94.8458 -0.0550074 99.3692 2.89994 102.957C4.74505 105.205 5.43176 107.571 5.18205 110.866C5.18205 110.915 5.18205 110.957 5.18205 111.069C5.17511 111.453 5.20286 111.858 5.2306 112.248C5.28609 113.072 5.34852 113.931 5.02944 114.482C4.84216 114.817 4.34273 114.789 3.54503 114.699C3.09416 114.65 2.62942 114.601 2.20629 114.671C0.909166 114.88 0.173897 115.697 0.125342 116.96C0.083723 118.217 0.805119 119.117 2.06756 119.383C2.38664 119.445 2.71265 119.466 3.03173 119.466C3.19127 119.466 3.34388 119.466 3.49648 119.459C3.64215 119.459 3.79475 119.452 3.94041 119.452H46.6068H110.603C110.742 119.452 110.873 119.452 111.012 119.452C111.428 119.459 111.858 119.466 112.288 119.404C113.565 119.201 114.342 118.336 114.356 117.086C114.369 115.725 113.558 114.824 112.184 114.671H112.164ZM98.4571 67.4957C94.427 69.3176 90.4038 71.1395 86.3737 72.9615L76.3713 77.4919C75.0672 78.0853 74.1655 77.806 73.6245 76.6542C73.3678 76.1028 73.3123 75.6071 73.4649 75.1883C73.6383 74.7206 74.0614 74.3297 74.7343 74.0225L78.5563 72.2844C84.6465 69.52 90.9449 66.658 97.16 63.8936C97.4583 63.761 97.7565 63.6982 98.0479 63.6982C98.3877 63.6982 98.7138 63.7889 98.9912 63.9774C99.5392 64.3334 99.8513 64.9896 99.8513 65.7505C99.8167 66.5044 99.3519 67.0908 98.4641 67.4887L98.4571 67.4957ZM104.478 107.139C104.547 108.346 104.533 109.582 104.52 110.783C104.506 111.739 104.499 112.723 104.527 113.7C104.54 114.112 104.485 114.378 104.36 114.503C104.228 114.636 103.972 114.692 103.535 114.671C103.063 114.657 102.591 114.643 102.12 114.643C101.266 114.636 100.413 114.643 99.56 114.643C99.0051 114.643 98.4571 114.65 97.9022 114.65C97.3403 114.657 96.7924 114.65 96.2374 114.643C94.9403 114.629 93.5946 114.622 92.2698 114.671C91.5484 114.699 91.4235 114.559 91.3888 113.763V113.679C91.2986 111.418 91.2501 110.175 91.7287 109.68C92.2004 109.184 93.4143 109.184 95.627 109.184C95.9738 109.184 96.3207 109.184 96.6606 109.184C97.5138 109.184 98.3947 109.198 99.2617 109.163C100.781 109.107 101.655 108.235 101.655 106.762C101.655 105.282 100.76 104.388 99.2617 104.374C97.6525 104.36 96.0363 104.367 94.427 104.36C93.2617 104.36 92.0963 104.36 90.9241 104.36C89.4882 104.36 87.3795 102.538 87.1714 101.121C87.1021 100.675 87.2894 100.556 87.8304 100.326L88.0246 100.242C90.2929 99.2156 92.5611 98.1895 94.8293 97.1633C99.1577 95.2088 103.493 93.2542 107.808 91.2717C108.147 91.1181 108.383 91.0762 108.536 91.1321C108.688 91.1949 108.834 91.3903 108.987 91.7603C109.979 94.1337 109.75 96.542 108.265 99.3343C107.814 100.179 107.28 101.128 106.545 101.701C104.52 103.278 104.36 105.331 104.464 107.139H104.478ZM101.398 88.9471L101.253 89.01C99.6433 89.6871 98.7623 90.064 98.249 89.8686C97.7357 89.6661 97.3265 88.7866 96.5912 87.181C96.1126 86.1409 95.6548 85.0938 95.197 84.0467C94.753 83.0345 94.316 82.0293 93.8582 81.0241C93.2756 79.7536 92.2489 79.2301 90.9657 79.5652C89.7796 79.8723 89.2246 80.71 89.2663 82.1619C89.3634 82.9717 89.7518 83.7535 90.1333 84.5074C90.3137 84.8704 90.501 85.2334 90.6536 85.6104C91.4443 87.5091 92.3252 89.4637 93.3519 91.5998C93.6709 92.2559 93.6016 92.4514 92.9148 92.8004L92.8455 92.8353C91.0004 93.7777 89.9807 94.3013 89.3287 94.1198C88.6836 93.9383 88.1009 92.968 87.0396 91.1809C85.2223 88.1304 83.2801 84.8914 81.2962 81.6803C81.0881 81.3452 80.9008 81.0102 80.9563 80.8356C80.9841 80.7379 81.1297 80.5704 81.643 80.347C86.5541 78.2039 91.6593 75.8864 96.8201 73.4571C97.2016 73.2756 97.4929 73.1918 97.6941 73.1918C97.7704 73.1918 97.8259 73.2058 97.8814 73.2267C98.0756 73.3175 98.2421 73.6316 98.4155 74.2389C99.6433 78.5041 100.954 82.7832 102.321 86.9507C102.688 88.0676 102.494 88.4794 101.391 88.9471H101.398ZM16.5093 73.1709C16.6828 73.0871 17.0504 73.2407 17.314 73.3594C20.2828 74.7206 23.2586 76.0679 26.2412 77.4221C28.4887 78.4413 30.7361 79.4535 32.9766 80.4796C33.0598 80.5145 33.1569 80.5424 33.254 80.5774C33.5523 80.6611 33.5939 80.6751 33.5523 80.8985L33.4691 81.0451C33.3789 81.2056 33.2749 81.3871 33.1708 81.5686C32.5049 82.6715 31.839 83.7675 31.1731 84.8704C29.4528 87.7185 27.6702 90.6644 25.9569 93.5823C25.4921 94.3711 25.2355 94.4618 24.4031 94.1058L24.2921 94.0569C22.4609 93.2751 21.4551 92.8423 21.24 92.2699C21.0181 91.6835 21.4967 90.6434 22.3776 88.7307C23.1545 87.0484 23.9522 85.2614 24.7638 83.4115C25.0551 82.7483 25.4019 81.7641 25.069 80.9054C24.8678 80.3819 24.4378 79.977 23.7927 79.7048C23.3973 79.5303 23.0297 79.4465 22.6828 79.4465C21.7256 79.4465 20.9556 80.1027 20.3868 81.415C19.9013 82.5389 19.3949 83.6558 18.8886 84.7727C18.2088 86.2805 17.5013 87.8442 16.8562 89.4078C16.6758 89.8476 16.4955 90.0919 16.3013 90.1757C16.1001 90.2525 15.788 90.1967 15.2885 89.9803L15.1706 89.9244C12.8908 88.9239 12.1047 87.2229 12.8122 84.8216C13.3047 83.1392 13.8249 81.4639 14.3452 79.7885C14.9417 77.8479 15.566 75.8375 16.1348 73.848C16.2458 73.4641 16.3706 73.2407 16.5024 73.1779L16.5093 73.1709ZM27.1846 100.877C27.2609 101.128 27.143 101.484 26.8239 101.973C25.7488 103.641 24.6736 104.64 22.6204 104.416C21.2678 104.27 19.8874 104.305 18.5487 104.339C17.8412 104.353 17.1336 104.374 16.4261 104.367H16.3706C14.7405 104.367 13.7833 105.205 13.7417 106.664C13.7209 107.425 13.929 108.025 14.3521 108.465C14.8168 108.94 15.5036 109.184 16.3984 109.184H16.4192C17.0989 109.184 17.7787 109.184 18.4585 109.184C19.6932 109.184 20.9695 109.198 22.225 109.163C22.877 109.149 22.9811 109.247 23.0227 109.952V110.029C23.1476 112.346 23.2169 113.624 22.7314 114.133C22.2458 114.643 20.9834 114.643 18.6943 114.643H16.5163C16.0654 114.643 15.6145 114.643 15.1567 114.636H14.914C13.6515 114.622 12.3474 114.608 11.0642 114.671C10.544 114.699 10.2318 114.636 10.0792 114.482C9.92661 114.329 9.86418 114.015 9.87805 113.519C9.92661 112.151 9.91967 110.762 9.9058 109.414C9.89886 108.186 9.89193 106.915 9.92661 105.666C9.96129 104.367 9.5451 103.39 8.5185 102.392C5.48725 99.425 4.3566 96.3257 5.05719 92.9121C5.25141 91.9488 5.42482 91.3275 5.68841 91.1949C5.73697 91.167 5.80633 91.153 5.88263 91.153C6.18784 91.153 6.6942 91.3485 7.4156 91.6766C9.66996 92.6887 11.9243 93.7079 14.1717 94.7201C18.188 96.5351 22.2111 98.35 26.2412 100.137C26.7892 100.381 27.0944 100.626 27.1707 100.877H27.1846ZM14.7197 64.864C14.907 64.3823 15.24 64.0333 15.67 63.8587C15.8851 63.768 16.1278 63.7261 16.3914 63.7261C16.766 63.7261 17.1752 63.8169 17.5914 64.0053C22.9603 66.4067 28.3153 68.829 33.6702 71.2582L39.5246 73.9039C40.7247 74.4484 41.1894 75.1743 40.9813 76.2005C40.7871 77.1778 40.142 77.7013 39.0183 77.7921C38.9489 77.7711 38.8726 77.7502 38.7894 77.7223C38.5327 77.6455 38.2136 77.5547 37.9292 77.4291C30.6737 74.1482 23.425 70.8603 16.1764 67.5655C14.8168 66.9512 14.2897 65.9599 14.7267 64.857L14.7197 64.864Z" fill="#F2CB13"/>
</g>
<defs>
<clipPath id="clip0_109_92">
<rect width="114.383" height="119.466" fill="white"/>
</clipPath>
</defs>
</svg>
