<svg width="143" height="102" viewBox="0 0 143 102" fill="none" xmlns="http://www.w3.org/2000/svg">
<g clip-path="url(#clip0_109_60)">
<path d="M88.525 101.484C88.1089 101.484 87.6867 101.466 87.2645 101.423L46.823 97.4039C43.4575 97.067 40.4224 95.4435 38.2807 92.8275C36.139 90.2115 35.1416 86.9093 35.4781 83.5459L42.6253 11.4316C43.3168 4.47197 49.5277 -0.631354 56.4729 0.0609332L96.9144 4.07988C100.28 4.41683 103.315 6.04034 105.457 8.65633C107.598 11.2723 108.596 14.5745 108.259 17.9379L101.112 90.0522C100.464 96.583 94.9501 101.478 88.525 101.478V101.484ZM87.6806 97.2814C92.3434 97.7409 96.5228 94.3223 96.9817 89.6479L104.129 17.5335C104.355 15.2729 103.682 13.0551 102.244 11.2968C100.806 9.53853 98.7685 8.44803 96.5044 8.22135L56.063 4.20241C51.394 3.7368 47.2208 7.16148 46.7618 11.8359L39.6147 83.9503C39.3883 86.2109 40.0614 88.4287 41.4994 90.187C42.9374 91.9453 44.975 93.0358 47.2391 93.2624L87.6806 97.2814Z" fill="#F2CB13"/>
<path d="M74.4637 35.8274C74.0965 35.8274 73.7233 35.809 73.3561 35.7723C70.4251 35.4782 67.7877 34.063 65.9214 31.784C64.055 29.5049 63.1861 26.6316 63.4798 23.6971C63.7674 20.7625 65.1871 18.122 67.4634 16.2534C69.7397 14.3849 72.6096 13.5149 75.5407 13.809C78.4717 14.1031 81.1091 15.5183 82.9754 17.7973C84.8418 20.0763 85.7107 22.9496 85.417 25.8842C85.1294 28.8188 83.7097 31.4593 81.4334 33.3278C79.4447 34.9575 77.0031 35.8274 74.4698 35.8274H74.4637ZM74.4331 17.9137C72.8544 17.9137 71.3307 18.4528 70.0946 19.4698C68.675 20.6338 67.7938 22.2818 67.6102 24.1075C67.4267 25.9332 67.9713 27.7221 69.1339 29.1435C70.2966 30.5648 71.9426 31.447 73.7661 31.6247C75.5896 31.8085 77.3764 31.2632 78.7961 30.0992C80.2157 28.9352 81.0968 27.2872 81.2804 25.4615C81.464 23.6358 80.9194 21.8469 79.7568 20.4255C78.5941 19.0042 76.9481 18.122 75.1246 17.9443C74.892 17.9198 74.6656 17.9076 74.4331 17.9076V17.9137Z" fill="#F2CB13"/>
<path d="M70.2854 77.8549C69.9244 77.8549 69.5573 77.8365 69.1901 77.7998C66.259 77.5057 63.6217 76.0905 61.7553 73.8115C59.889 71.5324 59.0201 68.6591 59.3138 65.7246C59.6014 62.79 61.021 60.1495 63.2974 58.281C65.5737 56.4124 68.4436 55.5486 71.3746 55.8365C74.3057 56.1306 76.9431 57.5458 78.8094 59.8248C80.6757 62.1039 81.5447 64.9772 81.2509 67.9117C80.688 73.5971 75.8845 77.8611 70.2916 77.8611L70.2854 77.8549ZM70.2671 59.9412C68.6883 59.9412 67.1647 60.4803 65.9286 61.4973C64.509 62.6614 63.6278 64.3094 63.4442 66.135C63.2607 67.9607 63.8053 69.7496 64.9679 71.171C66.1305 72.5923 67.7766 73.4745 69.6001 73.6522C73.3695 74.0259 76.7411 71.2629 77.1144 67.489C77.298 65.6633 76.7534 63.8744 75.5907 62.4531C74.4281 61.0317 72.782 60.1495 70.9585 59.9719C70.726 59.9473 70.4996 59.9351 70.2671 59.9351V59.9412Z" fill="#F2CB13"/>
<path d="M70.296 89.5989C69.5495 89.5989 68.7907 89.5622 68.032 89.4887C61.9862 88.8883 56.5341 85.966 52.679 81.2609C48.8301 76.5558 47.0372 70.6315 47.6368 64.5724C48.8729 52.0745 60.0404 42.9216 72.5234 44.153C85.0065 45.3906 94.1546 56.5713 92.9185 69.0693C91.7559 80.8075 81.8368 89.5989 70.296 89.5989ZM70.2655 48.1965C60.8297 48.1965 52.7219 55.3828 51.7734 64.9768C51.2839 69.927 52.7463 74.773 55.8977 78.6143C59.0491 82.4617 63.5038 84.851 68.4481 85.3411C73.3923 85.8312 78.2326 84.367 82.0693 81.2119C85.906 78.0567 88.2986 73.5967 88.7881 68.6465C89.7978 58.4276 82.3202 49.2931 72.1196 48.2822C71.4954 48.221 70.8835 48.1904 70.2716 48.1904L70.2655 48.1965Z" fill="#F2CB13"/>
<path d="M35.0505 25.2228C34.5915 25.2228 34.1265 25.0696 33.741 24.7572L26.0798 18.5388L25.8656 20.6831C25.7922 21.4366 25.3088 22.0922 24.6112 22.3862C23.9136 22.6803 23.112 22.5762 22.5123 22.1044L7.08597 9.90668C6.18646 9.19602 6.03348 7.88496 6.7433 6.98437C7.45312 6.08379 8.76262 5.93062 9.66213 6.64129L22.1207 16.4926L22.341 14.2871C22.4206 13.5274 22.904 12.8719 23.6077 12.5778C24.3114 12.2837 25.1191 12.4001 25.7127 12.8841L36.36 21.5224C37.2534 22.2453 37.388 23.5564 36.6659 24.4447C36.256 24.9532 35.6563 25.2167 35.0505 25.2167V25.2228Z" fill="#F2CB13"/>
<path d="M35.0505 25.2228C34.5915 25.2228 34.1265 25.0696 33.741 24.7572L26.0798 18.5388L25.8656 20.6831C25.7922 21.4366 25.3088 22.0922 24.6112 22.3862C23.9136 22.6803 23.112 22.5762 22.5123 22.1044L7.08597 9.90668C6.18646 9.19602 6.03348 7.88496 6.7433 6.98437C7.45312 6.08379 8.76262 5.93062 9.66213 6.64129L22.1207 16.4926L22.341 14.2871C22.4206 13.5274 22.904 12.8719 23.6077 12.5778C24.3114 12.2837 25.1191 12.4001 25.7127 12.8841L36.36 21.5224C37.2534 22.2453 37.388 23.5564 36.6659 24.4447C36.256 24.9532 35.6563 25.2167 35.0505 25.2167V25.2228Z" fill="#F2CB13"/>
<path d="M3.81154 78.1368C2.91814 78.1368 2.09205 77.5548 1.82281 76.6542C1.49238 75.5515 2.11653 74.3936 3.21798 74.0627L18.4241 69.4924L16.7474 68.0466C16.1722 67.5503 15.9091 66.7723 16.0743 66.0249C16.2395 65.2774 16.7964 64.6832 17.5307 64.4749L30.7052 60.6949C31.8066 60.3763 32.957 61.0196 33.2752 62.1223C33.5934 63.2251 32.9509 64.3769 31.8495 64.6954L22.3709 67.4156L24.0047 68.8246C24.5799 69.3209 24.8369 70.0928 24.6778 70.8341C24.5187 71.5754 23.968 72.1758 23.246 72.3902L4.41121 78.0449C4.20928 78.1062 4.01347 78.1307 3.81154 78.1307V78.1368Z" fill="#F2CB13"/>
<path d="M113.572 32.4945C112.966 32.4945 112.366 32.231 111.956 31.7226C111.234 30.8281 111.369 29.5232 112.262 28.8002L122.91 20.162C123.503 19.678 124.311 19.5677 125.015 19.8556C125.718 20.1497 126.208 20.8052 126.281 21.5649L126.501 23.7704L138.96 13.9191C139.86 13.2085 141.169 13.3616 141.879 14.2622C142.589 15.1628 142.436 16.4677 141.536 17.1845L126.104 29.3884C125.51 29.8601 124.702 29.9704 124.005 29.6702C123.307 29.3761 122.824 28.7206 122.75 27.967L122.536 25.8228L114.875 32.0411C114.49 32.3536 114.031 32.5067 113.566 32.5067L113.572 32.4945Z" fill="#F2CB13"/>
<path d="M138.477 85.4085C138.281 85.4085 138.079 85.3779 137.877 85.3228L119.042 79.6681C118.314 79.4475 117.763 78.8533 117.61 78.112C117.451 77.3707 117.708 76.5987 118.283 76.1025L119.917 74.6934L110.439 71.9733C109.337 71.6547 108.701 70.509 109.013 69.4002C109.331 68.2974 110.475 67.6541 111.583 67.9727L124.757 71.7527C125.492 71.961 126.049 72.5614 126.214 73.3027C126.379 74.0501 126.122 74.8221 125.541 75.3244L123.864 76.7703L139.07 81.3406C140.172 81.6714 140.79 82.8293 140.465 83.9321C140.196 84.8327 139.37 85.4147 138.477 85.4147V85.4085Z" fill="#F2CB13"/>
<path d="M31.2812 39.736C31.0732 39.736 30.859 39.7053 30.6448 39.638L18.5411 35.7599C17.4458 35.4107 16.8461 34.2406 17.1949 33.1439C17.5437 32.0473 18.7125 31.4469 19.8078 31.7961L31.9115 35.6741C33.0068 36.0234 33.6065 37.1935 33.2577 38.2901C32.9762 39.1723 32.1562 39.736 31.2812 39.736Z" fill="#F2CB13"/>
<path d="M2.07369 58.1459C1.1497 58.1459 0.305256 57.521 0.0604903 56.5837C-0.220991 55.4687 0.445997 54.3353 1.55968 54.0535L29.3039 46.9468C30.4176 46.665 31.5496 47.3328 31.8311 48.4478C32.1126 49.5628 31.4456 50.6962 30.3319 50.978L2.5877 58.0847C2.41636 58.1275 2.23891 58.1521 2.07369 58.1521V58.1459Z" fill="#F2CB13"/>
<path d="M115.639 45.2683C114.648 45.2683 113.767 44.5515 113.595 43.5406C113.399 42.4072 114.158 41.3351 115.29 41.1391L139.895 36.8996C141.027 36.6974 142.098 37.4632 142.294 38.5966C142.49 39.73 141.731 40.8021 140.599 40.9982L115.994 45.2377C115.878 45.256 115.755 45.2683 115.639 45.2683Z" fill="#F2CB13"/>
<path d="M124.738 62.3487C124.512 62.3487 124.285 62.3119 124.059 62.2323L112.885 58.3542C111.802 57.9805 111.227 56.792 111.6 55.7076C111.973 54.6232 113.154 54.0473 114.244 54.421L125.417 58.2991C126.5 58.6728 127.075 59.8613 126.702 60.9457C126.402 61.8034 125.601 62.3425 124.738 62.3425V62.3487Z" fill="#F2CB13"/>
</g>
<defs>
<clipPath id="clip0_109_60">
<rect width="142.325" height="101.484" fill="white"/>
</clipPath>
</defs>
</svg>
