<svg width="46" height="70" viewBox="0 0 46 70" fill="none" xmlns="http://www.w3.org/2000/svg">
<path d="M13.332 60.7644C12.952 60.7644 12.572 60.6564 12.24 60.4364C11.44 59.9004 11.16 58.8964 11.56 57.9964C11.848 57.3044 15.212 47.2204 17.704 39.7084H11.84C10.972 39.7084 10.472 39.3284 10.208 39.0084C9.94398 38.6924 9.66398 38.1404 9.81998 37.3004C10.124 35.6564 14.576 22.9804 15.228 21.1324C15.48 20.0084 16.204 19.4404 17.384 19.4404H28.948C30.012 19.4404 30.532 19.9884 30.744 20.3124C30.96 20.6364 31.26 21.3284 30.844 22.3044C30.824 22.3484 30.804 22.3924 30.78 22.4324L25.596 31.7924C28.772 31.7924 34.196 31.7924 35.644 31.7924H35.648C36.96 31.7924 37.452 32.5844 37.628 33.0564C37.9 33.7884 37.736 34.5524 37.18 35.1524C36.82 35.5404 31.472 41.5084 26.304 47.2804C20.584 53.6644 15.184 59.6964 14.768 60.1444C14.388 60.5524 13.856 60.7644 13.324 60.7644H13.332ZM20.856 39.0124C20.072 41.3804 17.18 50.1044 15.436 55.2604C17.672 52.7684 20.992 49.0604 24.248 45.4244C28.26 40.9484 32.104 36.6524 33.984 34.5604C31.568 34.5604 27.632 34.5604 25.256 34.5604H23.292C22.832 34.5604 22.4 34.3324 22.144 33.9524C21.888 33.5724 21.836 33.0844 22.008 32.6604L22.052 32.5524C22.08 32.4804 22.104 32.4204 22.132 32.3604C22.152 32.3164 22.172 32.2724 22.196 32.2324L27.744 22.2124H17.8C16.112 27.0044 13.588 34.3084 12.796 36.9324H19.388C19.468 36.9324 19.544 36.9364 19.632 36.9404H19.712C20.164 36.9644 20.58 37.2044 20.82 37.5884C21.064 37.9724 21.104 38.4484 20.928 38.8684L20.868 39.0164L20.856 39.0124Z" fill="black"/>
<path d="M35.252 69.7084H10.748C5.30401 69.7084 0.872009 65.2804 0.872009 59.8324V18.6084C0.872009 13.1644 5.30401 8.73242 10.748 8.73242H35.252C40.696 8.73242 45.128 13.1604 45.128 18.6084V59.8324C45.128 65.2764 40.696 69.7084 35.252 69.7084ZM10.748 12.0604C7.14001 12.0604 4.20001 14.9964 4.20001 18.6084V59.8324C4.20001 63.4404 7.13601 66.3804 10.748 66.3804H35.252C38.86 66.3804 41.8 63.4444 41.8 59.8324V18.6084C41.8 15.0004 38.864 12.0604 35.252 12.0604H10.748Z" fill="black"/>
<path d="M35.228 10.4361C34.308 10.4361 33.564 9.69209 33.564 8.77209C33.564 7.56409 33.272 3.61609 29.52 3.61609H16.664C12.912 3.61609 12.62 7.56009 12.62 8.77209C12.62 9.69209 11.876 10.4361 10.956 10.4361C10.036 10.4361 9.29199 9.69209 9.29199 8.77209C9.29199 3.70009 12.256 0.288086 16.664 0.288086H29.52C33.928 0.288086 36.892 3.69609 36.892 8.77209C36.892 9.69209 36.148 10.4361 35.228 10.4361Z" fill="black"/>
</svg>
