<svg width="58" height="70" viewBox="0 0 58 70" fill="none" xmlns="http://www.w3.org/2000/svg">
<path d="M32.22 14.0535L39.58 20.3835L34.2067 25.0069C33.4567 25.6435 32.7067 26.2835 31.9833 26.9469C31.6467 27.2535 31.45 27.8235 31.52 28.2635C31.59 28.7635 32.1333 29.1935 32.5767 29.2635C33.01 29.3235 33.4867 29.0935 33.7767 28.8502C35.3267 27.5302 36.8767 26.2035 38.4167 24.8735L40.2767 23.2802V38.3402C40.2733 38.6935 40.2733 39.5169 41.11 39.8669C41.2967 39.9435 41.4733 39.9769 41.6333 39.9769C42.2033 39.9769 42.6067 39.5802 42.7834 39.4102C45.64 36.6302 48.4967 33.8569 51.36 31.0869L52.45 30.0302C52.8734 29.6202 52.95 29.2202 52.9433 28.9569C52.9367 28.6902 52.8333 28.2969 52.38 27.9069L47.64 23.8302L43.6367 20.3835L52.4134 12.8435C52.8367 12.4802 52.9333 12.0869 52.9433 11.8202C52.95 11.5502 52.8767 11.1502 52.4733 10.7535L50.78 9.11686C48.12 6.53686 45.4633 3.95353 42.8 1.37686C42.4933 1.07353 42.2134 0.903525 41.9234 0.840191C41.3767 0.720191 41.0034 0.896858 40.7934 1.06686C40.5534 1.26019 40.27 1.64352 40.27 2.39019V17.4935L35.0933 13.0369C34.6167 12.6235 34.1367 12.2102 33.6534 11.8069C33.3367 11.5435 32.9734 11.4202 32.61 11.4535C32.2734 11.4869 31.96 11.6569 31.7367 11.9369C31.26 12.5102 31.3234 13.2169 31.9067 13.7769C31.9934 13.8602 32.0834 13.9369 32.22 14.0569V14.0535ZM42.9667 17.4635V5.20353L49.66 11.7035L42.9667 17.4602V17.4635ZM42.9533 35.5569V23.2902L49.6467 29.0502L42.9533 35.5569Z" fill="black"/>
<path d="M57.13 56.3764C56.9933 55.073 56.01 54.203 54.9666 53.4497C51.2966 50.8164 47.82 48.7197 44.33 47.0297C41.4266 45.6264 40.3366 45.853 38.1766 48.333L35.6666 51.173C32.56 50.243 29.7066 48.663 26.9566 46.3597C23.0933 43.123 20.3533 39.0897 18.79 34.2864C19.69 33.523 20.57 32.7397 21.45 31.953L21.8533 31.593C24.0633 29.6264 24.3 28.5097 23.0533 25.883C21.4266 22.4497 19.3266 18.953 16.4433 14.8797C16.1433 14.4597 15.77 14.0564 15.3033 13.653C14.12 12.6197 12.8466 12.533 11.54 13.3964C11.09 13.693 10.65 14.0197 10.2566 14.3864C7.37331 17.0397 4.70331 20.1764 1.85331 24.253C0.943311 25.5564 0.663312 26.963 0.976645 28.673C1.67998 32.5464 3.10998 36.3597 5.33998 40.3264C9.00331 46.8497 13.9833 52.7964 20.1433 58.0064C24.92 62.043 29.61 64.9797 34.4866 66.9797C37.46 68.203 40.16 68.9064 42.9766 69.1997L43.9666 68.9997C44.27 68.883 44.7333 68.7064 45.1733 68.423C49.1066 65.873 52.6166 62.933 55.6 59.683C56.47 58.733 57.26 57.673 57.1266 56.373L57.13 56.3764ZM53.3033 57.5797C50.5 60.633 47.1933 63.403 43.48 65.8097C43.3366 65.903 43.13 65.9864 42.9333 66.0597C40.55 65.7764 38.2366 65.1464 35.6733 64.0997C31.1066 62.223 26.6833 59.453 22.1633 55.6264C16.2866 50.6597 11.5433 44.9964 8.05998 38.7997C6.00331 35.143 4.68998 31.6464 4.04664 28.1164C3.88664 27.233 3.98998 26.6497 4.41664 26.043C7.13331 22.1564 9.66331 19.183 12.3733 16.6797C12.6466 16.4297 12.9466 16.2097 13.2633 16.0097C13.5366 16.2464 13.75 16.4764 13.9 16.6864C16.6733 20.6064 18.69 23.9564 20.2366 27.223C20.6066 28.0064 20.6866 28.2897 20.7066 28.3197C20.6433 28.4564 20.3333 28.773 19.7833 29.263L19.3733 29.6264C18.4433 30.4564 17.51 31.2897 16.5566 32.093C15.93 32.6197 15.28 33.5597 15.7533 35.0464C17.46 40.4564 20.5533 45.0664 24.9533 48.7497C28.12 51.4064 31.5766 53.2697 35.2266 54.293C36.47 54.6364 37.2433 54.093 37.7 53.5797L40.5333 50.3797C40.75 50.1297 41.4033 49.3764 41.5833 49.2897C41.7533 49.2897 42.2166 49.473 42.97 49.8397C46.2933 51.4497 49.6233 53.4597 53.1466 55.983C53.75 56.4164 53.9566 56.6497 54.0133 56.6497C53.9666 56.7564 53.8133 57.023 53.3033 57.5764V57.5797Z" fill="black"/>
</svg>
