<svg width="200" height="200" viewBox="0 0 200 200" fill="none" xmlns="http://www.w3.org/2000/svg">
<g id="Prancheta 4 2">
<path id="Vector" d="M36.82 93.6C37.1733 91.0734 37.3933 88.5134 37.8933 86.02C42.56 62.8667 55.6733 46.4334 77.2467 36.78C78.5133 36.2133 79.7533 36.1667 80.8 37.1934C81.86 38.2267 81.82 39.46 81.24 40.74C78.7733 46.2067 77.08 51.9 76.3133 57.86C74.6267 70.94 76.7933 83.3534 83.24 94.86C92.7733 111.893 107.36 122.02 126.54 125.36C137.027 127.187 147.327 125.993 157.3 122.233C157.793 122.047 158.293 121.86 158.787 121.667C160.053 121.18 161.253 121.24 162.2 122.28C163.147 123.32 163.087 124.52 162.5 125.74C160.253 130.467 157.527 134.907 154.213 138.96C144 151.44 130.993 159.413 115.14 162.373C96.1067 165.927 78.66 161.807 63.1467 150.26C49.56 140.147 41.3533 126.493 38 109.927C37.5267 107.593 37.36 105.2 37.0467 102.84C36.9867 102.407 36.8933 101.98 36.8133 101.553C36.8133 98.9 36.8133 96.2467 36.8133 93.5934L36.82 93.6ZM73.26 45.12C52.1467 56.74 38.2533 82.08 43.7467 109.627C48.8467 135.22 70.48 155.533 98 157.747C123.487 159.8 144.707 145.36 153.8 129.507C128.74 135.287 106.487 130.033 88.54 111.3C70.5467 92.5134 66.32 70.0134 73.26 45.12Z" fill="black"/>
<path id="Vector_2" d="M95.32 75.4467V70.8533L107.26 53.8667H96V48.7067H114.76V53.38L102.933 70.2933H115.173V75.4533H95.32V75.4467Z" fill="black"/>
<path id="Vector_3" d="M121.64 100V95.76L129.72 84.6867H122.147V79.94H136.753V84.2333L128.787 95.2533H137.147V100H121.64Z" fill="black"/>
<path id="Vector_4" d="M143.327 75.4467V70.8533L155.267 53.8667H144.007V48.7067H162.767V53.38L150.94 70.2933H163.18V75.4533H143.327V75.4467Z" fill="black"/>
</g>
</svg>
