<svg width="89" height="85" viewBox="0 0 89 85" fill="none" xmlns="http://www.w3.org/2000/svg">
<g id="Group">
<g id="Group_2">
<path id="Vector" d="M83.7917 29.7686C80.2713 27.6803 75.9157 28.1576 72.9323 31.0216C71.1423 32.752 70.2473 34.9 70.1877 37.3463C70.1877 38.48 70.9037 39.3153 72.0373 39.4346C73.1113 39.4943 73.887 38.838 74.1257 37.764C74.1853 37.5253 74.1853 37.3463 74.1853 37.1076C74.1853 36.9883 74.1853 36.869 74.245 36.69C74.424 35.437 75.0803 34.2436 76.1543 33.468C77.288 32.6326 78.6603 32.2746 79.973 32.5133C81.2857 32.6923 82.479 33.468 83.2547 34.6016C84.0303 35.6756 84.3287 36.9883 84.1497 38.2413C83.6723 40.9263 81.7033 42.5373 78.8393 42.5373C53.481 42.5373 28.063 42.5373 2.70465 42.5373C1.80965 42.5373 0.854989 42.6566 0.138989 43.671L0.0196533 43.85V45.282L0.138989 45.4013C0.795323 46.4156 1.74999 46.5946 2.46599 46.5946C2.52565 46.5946 2.52566 46.5946 2.58532 46.5946C4.13666 46.535 5.68799 46.5946 7.17965 46.5946C7.77632 46.5946 8.43265 46.5946 9.02932 46.5946H27.0487C44.4713 46.5946 61.8343 46.5946 79.257 46.5946C83.3143 46.5946 86.8943 43.9096 87.9683 40.0313C88.923 35.974 87.2523 31.9166 83.7917 29.7686Z" fill="black"/>
<path id="Vector_2" d="M45.4856 55.0078C42.025 55.0078 38.624 55.0078 35.1633 55.0078C33.6716 55.0078 32.1203 55.0078 30.6286 55.0078H28.242C24.0653 55.0078 19.829 55.0078 15.6523 55.0078H15.5926C15.2346 55.0078 14.8766 55.0078 14.459 55.1272C13.5043 55.3658 12.9076 56.1415 12.9673 57.1558C13.027 58.2298 13.743 58.8861 14.817 58.9458C15.0556 58.9458 15.2943 58.9458 15.533 58.9458H15.7716H44.9486H45.1276C45.426 58.9458 45.7243 58.9458 46.0226 58.9458C48.7076 59.1248 50.7363 61.2132 50.8556 63.7788C50.9153 66.4638 49.0656 68.6715 46.4403 68.9698C43.815 69.3278 41.488 67.6571 40.8913 65.0318C40.8316 64.8528 40.8316 64.6142 40.8316 64.3755C40.8316 64.1368 40.772 63.8385 40.7123 63.5998C40.4736 62.5258 39.519 61.8695 38.5046 62.0485C37.4306 62.2275 36.834 62.9435 36.834 64.0175C36.834 64.7931 36.8936 65.4495 37.0726 65.9865C37.9676 70.1035 41.7863 72.9675 45.9033 72.9675C46.5 72.9675 47.037 72.9078 47.6336 72.7885C52.407 71.8338 55.629 67.1202 54.734 62.4065C53.7196 57.9912 50.08 55.0078 45.4856 55.0078Z" fill="black"/>
<path id="Vector_3" d="M14.7573 34.0651C14.8767 34.0651 15.0557 34.0651 15.175 34.0651C15.2347 34.0651 15.354 34.0651 15.4137 34.0651H15.5927H34.3877C38.0273 34.0651 41.7267 34.0651 45.3663 34.0651C45.8437 34.0651 46.4403 34.0651 47.037 33.9458C51.87 33.1104 55.271 28.7548 54.6743 24.0411C54.0777 19.1484 49.8413 15.6877 44.8293 16.1054C40.414 16.4634 36.655 20.5804 36.7147 24.9958C36.7147 26.0101 37.2517 26.7261 38.087 26.9051C38.7433 27.0244 39.519 26.8454 40.056 26.4278C40.414 26.1294 40.6527 25.5924 40.7123 24.7571C40.8913 22.5494 42.3233 20.7594 44.4117 20.2224C46.5 19.6258 48.7077 20.4611 49.901 22.2511C51.0347 23.9218 51.154 25.6521 50.259 27.3824C49.3043 29.2321 47.8127 30.1271 45.784 30.1271C38.7433 30.1271 31.7623 30.1271 24.7217 30.1271H15.712H15.4733C15.175 30.1271 14.8767 30.1271 14.5187 30.1868C13.4447 30.4254 12.848 31.2011 12.9673 32.2154C13.027 33.2297 13.6833 33.9458 14.7573 34.0651Z" fill="black"/>
</g>
<path id="Vector_4" d="M26.0343 14.6738C27.2873 14.6738 28.3613 15.7478 28.3613 17.0008C28.3613 18.2538 27.2873 19.3278 26.0343 19.3278C24.7813 19.3278 23.767 18.2538 23.767 17.0008C23.7073 15.6882 24.7216 14.6738 26.0343 14.6738Z" fill="black"/>
<path id="Vector_5" d="M66.19 65.9872C66.19 64.7342 67.2043 63.6602 68.517 63.6602C69.77 63.6602 70.844 64.7342 70.844 65.9275C70.844 67.1805 69.77 68.2545 68.517 68.2545C67.264 68.3142 66.19 67.2402 66.19 65.9872Z" fill="black"/>
<path id="Vector_6" d="M36.7147 0.353516C37.9677 0.353516 39.0417 1.36785 39.0417 2.62085C39.0417 3.87385 38.0273 4.94785 36.7743 4.94785C35.5213 4.94785 34.4473 3.93351 34.4473 2.68051C34.3877 1.42751 35.4617 0.353516 36.7147 0.353516Z" fill="black"/>
<path id="Vector_7" d="M88.9826 59.3643C88.923 60.6173 87.849 61.6316 86.596 61.572C85.343 61.5123 84.3286 60.4383 84.3286 59.1853C84.3883 57.9323 85.4623 56.918 86.7153 56.918C88.028 57.0373 89.0423 58.1113 88.9826 59.3643Z" fill="black"/>
<path id="Vector_8" d="M68.4573 55.3065C68.4573 56.5595 67.3833 57.6335 66.1303 57.5738C64.8773 57.5738 63.863 56.4998 63.863 55.2468C63.863 53.9938 64.8773 52.9795 66.19 52.9795C67.5026 52.9795 68.517 54.0535 68.4573 55.3065Z" fill="black"/>
<path id="Vector_9" d="M32.896 75.4146C32.8363 76.6676 31.7623 77.6819 30.5093 77.6222C29.2563 77.5626 28.3016 76.4886 28.3016 75.2356C28.3613 73.9826 29.3756 72.9682 30.6883 73.0279C32.001 73.0279 32.9556 74.1019 32.896 75.4146Z" fill="black"/>
<path id="Vector_10" d="M68.4573 80.9032C68.4573 82.2158 67.443 83.1705 66.19 83.1705C64.937 83.1705 63.9227 82.1562 63.9227 80.9032C63.9227 79.6502 64.937 78.5762 66.19 78.5762C67.443 78.5762 68.4573 79.6502 68.4573 80.9032Z" fill="black"/>
<path id="Vector_11" d="M57.061 4.88843C57.061 6.2011 56.1063 7.21543 54.7937 7.21543C53.5407 7.21543 52.4667 6.26076 52.4667 4.94809C52.4667 3.69509 53.481 2.62109 54.734 2.62109C55.987 2.62109 57.061 3.63543 57.061 4.88843Z" fill="black"/>
<path id="Vector_12" d="M79.1377 10.9746C80.4503 10.9746 81.405 11.9889 81.405 13.3016C81.405 14.6143 80.3907 15.5689 79.078 15.5689C77.825 15.5689 76.8107 14.4949 76.8107 13.2419C76.8107 11.9293 77.825 10.9746 79.1377 10.9746Z" fill="black"/>
<path id="Vector_13" d="M83.732 71.9539C83.732 73.2069 82.7177 74.2809 81.4647 74.2809C80.152 74.2809 79.1377 73.3262 79.1377 72.0135C79.1377 70.7009 80.0923 69.7462 81.405 69.6865C82.658 69.6865 83.6723 70.6412 83.732 71.9539Z" fill="black"/>
<path id="Vector_14" d="M49.6026 81.7987C49.6026 83.0517 48.5883 84.066 47.2756 84.066C46.0226 84.066 45.0083 82.992 45.0083 81.739C45.0083 80.486 46.0823 79.4717 47.3353 79.4717C48.648 79.5313 49.6623 80.5457 49.6026 81.7987Z" fill="black"/>
<path id="Vector_15" d="M66.2497 23.8619C64.937 23.8619 63.9227 22.9072 63.9227 21.5946C63.9227 20.2819 64.8773 19.2676 66.19 19.2676C67.5027 19.2676 68.517 20.2222 68.517 21.5349C68.517 22.8476 67.5027 23.8619 66.2497 23.8619Z" fill="black"/>
</g>
</svg>
