<svg width="122" height="83" viewBox="0 0 122 83" fill="none" xmlns="http://www.w3.org/2000/svg">
<g clip-path="url(#clip0_56_748)">
<path d="M60.3316 60.263C53.3992 60.263 47.7632 54.6155 47.7632 47.6689C47.7632 40.7223 53.3992 35.0747 60.3316 35.0747C67.264 35.0747 72.9 40.7223 72.9 47.6689C72.9 54.6155 67.264 60.263 60.3316 60.263ZM60.3316 39.9018C56.0603 39.9018 52.5804 43.3888 52.5804 47.6689C52.5804 51.949 56.0603 55.436 60.3316 55.436C64.603 55.436 68.0828 51.949 68.0828 47.6689C68.0828 43.3888 64.603 39.9018 60.3316 39.9018Z" fill="#FECB13"/>
<path d="M38.0331 63.4357C37.2143 63.4357 36.4092 63.0118 35.9588 62.2597C33.3387 57.8702 31.9468 52.8243 31.9468 47.6827C31.9468 40.9823 34.3213 34.4595 38.6336 29.3453C39.4933 28.3334 41.008 28.1967 42.0315 29.0581C43.055 29.9196 43.1778 31.4375 42.3181 32.4631C38.7427 36.7158 36.7776 42.1172 36.7776 47.6827C36.7776 51.9492 37.9239 56.1472 40.1074 59.7846C40.7897 60.9333 40.4212 62.4101 39.2749 63.0938C38.8928 63.3263 38.4562 63.4357 38.0468 63.4357H38.0331Z" fill="#FECB13"/>
<path d="M25.5877 73.5683C24.8098 73.5683 24.0593 73.1991 23.5953 72.5017C18.6416 65.1586 16.0215 56.571 16.0215 47.669C16.0215 35.1705 21.3163 23.178 30.5686 14.7819C31.5512 13.8794 33.0796 13.9615 33.9666 14.946C34.8673 15.9306 34.7854 17.4621 33.8029 18.351C25.5604 25.8446 20.8387 36.5243 20.8387 47.669C20.8387 55.6001 23.1722 63.2578 27.5801 69.7942C28.3306 70.9018 28.0304 72.406 26.9387 73.1444C26.5293 73.4179 26.0517 73.5547 25.5877 73.5547V73.5683Z" fill="#FECB13"/>
<path d="M13.1147 82.3886C12.3505 82.3886 11.5863 82.0194 11.1223 81.3356C4.35368 71.3943 0.764648 59.7574 0.764648 47.6692C0.764648 29.0993 9.17089 11.9105 23.8136 0.506019C24.8644 -0.314447 26.3791 -0.123005 27.1979 0.929927C28.0167 1.98286 27.8257 3.50072 26.7749 4.32119C13.3058 14.8095 5.58186 30.6035 5.58186 47.6692C5.58186 58.7728 8.87067 69.4662 15.1071 78.6007C15.8577 79.6947 15.5711 81.1989 14.4794 81.951C14.07 82.2381 13.5924 82.3749 13.1284 82.3749L13.1147 82.3886Z" fill="#FECB13"/>
<path d="M83.9675 63.4357C83.5445 63.4357 83.1214 63.3263 82.7393 63.0938C81.593 62.4101 81.2246 60.9333 81.9069 59.7846C84.0903 56.1335 85.2366 51.9492 85.2366 47.6827C85.2366 42.1172 83.2715 36.7158 79.6961 32.4631C78.8364 31.4375 78.9729 29.9196 79.9827 29.0581C80.9926 28.1967 82.521 28.3334 83.3807 29.3453C87.693 34.4595 90.0675 40.9686 90.0675 47.6827C90.0675 52.8243 88.6755 57.8702 86.0554 62.2597C85.6051 63.0118 84.7999 63.4357 83.9811 63.4357H83.9675Z" fill="#FECB13"/>
<path d="M96.4267 73.5683C95.9627 73.5683 95.4987 73.4316 95.0757 73.1581C93.9703 72.406 93.6837 70.9155 94.4343 69.8079C98.8421 63.2578 101.176 55.6138 101.176 47.6826C101.176 36.538 96.454 25.8582 88.2115 18.3646C87.229 17.4621 87.1471 15.9443 88.0477 14.9597C88.9348 13.9751 90.4632 13.8931 91.4457 14.7956C100.684 23.2054 105.993 35.1979 105.993 47.6826C105.993 56.5847 103.373 65.1722 98.4191 72.5154C97.9551 73.1991 97.1909 73.582 96.4267 73.582V73.5683Z" fill="#FECB13"/>
<path d="M108.886 82.3886C108.422 82.3886 107.944 82.2518 107.535 81.9647C106.443 81.2126 106.157 79.7084 106.907 78.6144C113.144 69.4799 116.433 58.7865 116.433 47.6828C116.433 30.6171 108.709 14.8095 95.2395 4.32119C94.1888 3.50072 93.9977 1.98286 94.8165 0.929927C95.6353 -0.123005 97.1501 -0.314447 98.2008 0.506019C112.857 11.9105 121.25 29.0993 121.25 47.6692C121.25 59.7437 117.661 71.3943 110.878 81.322C110.414 82.0057 109.65 82.3749 108.886 82.3749V82.3886Z" fill="#FECB13"/>
</g>
<defs>
<clipPath id="clip0_56_748">
<rect width="120.471" height="82.3885" fill="white" transform="translate(0.764648)"/>
</clipPath>
</defs>
</svg>
