<svg width="112" height="112" viewBox="0 0 112 112" fill="none" xmlns="http://www.w3.org/2000/svg">
<g clip-path="url(#clip0_51_673)">
<path d="M25.3936 72.6293C25.3936 74.5109 26.9214 76.0387 28.8029 76.0387H44.3927L77.963 92.067V70.3093C83.268 67.4092 86.6208 61.8495 86.6208 55.7098C86.6208 49.5701 83.2822 43.9963 77.963 41.1103V19.9326L44.3927 35.9609H28.8029C26.9214 35.9609 25.3936 37.4888 25.3936 39.3703V72.6293ZM80.9479 55.7098C80.9479 58.5816 79.8303 61.2412 77.9488 63.2359V48.1554C79.8303 50.1501 80.9479 52.8239 80.9479 55.7098ZM72.2901 83.098L47.8586 71.4269V40.5586L72.2901 28.8875V83.0838V83.098ZM31.0523 41.6196H42.1999V70.3942H31.0523V41.6196Z" fill="#FECB13"/>
<path d="M56.0071 0C54.4509 0 53.1777 1.27321 53.1777 2.82935C53.1777 4.3855 54.4509 5.65871 56.0071 5.65871C83.763 5.65871 106.355 28.237 106.355 56.0071C106.355 83.7772 83.7772 106.355 56.0071 106.355C28.237 106.355 5.65871 83.763 5.65871 56.0071C5.65871 42.7657 10.8789 30.1326 20.0884 20.7533V27.1901C20.0884 28.7462 21.3616 30.0195 22.9178 30.0195C24.4739 30.0195 25.7471 28.7462 25.7471 27.1901V11.6004H10.1574C8.60124 11.6004 7.32803 12.8736 7.32803 14.4297C7.32803 15.9859 8.60124 17.2591 10.1574 17.2591H15.5897C5.63042 27.6428 0 41.4925 0 56.0071C0 86.8895 25.1247 112.014 56.0071 112.014C86.8895 112.014 112.014 86.8895 112.014 56.0071C112.014 25.1247 86.8753 0 56.0071 0Z" fill="#FECB13"/>
</g>
<defs>
<clipPath id="clip0_51_673">
<rect width="112" height="112" fill="white"/>
</clipPath>
</defs>
</svg>
