<svg width="129" height="133" viewBox="0 0 129 133" fill="none" xmlns="http://www.w3.org/2000/svg">
<g clip-path="url(#clip0_6_63)">
<path d="M64.2608 0H64.2306C28.8222 0 0.0151119 29.5974 5.94139e-06 65.9964C-0.0151 102.395 28.7769 132.039 64.2004 132.055H64.2306C81.3758 132.055 97.4939 125.191 109.624 112.737C121.769 100.268 128.446 83.6989 128.461 66.0585C128.476 29.6596 99.6692 0.0155286 64.2608 0ZM106.527 109.554C95.228 121.169 80.1976 127.552 64.2306 127.552H64.2004C31.1938 127.536 4.36563 99.9263 4.38074 65.9964C4.39584 32.082 31.2391 4.48775 64.2306 4.48775H64.2608C97.2673 4.50328 124.111 32.1131 124.096 66.043C124.096 82.4722 117.857 97.9231 106.542 109.538L106.527 109.554Z" fill="white"/>
<path d="M84.7747 58.3098C87.4182 58.3098 89.9107 57.2538 91.814 55.3283C93.6721 53.3872 94.6993 50.825 94.6993 48.123C94.6993 42.4862 90.243 37.9208 84.7747 37.9208H43.6713C41.0127 37.9208 38.5202 38.9922 36.6319 40.9333C34.7739 42.8744 33.7467 45.4366 33.7467 48.1386C33.7467 53.7599 38.203 58.3253 43.6713 58.3253H49.608V84.4754L45.5596 79.1336C44.4568 77.6739 42.7952 76.7732 40.9976 76.649C39.2 76.5248 37.4326 77.1925 36.1486 78.4814C34.1697 80.469 33.6712 83.5126 34.9099 86.0593L42.9765 102.535C45.8768 108.467 51.6775 112.147 58.1277 112.147H73.128C82.4937 112.147 90.1071 104.321 90.1071 94.6932C90.1071 84.553 90.1071 74.9874 90.1071 74.4905C90.1071 72.7203 89.4424 71.0743 88.249 69.863C87.0708 68.6363 85.4242 67.922 83.7172 67.922C82.2822 67.922 80.968 68.4344 79.9105 69.2419C79.6537 68.7916 79.3516 68.3723 78.9891 68.0151C77.7957 66.7884 76.1492 66.0896 74.4724 66.0896C73.1431 66.0896 71.9044 66.5089 70.8772 67.2387C70.575 66.6331 70.2125 66.0741 69.7442 65.5927C68.5508 64.3659 66.9043 63.6671 65.2275 63.6671C64.2003 63.6671 63.2336 63.9466 62.3725 64.397V58.3098H84.7747ZM62.3725 79.0249V70.2357C62.3725 68.6207 63.6565 67.3008 65.2275 67.3008C65.9677 67.3008 66.7079 67.6114 67.2517 68.1859C67.7804 68.7294 68.0826 69.4593 68.0826 70.2512V79.0404C68.0826 80.0342 68.8681 80.8572 69.85 80.8572C70.8319 80.8572 71.6174 80.0498 71.6174 79.0404V72.6737C71.6174 71.0587 72.9014 69.7388 74.4724 69.7388C75.2126 69.7388 75.9528 70.0494 76.4966 70.6239C77.0253 71.1674 77.3274 71.8973 77.3274 72.6892V72.8911C77.3274 73.1085 77.3274 73.2017 77.3274 73.2017V79.0559C77.3274 80.0498 78.1129 80.8728 79.0948 80.8728C80.0767 80.8728 80.8622 80.0653 80.8622 79.0559V74.5216C80.8622 72.9066 82.1462 71.5867 83.7172 71.5867C84.4876 71.5867 85.1976 71.8817 85.7414 72.4718C86.2701 73.0153 86.5723 73.7452 86.5723 74.5371C86.5723 74.7545 86.5723 78.7143 86.5723 94.7398C86.5723 102.364 80.545 108.56 73.128 108.56H58.1277C53.0219 108.56 48.4146 105.641 46.1336 100.936L38.067 84.4599C37.5232 83.3263 37.7347 81.9908 38.6108 81.1057C39.1849 80.5311 39.9553 80.2206 40.7559 80.2982C41.5565 80.3603 42.2816 80.7485 42.7801 81.4007L49.9856 90.8887C50.4539 91.4943 51.2394 91.7428 51.9494 91.4788C52.6594 91.2303 53.1428 90.5315 53.1428 89.7706V53.527C53.1428 51.912 54.4268 50.5921 55.9978 50.5921C57.5688 50.5921 58.8528 51.912 58.8528 53.527V79.087C58.8528 80.0808 59.6383 80.9038 60.6202 80.9038C61.1036 80.9038 61.5568 80.702 61.874 80.3759C62.1912 80.0498 62.3876 79.5994 62.3876 79.087L62.3725 79.0249ZM55.9978 46.9118C52.4781 46.9118 49.6231 49.8622 49.6231 53.4649V54.6606H43.6864C40.1516 54.6606 37.2815 51.7101 37.2815 48.092C37.2815 46.3528 37.9462 44.6912 39.1395 43.4489C40.348 42.2067 41.9643 41.5079 43.6713 41.5079H84.7747C88.3095 41.5079 91.1796 44.4583 91.1796 48.092C91.1796 49.8312 90.5149 51.4927 89.3216 52.735C88.098 53.9773 86.4816 54.6606 84.7747 54.6606H62.3725V53.4649C62.3725 49.8467 59.5175 46.9118 55.9978 46.9118Z" fill="white"/>
<path d="M64.2305 31.5385C65.1973 31.5385 65.9979 30.731 65.9979 29.7217V21.7089C65.9979 20.7151 65.2124 19.8921 64.2305 19.8921C63.2486 19.8921 62.4631 20.6996 62.4631 21.7089V29.7217C62.4631 30.7155 63.2486 31.5385 64.2305 31.5385Z" fill="white"/>
<path d="M51.7984 33.0137C52.1458 33.433 52.6443 33.6504 53.1428 33.6504C53.5507 33.6504 53.9585 33.5106 54.2758 33.2156C55.016 32.5634 55.1066 31.4298 54.4872 30.6534L49.4418 24.5351C48.8074 23.7742 47.7047 23.6811 46.9494 24.3177C46.2092 24.9699 46.1185 26.1035 46.7379 26.8799L51.7833 32.9982L51.7984 33.0137Z" fill="white"/>
<path d="M75.3183 33.6504C75.8168 33.6504 76.3153 33.433 76.6628 33.0137L81.7082 26.8955C82.3426 26.1346 82.252 24.9855 81.4967 24.3333C80.7565 23.6811 79.6386 23.7742 79.0042 24.5507L73.9588 30.6689C73.3243 31.4298 73.415 32.5789 74.1703 33.2311C74.5026 33.5262 74.9105 33.6659 75.3032 33.6659L75.3183 33.6504Z" fill="white"/>
</g>
<defs>
<clipPath id="clip0_6_63">
<rect width="128.461" height="132.055" fill="white"/>
</clipPath>
</defs>
</svg>
