<svg width="130" height="130" viewBox="0 0 130 130" fill="none" xmlns="http://www.w3.org/2000/svg">
<g clip-path="url(#clip0_6_56)">
<path d="M65.0306 0H65C29.1675 0 0.0152929 29.1369 6.01257e-06 64.9694C-0.0152809 100.802 29.1216 129.985 64.9694 130H65C82.3507 130 98.6618 123.243 110.937 110.983C123.228 98.7077 129.985 82.3965 130 65.0306C130.015 29.198 100.863 0.0152869 65.0306 0ZM107.803 107.849C96.3688 119.284 81.1583 125.567 65 125.567H64.9694C31.5675 125.552 4.41793 98.3714 4.43321 64.9694C4.4485 31.5828 31.6134 4.41792 65 4.41792H65.0306C98.4325 4.43321 125.597 31.6134 125.582 65.0153C125.582 81.1889 119.269 96.3993 107.819 107.834L107.803 107.849Z" fill="white"/>
<path d="M106.871 63.4102L93.2043 49.7437C92.226 48.7653 90.6208 48.7653 89.5355 49.7437C88.5571 50.722 88.5571 52.3271 89.5355 53.4125L98.8299 62.707H31.491L40.7855 53.4125C41.7638 52.4342 41.7638 50.829 40.7855 49.7437C39.8071 48.7653 38.202 48.7653 37.1166 49.7437L23.4501 63.4102C22.4717 64.3885 22.4717 65.9937 23.4501 67.079L37.1166 80.7455C37.6516 81.2806 38.2784 81.464 38.9052 81.464C39.5319 81.464 40.2504 81.1889 40.6937 80.7455C41.6721 79.7672 41.6721 78.162 40.6937 77.0767L31.491 67.7822H98.8452L89.5507 76.985C88.5724 77.9633 88.5724 79.5684 89.5507 80.6538C90.0858 81.1889 90.7125 81.3723 91.3393 81.3723C91.9661 81.3723 92.6846 81.0971 93.1279 80.6538L106.886 66.9873C107.864 66.0089 107.864 64.4038 106.886 63.4102H106.871Z" fill="white"/>
</g>
<defs>
<clipPath id="clip0_6_56">
<rect width="130" height="130" fill="white"/>
</clipPath>
</defs>
</svg>
