<svg width="133" height="133" viewBox="0 0 133 133" fill="none" xmlns="http://www.w3.org/2000/svg">
<g clip-path="url(#clip0_8_212)">
<path d="M66.5313 0H66.5C29.8406 0 0.0156459 29.8093 6.15132e-06 66.4687C-0.0156335 103.128 29.7936 132.984 66.4687 133H66.5C84.2511 133 100.939 126.087 113.497 113.544C126.072 100.986 132.984 84.298 133 66.5313C133.016 29.8718 103.191 0.0156397 66.5313 0ZM110.291 110.338C98.5927 122.037 83.0312 128.464 66.5 128.464H66.4687C32.296 128.449 4.51988 100.641 4.53552 66.4687C4.55116 32.3116 32.3429 4.51987 66.5 4.51987H66.5313C100.704 4.53551 128.496 32.3429 128.48 66.5156C128.48 83.0624 122.021 98.6239 110.307 110.322L110.291 110.338Z" fill="white"/>
<path d="M111.417 20.879L91.7894 40.5068L90.2411 38.9585C89.4747 38.1921 88.2548 38.1921 87.4885 38.9585L83.0312 43.4158L82.4681 42.8528C81.7018 42.0864 80.4819 42.0864 79.7155 42.8528L42.7589 79.8094C41.9926 80.5757 41.9926 81.7956 42.7589 82.562L43.322 83.125L38.8646 87.5823C38.0983 88.3486 38.0983 89.5685 38.8646 90.3349L40.413 91.8832L20.7852 111.511L23.5377 114.264L43.1656 94.6358L44.7139 96.1841C45.4802 96.9505 46.7001 96.9505 47.4665 96.1841L51.9238 91.7268L52.4868 92.2898C53.2532 93.0562 54.4731 93.0562 55.2394 92.2898L92.196 55.3332C92.9624 54.5669 92.9624 53.347 92.196 52.5806L91.633 52.002L96.0903 47.5447C96.8567 46.7783 96.8567 45.5584 96.0903 44.7921L94.542 43.2437L114.17 23.6159L111.417 20.8633V20.879ZM46.0902 92.0553L43.0092 88.9742L46.0902 85.8932L49.1712 88.9742L46.0902 92.0553ZM53.8631 88.161L46.8878 81.1857L62.6214 65.4521L69.5967 72.4274L53.8631 88.161ZM72.3492 69.6905L65.3739 62.7152L81.1075 46.9816L88.0828 53.9569L72.3492 69.6905ZM88.8804 49.265L85.7994 46.184L88.8804 43.103L91.9614 46.184L88.8804 49.265Z" fill="white"/>
</g>
<defs>
<clipPath id="clip0_8_212">
<rect width="133" height="133" fill="white"/>
</clipPath>
</defs>
</svg>
