<svg width="127" height="127" viewBox="0 0 127 127" fill="none" xmlns="http://www.w3.org/2000/svg">
<g clip-path="url(#clip0_6_51)">
<path d="M63.5299 0H63.5C28.4944 0 0.01494 28.4645 5.87382e-06 63.4701C-0.0149283 98.4758 28.4496 126.985 63.4701 127H63.5C80.4503 127 96.385 120.399 108.377 108.422C120.384 96.4298 126.985 80.4951 127 63.5299C127.015 28.5242 98.5355 0.0149341 63.5299 0ZM105.316 105.36C94.1449 116.531 79.2854 122.669 63.5 122.669H63.4701C30.839 122.654 4.31597 96.1012 4.33091 63.4701C4.34584 30.854 30.8838 4.31597 63.5 4.31597H63.5299C96.161 4.3309 122.699 30.8838 122.684 63.5149C122.684 79.3153 116.516 94.1747 105.331 105.345L105.316 105.36Z" fill="white"/>
<path d="M40.9793 95.474C38.097 95.474 35.379 94.339 33.333 92.293C31.2721 90.2321 30.1371 87.529 30.1371 84.6467V44.7875C30.1371 41.9052 31.2721 39.2021 33.333 37.1412C35.3939 35.0803 38.112 33.9453 40.9793 33.9453H87.9173C90.7996 33.9453 93.5027 35.0803 95.5636 37.1412C97.6245 39.2021 98.7595 41.9201 98.7595 44.7875V84.6467C98.7595 87.5141 97.6245 90.2321 95.5636 92.293C93.5027 94.3539 90.7847 95.474 87.9173 95.474H40.9793ZM40.9793 38.784C37.6191 38.784 34.9758 41.4124 34.9758 44.7875V84.6467C34.9758 88.0069 37.6042 90.6353 40.9793 90.6353H87.9173C91.2775 90.6353 93.9209 88.0069 93.9209 84.6467V44.7875C93.9209 41.4273 91.2924 38.784 87.9173 38.784H40.9793Z" fill="white"/>
<path d="M43.1746 46.9977H46.714C47.6997 46.9977 48.4912 47.7893 48.4912 48.7749V52.3143C48.4912 53.3 47.6997 54.0915 46.714 54.0915H43.1746C42.189 54.0915 41.3975 53.3 41.3975 52.3143V48.7749C41.3975 47.7893 42.189 46.9977 43.1746 46.9977Z" fill="white"/>
<path d="M43.1746 48.1178H46.714C47.0724 48.1178 47.3711 48.4165 47.3711 48.7749V52.3143C47.3711 52.6727 47.0874 52.9714 46.714 52.9714H43.1746C42.8162 52.9714 42.5175 52.6876 42.5175 52.3143V48.7749C42.5175 48.4165 42.8162 48.1178 43.1746 48.1178Z" fill="white"/>
<path d="M56.1673 46.9977H59.7067C60.6924 46.9977 61.4839 47.7893 61.4839 48.7749V52.3143C61.4839 53.3 60.6924 54.0915 59.7067 54.0915H56.1673C55.1817 54.0915 54.3902 53.3 54.3902 52.3143V48.7749C54.3902 47.7893 55.1817 46.9977 56.1673 46.9977Z" fill="white"/>
<path d="M56.1674 48.1178H59.7068C60.0652 48.1178 60.3639 48.4165 60.3639 48.7749V52.3143C60.3639 52.6727 60.0652 52.9714 59.7068 52.9714H56.1674C55.8089 52.9714 55.5103 52.6727 55.5103 52.3143V48.7749C55.5103 48.4165 55.794 48.1178 56.1674 48.1178Z" fill="white"/>
<path d="M69.16 46.9977H72.6994C73.6851 46.9977 74.4766 47.7893 74.4766 48.7749V52.3143C74.4766 53.3 73.6851 54.0915 72.6994 54.0915H69.16C68.1744 54.0915 67.3829 53.3 67.3829 52.3143V48.7749C67.3829 47.7893 68.1744 46.9977 69.16 46.9977Z" fill="white"/>
<path d="M69.16 48.1178H72.6994C73.0578 48.1178 73.3565 48.4165 73.3565 48.7749V52.3143C73.3565 52.6727 73.0728 52.9714 72.6994 52.9714H69.16C68.8016 52.9714 68.5029 52.6727 68.5029 52.3143V48.7749C68.5029 48.4165 68.7867 48.1178 69.16 48.1178Z" fill="white"/>
<path d="M82.1528 46.9977H85.6922C86.6778 46.9977 87.4693 47.7893 87.4693 48.7749V52.3143C87.4693 53.3 86.6778 54.0915 85.6922 54.0915H82.1528C81.1671 54.0915 80.3756 53.3 80.3756 52.3143V48.7749C80.3756 47.7893 81.1671 46.9977 82.1528 46.9977Z" fill="white"/>
<path d="M82.1528 48.1178H85.6922C86.0506 48.1178 86.3493 48.4165 86.3493 48.7749V52.3143C86.3493 52.6727 86.0655 52.9714 85.6922 52.9714H82.1528C81.7943 52.9714 81.4957 52.6876 81.4957 52.3143V48.7749C81.4957 48.4165 81.7943 48.1178 82.1528 48.1178Z" fill="white"/>
<path d="M43.1746 61.1703H46.714C47.6997 61.1703 48.4912 61.9618 48.4912 62.9475V66.4868C48.4912 67.4725 47.6997 68.264 46.714 68.264H43.1746C42.189 68.264 41.3975 67.4725 41.3975 66.4868V62.9475C41.3975 61.9618 42.189 61.1703 43.1746 61.1703Z" fill="white"/>
<path d="M43.1746 62.2903H46.714C47.0724 62.2903 47.3711 62.589 47.3711 62.9475V66.4868C47.3711 66.8453 47.0874 67.1439 46.714 67.1439H43.1746C42.8162 67.1439 42.5175 66.8602 42.5175 66.4868V62.9475C42.5175 62.589 42.8162 62.2903 43.1746 62.2903Z" fill="white"/>
<path d="M56.1673 61.1703H59.7067C60.6924 61.1703 61.4839 61.9618 61.4839 62.9475V66.4868C61.4839 67.4725 60.6924 68.264 59.7067 68.264H56.1673C55.1817 68.264 54.3902 67.4725 54.3902 66.4868V62.9475C54.3902 61.9618 55.1817 61.1703 56.1673 61.1703Z" fill="white"/>
<path d="M56.1674 62.2903H59.7068C60.0652 62.2903 60.3639 62.589 60.3639 62.9475V66.4868C60.3639 66.8453 60.0652 67.1439 59.7068 67.1439H56.1674C55.8089 67.1439 55.5103 66.8453 55.5103 66.4868V62.9475C55.5103 62.589 55.794 62.2903 56.1674 62.2903Z" fill="white"/>
<path d="M55.5849 81.3015C54.9427 81.3015 54.3304 81.0476 53.8675 80.5847C53.4045 80.1217 53.1506 79.5244 53.1506 78.8673C53.1506 78.2101 53.4045 77.6128 53.8675 77.1498C54.3304 76.6869 54.9278 76.433 55.5849 76.433H73.3117C73.9539 76.433 74.5662 76.6869 75.0292 77.1498C75.4921 77.6128 75.746 78.2101 75.746 78.8673C75.746 79.5244 75.4921 80.1217 75.0292 80.5847C74.5662 81.0476 73.9688 81.3015 73.3117 81.3015H55.5849Z" fill="white"/>
<path d="M69.16 61.1703H72.6994C73.6851 61.1703 74.4766 61.9618 74.4766 62.9475V66.4868C74.4766 67.4725 73.6851 68.264 72.6994 68.264H69.16C68.1744 68.264 67.3829 67.4725 67.3829 66.4868V62.9475C67.3829 61.9618 68.1744 61.1703 69.16 61.1703Z" fill="white"/>
<path d="M69.16 62.2903H72.6994C73.0578 62.2903 73.3565 62.589 73.3565 62.9475V66.4868C73.3565 66.8453 73.0578 67.1439 72.6994 67.1439H69.16C68.8016 67.1439 68.5029 66.8453 68.5029 66.4868V62.9475C68.5029 62.589 68.7867 62.2903 69.16 62.2903Z" fill="white"/>
<path d="M82.1528 61.1703H85.6922C86.6778 61.1703 87.4693 61.9618 87.4693 62.9475V66.4868C87.4693 67.4725 86.6778 68.264 85.6922 68.264H82.1528C81.1671 68.264 80.3756 67.4725 80.3756 66.4868V62.9475C80.3756 61.9618 81.1671 61.1703 82.1528 61.1703Z" fill="white"/>
<path d="M82.1528 62.2903H85.6922C86.0506 62.2903 86.3493 62.589 86.3493 62.9475V66.4868C86.3493 66.8453 86.0506 67.1439 85.6922 67.1439H82.1528C81.7943 67.1439 81.4957 66.8453 81.4957 66.4868V62.9475C81.4957 62.589 81.7794 62.2903 82.1528 62.2903Z" fill="white"/>
</g>
<defs>
<clipPath id="clip0_6_51">
<rect width="127" height="127" fill="white"/>
</clipPath>
</defs>
</svg>
