<svg width="127" height="127" viewBox="0 0 127 127" fill="none" xmlns="http://www.w3.org/2000/svg">
<g clip-path="url(#clip0_6_21)">
<path d="M63.5299 0H63.5C28.4944 0 0.01494 28.4645 5.87381e-06 63.4701C-0.0149283 98.4758 28.4496 126.985 63.4701 127H63.5C80.4503 127 96.385 120.399 108.377 108.422C120.384 96.4298 126.985 80.4951 127 63.5299C127.015 28.5242 98.5355 0.0149341 63.5299 0ZM105.316 105.36C94.1449 116.531 79.2854 122.669 63.5 122.669H63.4701C30.839 122.654 4.31597 96.1012 4.33091 63.4701C4.34584 30.854 30.8838 4.31597 63.5 4.31597H63.5299C96.161 4.3309 122.699 30.8838 122.684 63.5149C122.684 79.3153 116.516 94.1747 105.331 105.345L105.316 105.36Z" fill="white"/>
<path d="M93.9059 70.6535L85.6623 82.093L80.8983 83.1384L94.2046 64.6649L93.891 70.6535H93.9059Z" fill="white"/>
<path d="M93.4131 80.3906L91.0983 80.8983L93.5624 77.4784L93.4131 80.3906Z" fill="white"/>
<path d="M94.563 57.8399L75.4772 84.3331L70.7132 85.3785L94.8617 51.8663L94.563 57.8399Z" fill="white"/>
<path d="M95.2201 45.0414L65.2921 86.5733L60.543 87.6186L95.5188 39.0528L95.2201 45.0414Z" fill="white"/>
<path d="M34.6174 102.209L100.014 88.4251C101.104 88.1862 101.911 87.2453 101.97 86.1253L104.644 33.9155V33.796C104.644 33.124 104.375 32.4669 103.867 32.0039L98.7147 27.1354C98.1323 26.5828 97.296 26.3439 96.5194 26.5081L31.1228 40.2924C30.0176 40.5313 29.2261 41.4722 29.1664 42.5922L26.4932 94.7871C26.4633 95.5188 26.7321 96.2207 27.2698 96.6986L32.422 101.567C33.0045 102.135 33.8408 102.359 34.6323 102.194L34.6174 102.209ZM41.039 43.2642L33.5421 53.6733L33.8856 46.8484L35.6627 44.3992L41.054 43.2642H41.039ZM51.1495 41.1436L32.885 66.4869L33.2285 59.6619L45.7582 42.2786L51.1495 41.1436ZM61.2599 39.008L32.2428 79.3004L32.5863 72.4754L55.8687 40.143L61.2599 39.008ZM71.3703 36.8724L31.7201 91.9048L31.6007 91.8152L31.9292 85.2889L65.9791 38.0224L71.3554 36.8874L71.3703 36.8724ZM34.8712 97.1168L31.5559 93.9806L34.7518 93.2787L76.1044 35.8868L81.4956 34.7518L40.1878 92.0989L44.9518 91.0535L86.2298 33.7512L91.621 32.6162L50.3878 89.8588L55.1518 88.8134L95.7279 32.4818L95.8922 32.6013L95.937 31.7052L96.3103 31.6305L99.6854 34.8265L97.1765 83.9897L34.9011 97.1168H34.8712Z" fill="white"/>
</g>
<defs>
<clipPath id="clip0_6_21">
<rect width="127" height="127" fill="white"/>
</clipPath>
</defs>
</svg>
