<svg width="200" height="200" viewBox="0 0 200 200" fill="none" xmlns="http://www.w3.org/2000/svg">
<path d="M36.8201 93.6C37.1735 91.0734 37.3935 88.5134 37.8935 86.02C42.5601 62.8667 55.6735 46.4334 77.2468 36.78C78.5135 36.2133 79.7535 36.1667 80.8002 37.1934C81.8602 38.2267 81.8202 39.46 81.2402 40.74C78.7735 46.2067 77.0802 51.9 76.3135 57.86C74.6268 70.94 76.7935 83.3534 83.2402 94.86C92.7735 111.893 107.36 122.02 126.54 125.36C137.027 127.187 147.327 125.993 157.3 122.233C157.794 122.047 158.294 121.86 158.787 121.667C160.054 121.18 161.254 121.24 162.2 122.28C163.147 123.32 163.087 124.52 162.5 125.74C160.254 130.467 157.527 134.907 154.214 138.96C144 151.44 130.994 159.413 115.14 162.373C96.1068 165.927 78.6602 161.807 63.1468 150.26C49.5601 140.147 41.3535 126.493 38.0001 109.927C37.5268 107.593 37.3601 105.2 37.0468 102.84C36.9868 102.407 36.8935 101.98 36.8135 101.553C36.8135 98.9 36.8135 96.2467 36.8135 93.5934L36.8201 93.6ZM73.2602 45.12C52.1468 56.74 38.2535 82.08 43.7468 109.627C48.8468 135.22 70.4802 155.533 98.0002 157.747C123.487 159.8 144.707 145.36 153.8 129.507C128.74 135.287 106.487 130.033 88.5402 111.3C70.5468 92.5134 66.3202 70.0134 73.2602 45.12Z" fill="black"/>
<path d="M95.3198 75.4467V70.8533L107.26 53.8667H95.9998V48.7067H114.76V53.38L102.933 70.2933H115.173V75.4533H95.3198V75.4467Z" fill="black"/>
<path d="M121.64 100V95.76L129.72 84.6867H122.147V79.94H136.753V84.2333L128.787 95.2533H137.147V100H121.64Z" fill="black"/>
<path d="M143.327 75.4467V70.8533L155.267 53.8667H144.007V48.7067H162.767V53.38L150.94 70.2933H163.18V75.4533H143.327V75.4467Z" fill="black"/>
</svg>
