<svg width="56" height="64" viewBox="0 0 56 64" fill="none" xmlns="http://www.w3.org/2000/svg">
<path d="M24.808 63.3597C23.836 63.2757 22.864 63.1957 21.892 63.1077C16.756 62.6477 11.712 61.7677 6.95601 59.6677C5.21201 58.8957 3.58401 57.9317 2.25201 56.5317C-0.227991 53.9357 -0.163989 50.4797 2.40401 47.9757C4.05601 46.3597 6.06001 45.3277 8.18001 44.4997C10.996 43.3957 13.92 42.6837 16.9 42.1757C17.076 42.1437 17.248 42.0997 17.464 42.0517C17.368 41.8797 17.308 41.7517 17.232 41.6357C15.132 38.3557 13.028 35.0757 10.936 31.7917C9.24401 29.1357 8.20801 26.2437 7.90801 23.1037C7.30801 16.7797 9.22801 11.2997 13.616 6.73973C16.736 3.49973 20.572 1.55573 25.044 0.871733C33.46 -0.412267 41.772 3.75973 45.736 11.3117C49.388 18.2717 49.104 25.2317 44.944 31.9477C42.936 35.1877 40.84 38.3757 38.784 41.5917C38.7 41.7237 38.632 41.8677 38.532 42.0437C39.768 42.2957 40.964 42.5157 42.148 42.7917C45.432 43.5597 48.644 44.5277 51.528 46.3477C52.728 47.1037 53.824 47.9957 54.584 49.2117C56.088 51.6117 55.848 54.1717 53.94 56.3037C52.436 57.9837 50.508 59.0517 48.464 59.9077C44.564 61.5437 40.46 62.3957 36.276 62.8597C34.736 63.0317 33.188 63.1197 31.644 63.2557C31.484 63.2677 31.332 63.3237 31.176 63.3597H24.804H24.808ZM27.976 51.6277C28.124 51.4197 28.22 51.2917 28.304 51.1597C32.904 43.9597 37.512 36.7637 42.096 29.5557C43.244 27.7477 43.98 25.7637 44.292 23.6397C45.064 18.3357 43.72 13.6277 40.084 9.67973C36.308 5.57973 31.544 3.83573 26.024 4.46373C21.268 5.00373 17.484 7.34773 14.628 11.2037C10.712 16.4877 10.424 24.1517 13.964 29.6877C16.784 34.1037 19.616 38.5157 22.436 42.9317C24.268 45.7997 26.096 48.6717 27.98 51.6277H27.976ZM29.424 59.6997C30.908 59.5757 33.86 59.3957 36.796 59.0717C40.188 58.6997 43.5 57.9397 46.672 56.6517C48.34 55.9757 49.964 55.2077 51.192 53.8237C52.08 52.8197 52.132 51.8357 51.192 50.8917C50.468 50.1637 49.632 49.4997 48.736 49.0037C45.06 46.9677 41.004 46.1757 36.9 45.5717C36.412 45.4997 36.184 45.6517 35.936 46.0437C33.88 49.3037 31.816 52.5557 29.716 55.7877C29.436 56.2197 28.976 56.6317 28.504 56.8277C27.668 57.1757 26.876 56.7717 26.296 55.8677C24.188 52.5677 22.084 49.2717 19.992 45.9597C19.776 45.6197 19.576 45.4917 19.164 45.5717C18.124 45.7677 17.068 45.8837 16.032 46.0837C12.964 46.6797 9.94401 47.4517 7.21201 49.0277C6.30801 49.5517 5.45601 50.2277 4.72801 50.9757C3.86401 51.8637 3.92001 52.8357 4.74801 53.7597C5.15201 54.2117 5.61601 54.6317 6.11201 54.9757C8.04401 56.3157 10.232 57.0957 12.472 57.7317C17.532 59.1677 22.72 59.6237 29.424 59.6997Z" fill="black"/>
<path d="M28.028 11.7832C33.092 11.7912 37.184 15.9112 37.18 20.9872C37.176 26.0792 33.04 30.1712 27.928 30.1552C22.872 30.1352 18.792 26.0032 18.808 20.9192C18.824 15.8632 22.948 11.7712 28.028 11.7832ZM28.084 15.4632C25.208 15.5032 22.608 17.5192 22.512 20.8632C22.428 23.7912 24.596 26.3872 27.932 26.4512C30.876 26.5032 33.4 24.3312 33.472 21.0432C33.536 18.1352 31.392 15.6512 28.08 15.4632H28.084Z" fill="black"/>
</svg>
