<svg width="72" height="64" viewBox="0 0 72 64" fill="none" xmlns="http://www.w3.org/2000/svg">
<path d="M36.7535 60.9214C32.6383 58.5246 29.5334 55.0208 26.0482 51.9866C24.2441 50.4174 22.5145 48.7586 20.7142 47.1856C20.4048 46.9135 19.9053 46.7309 19.4878 46.7272C14.0681 46.6973 8.64837 46.7085 3.22863 46.7085C2.98634 46.7085 2.74033 46.7197 2.49805 46.6936C1.59973 46.6116 0.988422 45.9891 1.00333 45.1952C1.01824 44.3975 1.64818 43.7676 2.53905 43.7303C3.39264 43.6967 4.24623 43.7191 5.10354 43.7191C8.96147 43.7191 12.8157 43.7191 16.8712 43.7191C16.5841 43.4358 16.4164 43.2606 16.2375 43.0966C11.9136 39.1791 7.60095 35.2503 3.2659 31.3439C-1.69908 26.871 -0.8604 19.293 4.9619 16.0054C5.20791 15.8638 5.43902 15.5246 5.49865 15.2413C7.02319 7.64096 13.4232 1.59501 21.1577 0.51032C22.0001 0.391041 22.8575 0.361222 23.7111 0.338857C24.5535 0.316492 25.0343 0.681785 25.2729 1.48692C25.5785 2.51197 25.8283 3.55566 26.1563 4.57326C27.5019 8.73684 31.7959 11.1895 36.0564 10.1645C38.4979 9.57924 40.7456 9.75816 42.7621 11.3722C43.7797 12.1847 44.4544 13.2359 44.9203 14.4473C47.7383 21.7643 50.5861 29.0664 53.3854 36.3909C54.567 39.4847 56.673 41.4901 59.8526 42.4294C61.9959 43.0631 64.1839 43.611 66.0551 44.9305C70.1292 47.8081 72.1681 51.7406 71.9892 56.7317C71.8513 60.571 68.34 63.8735 64.4373 63.8922C57.9665 63.922 51.4993 63.8996 45.0284 63.8996C36.6044 63.8996 28.184 63.8922 19.7599 63.881C19.3984 63.881 19.0182 63.8623 18.6864 63.7431C18.0118 63.497 17.7247 62.9528 17.7844 62.2409C17.8403 61.5774 18.3137 61.0705 18.9921 60.9698C19.3052 60.9251 19.6257 60.9214 19.9426 60.9214C25.2878 60.9214 30.6367 60.9214 35.9819 60.9214H36.7646H36.7535ZM17.6353 25.8161C17.8254 26.0323 17.9819 26.2149 18.1459 26.3938C19.8755 28.2874 21.6311 30.1549 23.3159 32.0857C23.644 32.4622 23.9012 33.107 23.8229 33.5692C23.7521 33.9904 23.2488 34.4638 22.8202 34.6725C22.2126 34.9633 21.6535 34.6129 21.2062 34.1246C18.8542 31.5452 16.4984 28.9695 14.1426 26.3938C11.854 23.889 9.55414 21.3916 7.28411 18.8681C6.93373 18.4804 6.62808 18.3872 6.24042 18.7004C5.5993 19.2185 4.88362 19.6844 4.37296 20.3143C2.41604 22.7186 2.36758 26.6138 5.47629 29.3945C14.8807 37.8111 24.2031 46.3246 33.5441 54.8083C37.3722 58.2823 41.8265 60.5151 46.9816 60.776C52.7555 61.0705 58.548 60.9586 64.3367 60.9512C66.4576 60.9512 68.3475 59.4266 68.7463 57.5815H67.9412C64.9853 57.5815 62.0331 57.6151 59.0773 57.5666C57.4223 57.5405 55.7523 57.4772 54.1123 57.2573C47.7271 56.4111 41.9421 54.0591 36.7721 50.2049C34.3716 48.4157 32.2805 46.2985 30.3049 44.0658C29.9098 43.6185 29.6526 43.0519 29.9956 42.53C30.2639 42.1238 30.7187 41.7361 31.1734 41.5833C31.781 41.382 32.2432 41.8442 32.6793 42.2729C34.4573 44.0136 36.2614 45.7208 38.0432 47.454C38.4271 47.8268 38.7961 47.879 39.2807 47.6479C40.753 46.9471 42.244 46.2836 43.7238 45.5977C44.022 45.4598 44.309 45.2884 44.6072 45.1281C44.4246 44.8075 44.2829 44.5503 44.1376 44.2969C40.0448 37.2296 35.9558 30.1623 31.8556 23.0988C30.9908 21.6115 30.5249 20.0311 30.5472 18.2978C30.5733 16.4564 31.1772 14.8201 32.2134 13.2433C26.8831 12.0021 23.8154 8.61756 22.7419 3.34692C19.9948 3.51466 17.5794 4.37197 15.328 5.80332C22.0747 10.813 22.6711 19.9304 17.639 25.8198L17.6353 25.8161ZM42.9485 17.5187C42.5646 16.5757 42.2738 15.6923 41.8601 14.8722C40.8648 12.9191 38.5315 12.2295 36.6044 13.2657C33.6112 14.876 32.6234 18.5103 34.394 21.5891C37.663 27.2735 40.9655 32.9393 44.2531 38.6125C45.2297 40.2936 46.2026 41.9784 47.2314 43.7489C48.905 42.6568 50.5264 41.6019 52.0398 40.6179C51.2011 38.687 50.4221 36.8904 49.6319 35.0788C49.2777 35.2354 48.9236 35.3994 48.5621 35.5485C47.6488 35.925 46.8325 35.6342 46.4896 34.8179C46.1579 34.0351 46.4971 33.2785 47.3693 32.8535C47.7756 32.656 48.1856 32.4584 48.618 32.2534C48.0029 30.6655 47.414 29.1559 46.8139 27.6053C46.1616 27.8997 45.5913 28.1718 45.0135 28.4179C44.104 28.8092 43.2504 28.5409 42.8963 27.7618C42.531 26.9604 42.874 26.1627 43.7797 25.7304C44.2867 25.4918 44.816 25.2942 45.3043 25.0259C45.4608 24.9401 45.6546 24.6382 45.6099 24.5152C45.1067 23.1249 44.5588 21.7457 43.9997 20.3106C43.3883 20.5865 42.8441 20.8436 42.2887 21.0785C41.383 21.4587 40.5592 21.1679 40.2088 20.3553C39.8696 19.5726 40.2014 18.8047 41.0736 18.3835C41.6625 18.1002 42.2626 17.8393 42.9485 17.5262V17.5187ZM41.6849 49.8545C41.7557 49.9365 41.7818 49.9813 41.8191 50.0036C46.4262 52.6911 51.3875 54.2827 56.7103 54.5138C60.5869 54.6816 64.4746 54.5809 68.3549 54.5958C68.5413 54.5958 68.7277 54.5586 68.9625 54.5325C68.2841 50.8684 66.357 48.207 63.0358 46.634C62.0741 46.1792 61.0267 45.8922 60.0054 45.5828C58.1081 45.0088 56.2332 44.39 54.6788 43.0966C54.28 42.7649 54.0414 42.8059 53.6165 43.0668C50.6234 44.897 47.6153 46.7011 44.5849 48.4679C43.6679 49.0009 42.6652 49.3923 41.6849 49.8545ZM12.8343 7.79006C10.6575 9.94826 9.20376 12.4568 8.53281 15.4053C8.48808 15.6103 8.59618 15.9234 8.74155 16.0874C10.8811 18.4581 13.043 20.8101 15.1975 23.1621C15.3205 23.2963 15.4696 23.4044 15.6075 23.5237C19.5177 18.9091 18.6417 11.2939 12.8306 7.78633L12.8343 7.79006Z" fill="black"/>
</svg>
