<svg width="128" height="116" viewBox="0 0 128 116" fill="none" xmlns="http://www.w3.org/2000/svg">
<path d="M112.338 6.89832C104.452 0.985954 95.7396 -1.1388 86.4774 0.616435C79.1411 2.00215 72.7218 5.69738 67.0361 12.0717C66.4858 12.7183 65.9356 13.2726 65.4771 13.9193L64.1932 15.3974L63.4596 14.6583C62.8177 14.0116 62.2674 13.365 61.6255 12.7183C60.2499 11.2402 58.9661 9.85451 57.5905 8.65356C48.6951 0.893575 38.8828 -1.69308 28.3367 1.07834C14.4893 4.68119 5.41057 14.104 1.28387 29.0697C0.825343 30.5478 0.641934 32.2107 0.36682 33.7811C0.275115 34.5202 0.0917046 35.2592 0 35.9983V43.3887C0 43.3887 0 43.3887 0 43.4811C0.0917046 43.6659 0.183413 43.943 0.183413 44.2202C0.733641 50.3173 2.38432 56.322 5.41057 62.5115C10.8211 73.8744 18.8912 83.9439 30.9962 94.2905C39.6164 101.681 49.6122 108.425 62.1757 115.446C63.4596 116.185 64.5601 116.185 65.7522 115.446C79.3245 107.87 89.9622 100.572 99.1327 92.3505C108.762 83.7591 115.915 75.0753 120.867 65.8372C126.919 54.4744 129.12 43.6659 127.469 32.9497C126.002 22.0488 120.867 13.1802 112.338 6.89832ZM122.151 40.3402C121.875 50.2249 118.482 59.7401 111.88 69.6249C105.827 78.5858 97.8488 86.7153 86.7526 95.1219C80.3332 100.018 73.3637 104.545 65.3854 108.979C65.0186 109.164 64.4683 109.349 64.0098 109.349C63.643 109.349 63.2762 109.256 63.0011 109.071C48.5117 100.85 37.3238 92.8124 27.9699 83.5744C21.2755 76.9229 16.14 70.2715 12.3801 63.1582C12.2884 62.9735 12.1967 62.7887 12.105 62.5115L11.3714 60.8487H18.7994C20.175 60.8487 21.5506 60.8487 22.9262 60.8487C24.4851 60.8487 25.4939 60.202 26.1358 58.8163C26.9612 57.0611 27.8782 55.3058 28.7035 53.5506L29.9874 50.8716C30.1708 50.5944 30.2625 50.3173 30.4459 49.9478L31.4547 48.1002L37.9657 61.2182C40.2583 65.7449 42.4592 70.3639 44.7518 74.8906C45.4855 76.461 46.4025 77.1077 47.6864 77.1077C48.9703 77.1077 49.8873 76.461 50.6209 74.8906C53.7389 68.6087 56.8569 62.3268 59.9748 56.0449L62.4508 51.0563C62.5425 50.7792 62.726 50.5021 62.9094 50.2249L64.0098 48.1002L65.1103 50.3173C65.2937 50.6868 65.4771 51.0563 65.6605 51.3335C66.9444 53.8278 68.1365 56.322 69.4204 58.8163C70.0623 60.0173 70.9794 60.6639 72.3549 60.6639C81.8005 60.6639 91.3378 60.6639 100.783 60.6639C102.526 60.6639 103.81 59.463 103.901 57.8001C103.993 56.1373 102.801 54.9363 100.967 54.7516C99.7746 54.6592 98.5825 54.6592 97.482 54.7516C97.0235 54.7516 96.565 54.7516 96.1064 54.7516H91.6129C86.3857 54.7516 81.0669 54.7516 75.8397 54.7516C74.5559 54.7516 73.7305 54.2897 73.0886 52.9963C71.9881 50.6868 70.8877 48.4697 69.7872 46.2525C68.8702 44.4049 67.8614 42.4649 66.9444 40.5249C66.2107 38.9545 65.2937 38.3078 64.0098 38.3078C62.726 38.3078 61.9006 38.9545 61.0753 40.5249C58.1407 46.5297 55.1145 52.5344 52.1799 58.5392L49.4288 64.1744C49.2454 64.4515 49.1537 64.7287 48.9703 65.0058L46.8611 69.163V65.5601L42.6426 57.0611C39.9832 51.6106 37.2321 46.2525 34.5726 40.8944C34.3892 40.5249 34.2058 40.2478 34.1141 39.8783C33.4722 38.7697 32.6468 38.2154 31.4547 38.2154C30.2625 38.2154 29.4372 38.7697 28.887 39.9706C28.245 41.264 27.6031 42.5573 26.9612 43.8506C25.4939 46.8068 23.9349 49.9478 22.4676 52.9963C21.9174 54.1973 21.0921 54.6592 19.8082 54.6592C18.3409 54.6592 16.8737 54.6592 15.4064 54.6592C13.7557 54.6592 12.1967 54.6592 10.546 54.6592C9.9041 54.6592 8.80365 54.1049 8.52853 53.2735C4.86035 41.6335 5.31887 31.6564 9.9041 22.6031C14.3976 13.8269 21.0921 8.28404 29.8957 6.25166C39.3413 4.03452 47.8698 6.62119 55.2979 13.9193C57.5905 16.2288 59.5163 18.9078 61.2587 21.4945L61.3504 21.5869C62.2674 22.8802 63.2762 23.5269 64.2849 23.5269C65.2937 23.5269 66.2107 22.7878 66.9444 21.5869C70.8877 15.3974 75.2895 11.0555 80.5166 8.37642C90.4207 3.2031 102.342 4.95833 110.871 12.7183C118.666 20.2012 122.426 29.3468 122.151 40.3402Z" fill="black"/>
</svg>
