<svg width="80" height="80" viewBox="0 0 80 80" fill="none" xmlns="http://www.w3.org/2000/svg">
<path d="M0.676025 39.5479C1.14803 39.2919 1.59603 38.8959 2.10003 38.7999C12.212 36.8919 22.332 35.0159 32.456 33.1519C32.916 33.0679 33.072 32.9159 33.156 32.4519C34.352 25.8959 35.576 19.3439 36.792 12.7879C37.468 9.14788 38.116 5.49987 38.828 1.86787C38.912 1.43987 39.3 1.06787 39.548 0.671875C39.856 0.671875 40.164 0.671875 40.468 0.671875C40.724 1.14387 41.12 1.59188 41.216 2.09588C43.124 12.2079 45 22.3239 46.864 32.4439C46.948 32.8999 47.092 33.0599 47.556 33.1479C54.112 34.3439 60.664 35.5679 67.216 36.7839C70.856 37.4599 74.5 38.1239 78.14 38.7999C78.792 38.9199 79.316 39.2279 79.328 39.9799C79.34 40.7359 78.836 41.0719 78.18 41.1959C72.304 42.2879 66.428 43.3639 60.552 44.4519C56.208 45.2559 51.868 46.0759 47.52 46.8639C47.088 46.9399 46.948 47.0879 46.868 47.5159C45.72 53.7959 44.544 60.0679 43.38 66.3479C42.648 70.2879 41.932 74.2359 41.2 78.1759C41.076 78.8319 40.74 79.3359 39.984 79.3199C39.232 79.3039 38.924 78.7879 38.804 78.1319C37.872 73.0839 36.948 68.0359 36.016 62.9919C35.06 57.8199 34.084 52.6519 33.14 47.4759C33.068 47.0719 32.92 46.9439 32.528 46.8719C26.5 45.7679 20.476 44.6439 14.452 43.5279C10.26 42.7519 6.06403 41.9959 1.87603 41.1839C1.44803 41.0999 1.07603 40.7119 0.680026 40.4639C0.680026 40.1559 0.680026 39.8479 0.680026 39.5439L0.676025 39.5479ZM40.028 38.3759C41.46 36.9319 42.812 35.5359 44.208 34.1879C44.612 33.7959 44.688 33.4119 44.592 32.8959C43.112 24.9719 41.644 17.0439 40.168 9.11988C40.144 8.99588 40.076 8.87988 39.952 8.56388C39.452 11.2559 38.988 13.7319 38.532 16.2079C37.488 21.8279 36.444 27.4439 35.416 33.0639C35.368 33.3319 35.408 33.7279 35.572 33.8999C37.008 35.3879 38.484 36.8359 40.028 38.3759ZM8.78003 39.9079C8.78003 39.9639 8.78003 40.0239 8.78003 40.0799C8.89603 40.1079 9.00803 40.1439 9.12403 40.1679C11.784 40.6639 14.444 41.1639 17.108 41.6559C22.408 42.6399 27.704 43.6159 33.004 44.6039C33.472 44.6919 33.812 44.5999 34.16 44.2399C35.404 42.9479 36.684 41.6959 37.948 40.4239C38.084 40.2879 38.192 40.1279 38.348 39.9359C36.96 38.5639 35.592 37.2519 34.28 35.8879C33.832 35.4199 33.404 35.3319 32.792 35.4479C27.396 36.4679 21.996 37.4599 16.596 38.4599C13.992 38.9439 11.384 39.4239 8.78003 39.9079ZM71.232 40.1039C71.232 40.0399 71.236 39.9759 71.24 39.9119C69.876 39.6559 68.508 39.3999 67.144 39.1439C60.424 37.8959 53.7 36.6439 46.976 35.4119C46.708 35.3639 46.304 35.3879 46.136 35.5519C44.632 36.9999 43.164 38.4919 41.652 40.0039C43.06 41.4159 44.436 42.7479 45.752 44.1359C46.204 44.6119 46.64 44.6719 47.24 44.5599C52.076 43.6439 56.92 42.7559 61.76 41.8599C64.916 41.2759 68.072 40.6919 71.232 40.1039ZM39.908 71.2359C39.964 71.2359 40.02 71.2399 40.076 71.2439C40.108 71.1319 40.144 71.0199 40.168 70.9039C40.62 68.4959 41.072 66.0839 41.52 63.6759C42.548 58.1279 43.572 52.5759 44.604 47.0279C44.692 46.5639 44.616 46.2119 44.248 45.8679C43.388 45.0679 42.564 44.2239 41.74 43.3799C41.176 42.7999 40.64 42.1959 40.048 41.5559C38.572 43.0519 37.26 44.4199 35.896 45.7319C35.432 46.1799 35.328 46.5999 35.444 47.2159C36.364 52.0599 37.252 56.9079 38.152 61.7519C38.736 64.9119 39.32 68.0719 39.908 71.2319V71.2359Z" fill="black"/>
<path d="M40.024 79.6759H39.976C39.408 79.6639 38.684 79.3999 38.464 78.1999L34.708 57.8879C34.064 54.4399 33.424 50.9919 32.792 47.5399C32.748 47.2919 32.724 47.2679 32.464 47.2199C28.384 46.4719 24.304 45.7199 20.228 44.9599L10.616 43.1839C7.67997 42.6399 4.73597 42.1039 1.80397 41.5359C1.43197 41.4639 1.12397 41.2319 0.831975 41.0119C0.719975 40.9239 0.603975 40.8399 0.487975 40.7679L0.323975 40.6599V39.3399L0.507974 39.2439C0.651974 39.1679 0.783974 39.0799 0.919974 38.9919C1.26797 38.7679 1.61597 38.5399 2.03597 38.4639C11.64 36.6519 21.568 34.8079 32.392 32.8159C32.712 32.7519 32.748 32.7199 32.808 32.3999C33.64 27.8199 34.492 23.2439 35.34 18.6719L36.988 9.76394C37.476 7.11194 37.96 4.46394 38.48 1.81594C38.548 1.44394 38.776 1.13594 39.004 0.843938C39.088 0.727938 39.172 0.615937 39.244 0.499937L39.352 0.335938H40.672L40.768 0.519937C40.844 0.663937 40.932 0.795938 41.02 0.931938C41.244 1.27994 41.472 1.62794 41.548 2.04794C43.22 10.8759 45.012 20.5239 47.196 32.3999C47.26 32.7199 47.3 32.7639 47.608 32.8239C52.188 33.6559 56.764 34.5079 61.336 35.3559L78.188 38.4759C79.388 38.6919 79.648 39.4239 79.664 39.9959C79.676 40.8319 79.168 41.3879 78.228 41.5559C74.896 42.1799 71.56 42.7919 68.22 43.4079L56.324 45.6079C53.408 46.1559 50.488 46.6959 47.572 47.2239C47.288 47.2759 47.256 47.3079 47.2 47.5959C46.392 52.0119 45.568 56.4279 44.752 60.8479L42.884 70.9279C42.436 73.3719 41.988 75.8159 41.528 78.2559C41.36 79.1799 40.82 79.6879 40.008 79.6879L40.024 79.6759ZM1.02797 40.2799L1.25597 40.4519C1.49597 40.6359 1.72797 40.8039 1.93997 40.8479C4.87197 41.4119 7.80797 41.9559 10.744 42.4919L20.36 44.2719C24.436 45.0279 28.512 45.7839 32.592 46.5319C33.14 46.6279 33.388 46.8799 33.48 47.4119C34.112 50.8599 34.756 54.3079 35.4 57.7559L39.152 78.0719C39.3 78.8559 39.66 78.9639 39.992 78.9679H40.028C40.352 78.9679 40.724 78.8599 40.864 78.1159C41.32 75.6719 41.768 73.2279 42.216 70.7879L44.084 60.6999C44.908 56.2839 45.724 51.8719 46.536 47.4559C46.644 46.8839 46.904 46.6199 47.468 46.5239C50.388 45.9959 53.304 45.4479 56.216 44.9079L68.112 42.7039C71.448 42.0919 74.784 41.4719 78.124 40.8559C78.896 40.7119 78.992 40.3199 78.98 39.9879C78.976 39.6559 78.864 39.2919 78.084 39.1439L61.232 36.0279C56.656 35.1759 52.08 34.3279 47.504 33.4919C46.908 33.3839 46.64 33.1199 46.532 32.5119C44.344 20.6399 42.552 10.9919 40.884 2.16394C40.832 1.88394 40.648 1.59994 40.452 1.29994C40.396 1.20794 40.332 1.11194 40.28 1.02394H39.748C39.696 1.09994 39.636 1.17594 39.58 1.25194C39.396 1.49194 39.224 1.71994 39.184 1.93194C38.668 4.57994 38.18 7.22794 37.696 9.87994L36.048 18.7839C35.196 23.3599 34.348 27.9359 33.512 32.5119C33.404 33.1159 33.14 33.3839 32.536 33.4879C21.716 35.4799 11.784 37.3279 2.18397 39.1359C1.90397 39.1879 1.61997 39.3719 1.31997 39.5679C1.22797 39.6239 1.13197 39.6879 1.04397 39.7399V40.2719L1.02797 40.2799ZM40.356 71.5919L39.704 71.5799L39.568 71.2999C38.984 68.1359 38.4 64.9759 37.812 61.8159L37.224 58.6519C36.52 54.8559 35.824 51.0679 35.104 47.2799C34.96 46.5239 35.128 45.9879 35.656 45.4759C36.664 44.5079 37.648 43.5079 38.688 42.4439L40.06 41.0439L40.812 41.8599C41.212 42.2999 41.6 42.7159 41.992 43.1279C42.8 43.9559 43.632 44.8119 44.484 45.6039C44.924 46.0159 45.068 46.4759 44.948 47.0879C43.916 52.6319 42.892 58.1839 41.864 63.7319L40.512 70.9599C40.5 71.0439 40.476 71.1199 40.456 71.1959L40.36 71.5879L40.356 71.5919ZM40.04 42.0599L39.184 42.9359C38.144 44.0039 37.156 45.0079 36.14 45.9839C35.78 46.3319 35.692 46.6239 35.788 47.1479C36.508 50.9399 37.208 54.7279 37.912 58.5239L38.496 61.6919C39.004 64.4119 39.508 67.1359 40.012 69.8599L41.18 63.6119C42.208 58.0639 43.232 52.5119 44.264 46.9639C44.336 46.5799 44.268 46.3639 44.012 46.1199C43.144 45.3159 42.304 44.4519 41.496 43.6239C41.092 43.2119 40.7 42.7839 40.296 42.3399L40.044 42.0639L40.04 42.0599ZM33.3 44.9839C33.184 44.9839 33.064 44.9759 32.936 44.9479C29.076 44.2279 25.212 43.5119 21.352 42.7959L17.04 41.9959C14.38 41.5039 11.716 41.0039 9.05597 40.5079C8.95997 40.4919 8.86798 40.4679 8.77598 40.4399L8.42397 40.3439V39.6119L8.71197 39.5639L21.928 37.1159C25.528 36.4479 29.128 35.7839 32.72 35.1079C33.484 34.9559 34.028 35.1239 34.524 35.6439C35.492 36.6519 36.472 37.6119 37.504 38.6239L38.812 39.9079L38.468 40.3359C38.376 40.4599 38.284 40.5679 38.192 40.6679L37.076 41.7799C36.18 42.6759 35.28 43.5719 34.4 44.4879C34.072 44.8239 33.72 44.9839 33.292 44.9839H33.3ZM10.152 40.0079L17.164 41.3159L21.476 42.1119C25.336 42.8279 29.204 43.5439 33.06 44.2679C33.424 44.3199 33.648 44.2639 33.9 43.9999C34.784 43.0839 35.688 42.1879 36.588 41.2879L37.696 40.1759C37.76 40.1119 37.816 40.0439 37.88 39.9679L37.024 39.1239C35.984 38.1079 35.004 37.1479 34.028 36.1279C33.692 35.7759 33.392 35.6879 32.86 35.7919C29.26 36.4719 25.66 37.1399 22.064 37.8039L10.16 40.0079H10.152ZM46.776 44.9599C46.36 44.9599 45.928 44.8319 45.496 44.3759C44.58 43.4079 43.652 42.4879 42.672 41.5159C42.248 41.0999 41.828 40.6799 41.4 40.2559L41.156 40.0079L42.584 38.5799C43.692 37.4719 44.78 36.3799 45.888 35.3039C46.204 35.0119 46.752 35.0119 47.04 35.0719C53.764 36.3079 60.484 37.5559 67.208 38.8039C68.36 39.0159 69.504 39.2319 70.656 39.4479L71.612 39.6319L71.564 40.3999L71.296 40.4479C68.14 41.0319 64.98 41.6159 61.828 42.2039L59.856 42.5679C55.676 43.3399 51.488 44.1079 47.312 44.8999C47.14 44.9359 46.96 44.9559 46.78 44.9559L46.776 44.9599ZM42.14 40.0039C42.484 40.3479 42.82 40.6839 43.156 41.0159C44.148 41.9919 45.08 42.9239 46 43.8959C46.332 44.2479 46.628 44.3119 47.172 44.2159C51.352 43.4239 55.54 42.6519 59.724 41.8799L61.696 41.5199C64.408 41.0119 67.124 40.5119 69.836 40.0079C68.916 39.8359 67.996 39.6599 67.076 39.4879C60.352 38.2399 53.632 36.9919 46.908 35.7559C46.668 35.7199 46.42 35.7599 46.364 35.8079C45.256 36.8759 44.168 37.9639 43.068 39.0679L42.136 39.9999L42.14 40.0039ZM40.028 38.8719L38.576 37.4239C37.464 36.3159 36.38 35.2439 35.32 34.1439C35.056 33.8639 35.008 33.3559 35.076 33.0039C36.056 27.6239 37.056 22.2439 38.056 16.8599L38.188 16.1439C38.588 13.9679 38.992 11.7919 39.428 9.47194L39.832 7.29594L40.276 8.43594C40.324 8.55994 40.364 8.65194 40.396 8.72794C40.46 8.87194 40.488 8.95994 40.512 9.05194L40.86 10.9199C42.216 18.2239 43.572 25.5279 44.936 32.8359C45.064 33.5119 44.92 33.9919 44.456 34.4439C43.464 35.3999 42.5 36.3759 41.516 37.3759L40.032 38.8719H40.028ZM40.008 10.1679C39.612 12.2799 39.24 14.2719 38.872 16.2679L38.74 16.9879C37.74 22.3679 36.744 27.7439 35.76 33.1279C35.72 33.3559 35.776 33.6079 35.828 33.6599C36.884 34.7519 37.96 35.8239 39.072 36.9319L40.032 37.8879L41.02 36.8879C42.012 35.8839 42.98 34.8959 43.972 33.9359C44.268 33.6519 44.34 33.4079 44.256 32.9639C42.892 25.6599 41.536 18.3559 40.176 11.0479L40.016 10.1679H40.008Z" fill="black"/>
<path d="M59.708 20.1844C56.712 21.9924 53.72 23.8004 50.724 25.6084C49.688 26.2324 48.984 26.2004 48.588 25.5124C48.196 24.8364 48.484 24.2404 49.492 23.6324C53.756 21.0564 58.02 18.4804 62.284 15.9084C62.524 15.7644 62.776 15.5244 63.02 15.5244C63.444 15.5284 63.98 15.5684 64.248 15.8244C64.488 16.0524 64.48 16.5924 64.492 16.9964C64.496 17.1964 64.3 17.4044 64.18 17.6004C61.528 21.9964 58.872 26.3924 56.216 30.7884C56.096 30.9844 55.98 31.1924 55.824 31.3524C55.424 31.7684 54.928 31.8564 54.428 31.5804C53.896 31.2844 53.716 30.7844 53.904 30.2044C53.988 29.9404 54.156 29.7044 54.3 29.4644C56.012 26.6204 57.732 23.7764 59.444 20.9324C59.572 20.7204 59.688 20.5004 59.812 20.2844C59.776 20.2524 59.74 20.2164 59.708 20.1844Z" fill="black"/>
<path d="M54.996 32.092C54.752 32.092 54.5 32.024 54.26 31.892C53.584 31.516 53.328 30.844 53.572 30.096C53.652 29.852 53.78 29.644 53.908 29.432L58.972 21.036C56.284 22.656 53.592 24.284 50.904 25.904C50.196 26.336 49.608 26.476 49.128 26.36C48.776 26.272 48.492 26.044 48.284 25.688C47.792 24.832 48.132 24.04 49.304 23.328L62.1 15.604C62.156 15.568 62.216 15.528 62.272 15.488C62.48 15.336 62.72 15.168 63.004 15.168H63.016C63.508 15.176 64.116 15.224 64.484 15.564C64.808 15.876 64.82 16.428 64.836 16.872V16.984C64.844 17.252 64.688 17.468 64.564 17.64C64.532 17.684 64.496 17.732 64.472 17.776C61.82 22.176 59.168 26.568 56.508 30.964C56.364 31.204 56.24 31.416 56.068 31.596C55.756 31.92 55.38 32.084 54.992 32.084L54.996 32.092ZM59.748 19.756L60.2 20.168L60.116 20.456L59.988 20.688C59.908 20.832 59.828 20.972 59.744 21.116L54.504 29.804C54.392 29.98 54.292 30.152 54.236 30.316C54.092 30.748 54.22 31.068 54.596 31.28C54.952 31.476 55.28 31.424 55.568 31.116C55.684 31 55.776 30.84 55.876 30.672C58.572 26.216 61.224 21.82 63.88 17.42C63.916 17.364 63.956 17.3 64 17.244C64.048 17.172 64.136 17.052 64.144 17.004V16.896C64.136 16.632 64.12 16.188 64.008 16.08C63.876 15.952 63.54 15.884 63.016 15.88C62.948 15.88 62.78 15.996 62.684 16.068C62.612 16.116 62.54 16.164 62.472 16.212L49.676 23.936C48.496 24.656 48.752 25.104 48.892 25.348C49.004 25.536 49.136 25.652 49.3 25.692C49.592 25.768 50.02 25.636 50.544 25.32C53.54 23.512 56.532 21.704 59.528 19.9L59.752 19.768L59.748 19.756Z" fill="black"/>
<path d="M59.828 59.7162C59.188 58.6522 58.548 57.5882 57.904 56.5242C56.664 54.4682 55.392 52.4282 54.208 50.3402C53.996 49.9682 54.004 49.3282 54.184 48.9322C54.304 48.6642 54.904 48.4722 55.276 48.4962C55.584 48.5162 55.964 48.8402 56.144 49.1322C58.9 53.6442 61.628 58.1762 64.36 62.7042C64.68 63.2362 64.728 63.7762 64.248 64.2442C63.772 64.7042 63.248 64.6722 62.704 64.3442C58.156 61.6002 53.604 58.8602 49.056 56.1082C48.288 55.6442 48.076 54.9802 48.448 54.3762C48.828 53.7562 49.468 53.6482 50.26 54.1202C53.304 55.9442 56.344 57.7842 59.384 59.6202C59.492 59.6842 59.608 59.7442 59.72 59.8042C59.76 59.7722 59.796 59.7402 59.836 59.7122L59.828 59.7162Z" fill="black"/>
<path d="M63.464 64.9442C63.188 64.9442 62.872 64.8602 62.524 64.6482L58.732 62.3642C55.444 60.3842 52.156 58.4002 48.872 56.4082C48.38 56.1122 48.06 55.7242 47.952 55.2842C47.868 54.9202 47.936 54.5402 48.148 54.1962C48.64 53.4002 49.5 53.2682 50.432 53.8282C52.82 55.2562 55.196 56.6922 57.576 58.1282L58.976 58.9762L57.608 56.7042C57.264 56.1402 56.924 55.5802 56.588 55.0162C55.692 53.5482 54.768 52.0322 53.908 50.5122C53.652 50.0642 53.632 49.3082 53.864 48.7922C54.072 48.3482 54.824 48.0842 55.304 48.1522C55.74 48.1762 56.22 48.5842 56.44 48.9522C58.756 52.7482 61.052 56.5522 63.344 60.3522L64.656 62.5242C65.1 63.2602 65.044 63.9602 64.488 64.4962C64.248 64.7282 63.912 64.9402 63.468 64.9402L63.464 64.9442ZM49.352 54.1802C48.98 54.1802 48.816 54.4522 48.744 54.5682C48.628 54.7562 48.592 54.9402 48.632 55.1242C48.696 55.3762 48.904 55.6162 49.236 55.8162C52.52 57.8042 55.804 59.7842 59.092 61.7642L62.884 64.0522C63.46 64.3962 63.776 64.2162 64 64.0002C64.216 63.7922 64.416 63.4802 64.064 62.8922L62.748 60.7162C60.456 56.9122 58.164 53.1082 55.848 49.3202C55.696 49.0722 55.404 48.8562 55.256 48.8522C55.24 48.8482 55.22 48.8482 55.204 48.8482C54.92 48.8482 54.56 48.9962 54.5 49.0882C54.364 49.3922 54.372 49.9122 54.512 50.1682C55.368 51.6842 56.288 53.1922 57.184 54.6602C57.528 55.2202 57.868 55.7842 58.204 56.3442L60.288 59.8002L59.764 60.2322L59.208 59.9362L57.216 58.7322C54.836 57.2962 52.456 55.8562 50.076 54.4282C49.772 54.2522 49.54 54.1842 49.352 54.1842V54.1802Z" fill="black"/>
<path d="M20.296 59.8244C23.112 58.1244 25.932 56.4244 28.748 54.7244C29.032 54.5524 29.312 54.3724 29.6 54.2084C30.368 53.7684 31.056 53.8684 31.416 54.4724C31.784 55.0844 31.572 55.7324 30.804 56.2004C28.032 57.8844 25.252 59.5564 22.472 61.2324C20.832 62.2244 19.188 63.2084 17.556 64.2084C16.948 64.5804 16.344 64.8284 15.752 64.2284C15.188 63.6564 15.428 63.0684 15.78 62.4844C18.464 58.0484 21.148 53.6084 23.828 49.1684C24.116 48.6924 24.424 48.2724 25.064 48.2844C25.876 48.3044 26.4 49.0724 26.084 49.8524C25.932 50.2284 25.7 50.5724 25.488 50.9204C23.724 53.8484 21.952 56.7764 20.184 59.7004C20.22 59.7404 20.256 59.7804 20.296 59.8204V59.8244Z" fill="black"/>
<path d="M16.532 64.9396C16.204 64.9396 15.848 64.8195 15.504 64.4715C14.676 63.6355 15.22 62.7355 15.48 62.3035C18.168 57.8635 20.848 53.4275 23.528 48.9875C23.768 48.5915 24.168 47.9355 25.036 47.9355H25.072C25.584 47.9515 26.028 48.1915 26.292 48.6035C26.56 49.0075 26.6 49.5155 26.408 49.9915C26.276 50.3235 26.088 50.6275 25.904 50.9195L25.784 51.1115C24.504 53.2355 23.22 55.3635 21.936 57.4875L21.04 58.9715L28.912 54.2155C29.08 54.1115 29.256 54.0075 29.428 53.9075C30.352 53.3635 31.248 53.5315 31.716 54.2915C32.192 55.0915 31.912 55.9355 30.988 56.4995C29.272 57.5395 27.556 58.5755 25.844 59.6115L21.016 62.5276C19.924 63.1835 18.828 63.8435 17.74 64.5075C17.492 64.6635 17.044 64.9435 16.532 64.9435V64.9396ZM25.032 48.6355C24.632 48.6355 24.42 48.8676 24.124 49.3516C21.444 53.7916 18.764 58.2275 16.076 62.6675C15.684 63.3195 15.664 63.6396 16 63.9835C16.36 64.3435 16.696 64.3275 17.372 63.9075C18.46 63.2395 19.56 62.5795 20.652 61.9195L25.476 59.0075C27.196 57.9715 28.912 56.9355 30.62 55.8956C30.956 55.6876 31.472 55.2515 31.112 54.6435C30.764 54.0715 30.124 54.3075 29.772 54.5075C29.604 54.6035 29.44 54.7075 29.276 54.8035L28.924 55.0195L20.24 60.2595L20.044 60.0675C20 60.0195 19.96 59.9755 19.92 59.9315L19.752 59.7395L21.332 57.1195C22.616 54.9915 23.9 52.8676 25.184 50.7396L25.304 50.5435C25.476 50.2635 25.64 49.9995 25.752 49.7195C25.86 49.4555 25.836 49.1915 25.7 48.9755C25.556 48.7515 25.312 48.6396 25.024 48.6276L25.032 48.6355Z" fill="black"/>
<path d="M20.188 20.2997C21.996 23.2957 23.804 26.2917 25.604 29.2877C25.76 29.5477 25.928 29.8157 26.016 30.1037C26.184 30.6557 26.024 31.1357 25.512 31.4197C24.98 31.7157 24.472 31.6117 24.052 31.1677C23.916 31.0197 23.816 30.8357 23.712 30.6597C21.084 26.3077 18.456 21.9557 15.832 17.5997C15.712 17.4037 15.516 17.1957 15.524 16.9957C15.532 16.5917 15.524 16.0517 15.764 15.8237C16.032 15.5677 16.568 15.5397 16.996 15.5197C17.212 15.5117 17.444 15.7397 17.664 15.8717C22.016 18.4957 26.372 21.1237 30.724 23.7517C30.876 23.8437 31.036 23.9317 31.176 24.0397C31.752 24.4757 31.912 25.1317 31.548 25.6477C31.148 26.2157 30.612 26.3157 30 26.0197C29.772 25.9077 29.556 25.7677 29.336 25.6357C26.492 23.9197 23.652 22.1997 20.808 20.4837C20.64 20.3837 20.464 20.2917 20.292 20.1957C20.26 20.2317 20.224 20.2637 20.192 20.2997H20.188Z" fill="black"/>
<path d="M24.92 31.9359C24.52 31.9359 24.132 31.7599 23.804 31.4119C23.66 31.2599 23.564 31.0959 23.472 30.9359L23.42 30.8399L15.54 17.7839C15.512 17.7399 15.484 17.6959 15.452 17.6519C15.328 17.4759 15.172 17.2559 15.176 16.9879V16.8999C15.188 16.4479 15.2 15.8879 15.524 15.5719C15.876 15.2479 16.44 15.1999 16.984 15.1719H17.012C17.28 15.1719 17.496 15.3279 17.692 15.4679C17.74 15.5039 17.796 15.5439 17.848 15.5759L30.908 23.4559C31.116 23.5799 31.26 23.6639 31.388 23.7639C32.116 24.3159 32.308 25.1919 31.836 25.8519C31.352 26.5439 30.616 26.7079 29.848 26.3399C29.672 26.2519 29.5 26.1479 29.328 26.0479L21.036 21.0319C22.664 23.7239 24.284 26.4199 25.904 29.1159C26.092 29.4239 26.26 29.7039 26.352 30.0079C26.576 30.7279 26.324 31.3719 25.68 31.7319C25.428 31.8679 25.168 31.9399 24.916 31.9399L24.92 31.9359ZM17.004 15.8719C16.724 15.8799 16.192 15.9039 16.004 16.0759C15.888 16.1879 15.88 16.6599 15.876 16.9119V17.0039C15.88 17.0479 15.968 17.1719 16.024 17.2479C16.064 17.3039 16.1 17.3599 16.136 17.4159L24.076 30.5759C24.152 30.7079 24.228 30.8399 24.312 30.9279C24.632 31.2599 24.968 31.3199 25.348 31.1119C25.7 30.9159 25.816 30.6159 25.692 30.2039C25.62 29.9799 25.484 29.7519 25.348 29.5279C23.508 26.4719 21.7 23.4759 19.892 20.4799L19.748 20.2439L20.216 19.7479L20.656 19.9919C20.772 20.0559 20.884 20.1159 20.992 20.1839L29.692 25.4439C29.844 25.5319 29.996 25.6279 30.156 25.6999C30.628 25.9439 30.968 25.8519 31.268 25.4439C31.516 25.0879 31.396 24.6359 30.972 24.3159C30.86 24.2319 30.74 24.1599 30.616 24.0879L17.484 16.1639C17.416 16.1239 17.352 16.0759 17.284 16.0279C17.2 15.9719 17.06 15.8719 17.008 15.8679L17.004 15.8719Z" fill="black"/>
</svg>
