<svg width="100" height="101" viewBox="0 0 100 101" fill="none" xmlns="http://www.w3.org/2000/svg">
<g clip-path="url(#clip0_6_92)">
<path fill-rule="evenodd" clip-rule="evenodd" d="M49.86 82.89C48.77 82.89 47.67 82.84 46.57 82.73C43.62 82.43 41.27 80.47 39.57 76.91C38.48 74.62 36.14 73.15 33.61 73.15C33.35 73.15 33.1 73.16 32.87 73.19C32.28 73.26 31.7 73.29 31.15 73.29C28.09 73.29 25.76 72.29 24.24 70.33C22.78 68.45 21.52 66.39 20.51 64.23C19.51 62.09 19.82 60.01 20.26 58.65C20.69 57.31 21.45 55.95 22.53 54.6C23.47 53.43 23.96 52.01 23.96 50.5C23.96 48.99 23.46 47.57 22.53 46.4C21.45 45.05 20.69 43.69 20.26 42.35C19.82 40.99 19.51 38.91 20.51 36.77C21.52 34.61 22.78 32.56 24.24 30.67C25.76 28.71 28.09 27.71 31.15 27.71C31.7 27.71 32.27 27.74 32.87 27.81C33.11 27.84 33.35 27.85 33.61 27.85C36.14 27.85 38.48 26.37 39.57 24.09C41.27 20.52 43.63 18.56 46.57 18.27C47.66 18.16 48.77 18.11 49.86 18.11C50.95 18.11 52.06 18.17 53.15 18.27C56.1 18.57 58.45 20.53 60.15 24.09C61.24 26.37 63.57 27.85 66.1 27.85C66.36 27.85 66.61 27.84 66.84 27.81C67.43 27.74 68.01 27.71 68.56 27.71C71.62 27.71 73.95 28.71 75.48 30.67C76.94 32.56 78.2 34.61 79.21 36.77C80.21 38.92 79.9 40.99 79.46 42.35C79.03 43.68 78.27 45.05 77.19 46.4C76.25 47.57 75.76 48.99 75.76 50.5C75.76 52.01 76.26 53.43 77.19 54.6C78.27 55.95 79.03 57.32 79.46 58.65C79.9 60.01 80.21 62.08 79.21 64.23C78.2 66.39 76.94 68.44 75.48 70.33C73.96 72.29 71.63 73.29 68.56 73.29C68.01 73.29 67.44 73.26 66.84 73.19C66.6 73.16 66.35 73.15 66.1 73.15C63.57 73.15 61.24 74.63 60.15 76.91C58.45 80.47 56.1 82.43 53.15 82.73C52.05 82.84 50.95 82.89 49.86 82.89ZM33.62 66.84C38.57 66.84 43.14 69.73 45.27 74.19C45.64 74.97 46.03 75.58 46.44 75.99C46.73 76.28 46.98 76.43 47.21 76.45C48.1 76.54 48.99 76.58 49.86 76.58C50.73 76.58 51.63 76.54 52.52 76.45C52.8 76.43 53.09 76.19 53.29 75.99C53.7 75.57 54.09 74.97 54.46 74.19C56.59 69.72 61.16 66.84 66.11 66.84C66.61 66.84 67.1 66.87 67.55 66.92C67.91 66.96 68.26 66.98 68.58 66.98C69 66.98 69.38 66.94 69.69 66.87C70.09 66.78 70.35 66.65 70.49 66.46C71.67 64.94 72.68 63.29 73.49 61.55C73.56 61.41 73.63 61.14 73.45 60.59C73.25 59.98 72.84 59.27 72.25 58.53C70.44 56.26 69.45 53.41 69.45 50.5C69.45 47.59 70.45 44.74 72.25 42.47C72.83 41.74 73.26 41.01 73.45 40.41C73.65 39.79 73.53 39.53 73.49 39.45C72.67 37.71 71.66 36.05 70.49 34.54C70.35 34.36 70.08 34.22 69.69 34.13C69.38 34.06 69 34.02 68.59 34.02C68.27 34.02 67.92 34.04 67.54 34.08C67.06 34.13 66.58 34.16 66.1 34.16C61.16 34.16 56.58 31.27 54.45 26.81C54.08 26.03 53.68 25.42 53.28 25.01C52.85 24.58 52.6 24.56 52.51 24.55C51.63 24.46 50.74 24.42 49.85 24.42C48.96 24.42 48.07 24.47 47.2 24.55C46.91 24.57 46.63 24.81 46.43 25.01C46.02 25.42 45.63 26.03 45.26 26.81C43.13 31.28 38.56 34.16 33.61 34.16C33.13 34.16 32.64 34.13 32.17 34.08C31.8 34.04 31.45 34.02 31.13 34.02C30.71 34.02 30.34 34.06 30.03 34.13C29.63 34.22 29.37 34.35 29.23 34.54C28.05 36.06 27.04 37.71 26.23 39.45C26.16 39.59 26.09 39.86 26.27 40.42C26.47 41.03 26.88 41.74 27.47 42.48C29.28 44.75 30.27 47.6 30.27 50.51C30.27 53.42 29.27 56.27 27.47 58.54C26.89 59.27 26.46 60 26.27 60.6C26.07 61.22 26.19 61.48 26.23 61.57C27.04 63.31 28.06 64.96 29.23 66.48C29.37 66.66 29.64 66.8 30.03 66.89C30.34 66.96 30.72 67 31.14 67C31.46 67 31.81 66.98 32.17 66.94C32.62 66.89 33.11 66.86 33.61 66.86L33.62 66.84ZM49.86 63.4C42.75 63.4 36.96 57.61 36.96 50.5C36.96 43.39 42.75 37.6 49.86 37.6C56.97 37.6 62.76 43.39 62.76 50.5C62.76 57.61 56.97 63.4 49.86 63.4ZM49.86 43.91C46.23 43.91 43.27 46.87 43.27 50.5C43.27 54.13 46.23 57.09 49.86 57.09C53.49 57.09 56.45 54.13 56.45 50.5C56.45 46.87 53.49 43.91 49.86 43.91Z" fill="black"/>
<path d="M20.79 101C19.05 101 17.6 99.64 17.48 97.91L16.68 86.45C16.56 84.73 17.81 83.19 19.51 82.95L30.58 80.85C30.79 80.81 30.99 80.79 31.2 80.79C32.79 80.79 34.16 81.93 34.45 83.49C34.62 84.36 34.43 85.24 33.93 85.97C33.43 86.7 32.68 87.19 31.81 87.35L28.39 88C30.59 89.26 32.89 90.33 35.25 91.18C39.92 92.86 44.84 93.71 49.88 93.71C61.43 93.71 72.28 89.21 80.44 81.05C88.6 72.89 93.1 62.03 93.1 50.49C93.1 47.39 92.77 44.29 92.12 41.3C91.47 38.29 90.49 35.35 89.23 32.57C88.87 31.77 88.83 30.87 89.14 30.04C89.45 29.21 90.06 28.55 90.87 28.18C91.3 27.98 91.77 27.88 92.24 27.88C93.53 27.88 94.72 28.64 95.26 29.82C96.74 33.06 97.87 36.46 98.62 39.9C99.37 43.37 99.75 46.93 99.75 50.49C99.75 63.81 94.56 76.33 85.15 85.74C75.73 95.16 63.21 100.34 49.89 100.34C44.12 100.34 38.45 99.35 33.03 97.4C29.81 96.24 26.72 94.76 23.82 92.98L24.13 97.44C24.25 99.27 22.86 100.85 21.04 100.97C20.97 100.97 20.89 100.97 20.82 100.97L20.79 101Z" fill="black"/>
<path d="M7.5 73.12C6.21 73.12 5.02 72.36 4.49 71.18C3.01 67.93 1.88 64.53 1.13 61.1C0.38 57.64 0 54.07 0 50.51C0 37.19 5.19 24.67 14.6 15.25C24.02 5.83002 36.54 0.65002 49.86 0.65002C55.63 0.65002 61.3 1.64002 66.72 3.59002C69.94 4.75002 73.03 6.23002 75.93 8.01002L75.62 3.55002C75.56 2.66002 75.85 1.80002 76.43 1.14002C77.01 0.47002 77.82 0.0700195 78.71 0.0200195C78.78 0.0200195 78.86 0.0200195 78.93 0.0200195C80.67 0.0200195 82.12 1.38002 82.24 3.11002L83.04 14.57C83.16 16.29 81.91 17.83 80.21 18.08L69.14 20.18C68.93 20.22 68.73 20.24 68.52 20.24C66.93 20.24 65.56 19.1 65.27 17.54C64.93 15.75 66.12 14.01 67.92 13.67L71.35 13.02C69.15 11.76 66.86 10.69 64.49 9.84002C59.82 8.16002 54.9 7.31002 49.86 7.31002C38.31 7.31002 27.46 11.81 19.3 19.97C11.14 28.13 6.64 38.99 6.64 50.53C6.64 53.64 6.97 56.73 7.62 59.72C8.27 62.74 9.25 65.68 10.51 68.45C10.88 69.25 10.91 70.15 10.6 70.98C10.29 71.81 9.68 72.47 8.87 72.84C8.43 73.04 7.97 73.14 7.5 73.14V73.12Z" fill="black"/>
</g>
<defs>
<clipPath id="clip0_6_92">
<rect width="99.72" height="101" fill="white"/>
</clipPath>
</defs>
</svg>
