<svg width="135" height="135" viewBox="0 0 135 135" fill="none" xmlns="http://www.w3.org/2000/svg">
<g clip-path="url(#clip0_19_2633)">
<path d="M135 67.5C135 104.78 104.77 135 67.5 135C30.23 135 0 104.78 0 67.5C0 30.22 30.22 0 67.5 0C104.78 0 135 30.22 135 67.5Z" fill="#8EDAD7"/>
<path d="M67.5 109.22C55.06 109.22 43.68 102.93 37.04 92.3901L42.59 88.9001C48.01 97.5201 57.32 102.66 67.49 102.66C83.7 102.66 96.89 89.4701 96.89 73.2501C96.89 57.0301 83.7 43.85 67.49 43.85C53.73 43.85 41.96 53.1901 38.85 66.5701L32.46 65.09C36.26 48.72 50.67 37.3 67.49 37.3C87.32 37.3 103.45 53.4301 103.45 73.2601C103.45 93.0901 87.32 109.22 67.49 109.22H67.5Z" fill="white"/>
<path d="M53.81 31.46C54.75 30.74 54.79 29.37 53.95 28.53C48.16 22.77 38.86 22.03 32.19 27.13C25.47 32.27 23.78 41.56 27.96 48.67C28.52 49.62 29.84 49.8 30.72 49.13L53.81 31.47V31.46Z" fill="white"/>
<path d="M81.18 31.46C80.24 30.74 80.2 29.37 81.04 28.53C86.83 22.77 96.13 22.03 102.8 27.13C109.52 32.27 111.21 41.56 107.03 48.67C106.47 49.62 105.15 49.8 104.27 49.13L81.18 31.47V31.46Z" fill="white"/>
<path d="M53.94 69.1101H11.01C9.19998 69.1101 7.72998 67.6401 7.72998 65.8301C7.72998 64.0201 9.19998 62.55 11.01 62.55H53.93C55.74 62.55 57.21 64.0201 57.21 65.8301C57.21 67.6401 55.74 69.1101 53.93 69.1101H53.94Z" fill="white"/>
<path d="M22.7 82.53C21.11 82.53 19.8 81.26 19.77 79.66C19.74 78.04 21.02 76.7 22.64 76.67L53.87 76.03C55.38 76.16 56.83 77.28 56.86 78.9C56.89 80.52 55.61 81.86 53.99 81.89L22.76 82.53H22.7Z" fill="white"/>
<path d="M53.94 93.08H33.96C32.61 93.08 31.52 91.99 31.52 90.64C31.52 89.29 32.61 88.2 33.96 88.2H53.94C55.29 88.2 56.38 89.29 56.38 90.64C56.38 91.99 55.29 93.08 53.94 93.08Z" fill="white"/>
<path d="M67.5 86.14C66.63 86.14 65.92 85.43 65.92 84.56V71.6C65.92 70.73 66.63 70.02 67.5 70.02H80.37C81.24 70.02 81.95 70.73 81.95 71.6C81.95 72.47 81.24 73.18 80.37 73.18H69.08V84.57C69.08 85.44 68.37 86.15 67.5 86.15V86.14Z" fill="white"/>
<path d="M93.44 112.8C92.39 112.8 91.36 112.3 90.73 111.37L84.01 101.54C82.99 100.04 83.37 98 84.87 96.98C86.37 95.96 88.41 96.34 89.43 97.84L96.15 107.67C97.17 109.17 96.79 111.21 95.29 112.23C94.72 112.62 94.08 112.8 93.44 112.8Z" fill="white"/>
<path d="M33.26 112.8C32.62 112.8 31.98 112.61 31.41 112.23C29.92 111.21 29.53 109.17 30.55 107.67L37.27 97.84C38.29 96.34 40.33 95.96 41.83 96.98C43.32 98 43.71 100.04 42.69 101.54L35.97 111.37C35.33 112.3 34.3 112.8 33.26 112.8Z" fill="white"/>
</g>
<defs>
<clipPath id="clip0_19_2633">
<rect width="135" height="135" fill="white"/>
</clipPath>
</defs>
</svg>
