<svg width="135" height="135" viewBox="0 0 135 135" fill="none" xmlns="http://www.w3.org/2000/svg">
<g clip-path="url(#clip0_19_2597)">
<path d="M135 67.5C135 104.78 104.77 135 67.5 135C30.23 135 0 104.78 0 67.5C0 30.22 30.22 0 67.5 0C104.78 0 135 30.22 135 67.5Z" fill="#8EDAD7"/>
<path d="M67.5 66.1699C65.44 66.1699 63.78 64.4999 63.78 62.4499V24.9099C63.78 22.8499 65.45 21.1899 67.5 21.1899C69.55 21.1899 71.22 22.8599 71.22 24.9099V62.4599C71.22 64.5199 69.55 66.1799 67.5 66.1799V66.1699Z" fill="white"/>
<path d="M84.24 64.7C83.29 64.7 82.33 64.34 81.61 63.61C80.15 62.16 80.15 59.8 81.61 58.35L102.22 37.74C103.67 36.28 106.03 36.28 107.48 37.74C108.94 39.19 108.94 41.55 107.48 43L86.87 63.61C86.14 64.34 85.19 64.7 84.24 64.7Z" fill="white"/>
<path d="M51.83 65.78C50.88 65.78 49.92 65.42 49.2 64.69L27.52 43.01C26.06 41.56 26.06 39.2 27.52 37.75C28.97 36.29 31.33 36.29 32.78 37.75L54.46 59.43C55.92 60.88 55.92 63.24 54.46 64.69C53.73 65.42 52.78 65.78 51.83 65.78Z" fill="white"/>
<path d="M67.5 97.1599C61.48 97.1599 55.46 95.4799 50.09 92.1299C42.06 87.1199 32.78 85.0299 23.21 86.0099C20.8 86.2699 18.65 84.5299 18.4 82.1199C18.14 79.7199 19.89 77.5599 22.29 77.3099C33.83 76.0899 45.04 78.6499 54.74 84.7099C62.62 89.6299 72.41 89.6299 80.28 84.7099C89.99 78.6499 101.21 76.0799 112.73 77.3099C115.13 77.5699 116.87 79.7199 116.62 82.1199C116.37 84.5199 114.26 86.2799 111.81 86.0099C102.26 85.0199 92.95 87.1199 84.93 92.1299C79.56 95.4899 73.54 97.1599 67.52 97.1599H67.5Z" fill="white"/>
</g>
<defs>
<clipPath id="clip0_19_2597">
<rect width="135" height="135" fill="white"/>
</clipPath>
</defs>
</svg>
