<svg width="135" height="135" viewBox="0 0 135 135" fill="none" xmlns="http://www.w3.org/2000/svg">
<g clip-path="url(#clip0_19_2657)">
<path d="M67.5 135C104.779 135 135 104.779 135 67.5C135 30.2208 104.779 0 67.5 0C30.2208 0 0 30.2208 0 67.5C0 104.779 30.2208 135 67.5 135Z" fill="#1DB5AF"/>
<path d="M48.73 105.66C30.38 105.66 15.46 90.7396 15.46 72.3896C15.46 54.0396 30.39 39.1196 48.73 39.1196C67.07 39.1196 82 54.0496 82 72.3896C82 90.7296 67.08 105.66 48.73 105.66ZM48.73 46.5596C34.49 46.5596 22.9 58.1496 22.9 72.3896C22.9 86.6296 34.49 98.2196 48.73 98.2196C62.97 98.2196 74.56 86.6296 74.56 72.3896C74.56 58.1496 62.97 46.5596 48.73 46.5596Z" fill="white"/>
<path d="M86.27 105.66C67.92 105.66 53 90.7396 53 72.3896C53 54.0396 67.92 39.1196 86.27 39.1196C104.62 39.1196 119.54 54.0496 119.54 72.3896C119.54 90.7296 104.61 105.66 86.27 105.66ZM86.27 46.5596C72.03 46.5596 60.44 58.1496 60.44 72.3896C60.44 86.6296 72.03 98.2196 86.27 98.2196C100.51 98.2196 112.1 86.6296 112.1 72.3896C112.1 58.1496 100.51 46.5596 86.27 46.5596Z" fill="white"/>
<path d="M67.5 82.8398C49.15 82.8398 34.23 67.9198 34.23 49.5698C34.23 31.2198 49.15 16.2998 67.5 16.2998C85.85 16.2998 100.77 31.2298 100.77 49.5698C100.77 67.9098 85.84 82.8398 67.5 82.8398ZM67.5 23.7398C53.26 23.7398 41.67 35.3298 41.67 49.5698C41.67 63.8098 53.26 75.3998 67.5 75.3998C81.74 75.3998 93.33 63.8098 93.33 49.5698C93.33 35.3298 81.74 23.7398 67.5 23.7398Z" fill="white"/>
</g>
<defs>
<clipPath id="clip0_19_2657">
<rect width="135" height="135" fill="white"/>
</clipPath>
</defs>
</svg>
