<svg width="200" height="199" viewBox="0 0 200 199" fill="none" xmlns="http://www.w3.org/2000/svg">
<path d="M100 12.4375C82.7807 12.4375 65.948 17.5436 51.6307 27.1102C37.3133 36.6767 26.1543 50.274 19.5647 66.1826C12.9752 82.0912 11.251 99.5966 14.6104 116.485C17.9697 133.374 26.2616 148.887 38.4375 161.062C50.6134 173.238 66.1265 181.53 83.0149 184.89C99.9034 188.249 117.409 186.525 133.317 179.935C149.226 173.346 162.823 162.187 172.39 147.869C181.956 133.552 187.062 116.719 187.062 99.5C187.062 76.4096 177.89 54.2649 161.562 37.9375C145.235 21.6101 123.09 12.4375 100 12.4375ZM100 179.971C84.0844 179.971 68.5262 175.251 55.2929 166.409C42.0596 157.567 31.7455 144.999 25.6548 130.295C19.5642 115.591 17.9706 99.4107 21.0756 83.801C24.1806 68.1912 31.8446 53.8527 43.0987 42.5987C54.3527 31.3447 68.6912 23.6806 84.301 20.5756C99.9107 17.4706 116.091 19.0642 130.795 25.1548C145.499 31.2455 158.067 41.5596 166.909 54.7929C175.751 68.0262 180.471 83.5844 180.471 99.5C180.372 120.812 171.863 141.223 156.793 156.293C141.723 171.363 121.312 179.872 100 179.971Z" fill="#44D62C"/>
<path fill-rule="evenodd" clip-rule="evenodd" d="M53.1106 81.4656H79.5403V117.286H53.1106V81.4656Z" fill="#44D62C"/>
<path fill-rule="evenodd" clip-rule="evenodd" d="M86.1322 81.4656H112.5V117.286H86.1322V81.4656Z" fill="#44D62C"/>
<path fill-rule="evenodd" clip-rule="evenodd" d="M118.967 81.4656H145.646V117.286H118.967V81.4656Z" fill="#44D62C"/>
<path fill-rule="evenodd" clip-rule="evenodd" d="M164.924 87.0625V111.689H158.332V87.0625H164.924Z" fill="#44D62C"/>
<path d="M43.4716 72.8215H155.844V126.178H43.4716V72.8215Z" stroke="#44D62C" stroke-miterlimit="8"/>
</svg>
