<svg width="174" height="168" viewBox="0 0 174 168" fill="none" xmlns="http://www.w3.org/2000/svg">
<g clip-path="url(#clip0_2001_166)">
<path d="M30.0277 152.317C11.2374 135.818 0.5 112.052 0.5 87.1068C0.5 39.247 39.3902 0.356812 87.25 0.356812C135.11 0.356812 174 39.247 174 87.1068C174 111.855 163.394 135.49 144.865 151.924L140.544 147.013C157.632 131.824 167.453 109.956 167.453 87.0413C167.453 42.8479 131.443 6.83851 87.25 6.83851C43.0566 6.83851 7.04717 42.9134 7.04717 87.1068C7.04717 110.153 16.9989 132.151 34.3489 147.406L30.0277 152.317Z" fill="#44D62C"/>
<path d="M53.663 167.113C53.2047 167.113 52.7464 166.982 52.2881 166.786C25.903 154.674 7.50544 130.318 3.11884 101.707C2.92242 100.398 3.51167 99.1536 4.62469 98.4334C8.35657 96.0765 12.4813 94.3087 16.737 93.1957C20.3379 92.2791 23.9388 91.8208 27.4743 91.8208C50.8477 91.8208 70.1619 128.092 70.1619 134.508C70.1619 141.972 68.1977 149.37 64.4003 155.852C62.1088 159.78 59.2281 163.316 55.8236 166.328C55.2343 166.851 54.4487 167.179 53.663 167.179V167.113ZM9.9279 102.82C14.4454 127.634 30.3551 148.716 53.0083 159.911C55.2343 157.685 57.133 155.197 58.7043 152.513C61.9124 147.013 63.5492 140.794 63.5492 134.443C63.0254 130.056 46.5266 98.3025 27.4088 98.3025C24.4626 98.3025 21.3854 98.6953 18.3083 99.481C15.362 100.267 12.5468 101.38 9.86242 102.82H9.9279Z" fill="#44D62C"/>
<path d="M121.884 167.113C121.099 167.113 120.313 166.851 119.724 166.262C116.319 163.25 113.439 159.715 111.147 155.787C107.415 149.305 105.386 141.907 105.386 134.443C105.386 128.027 124.7 91.7553 148.073 91.7553C151.543 91.7553 155.144 92.2136 158.811 93.1302C163.132 94.2432 167.191 96.011 170.988 98.368C172.101 99.0881 172.691 100.332 172.494 101.642C168.108 130.318 149.71 154.674 123.259 166.786C122.801 166.982 122.343 167.113 121.884 167.113ZM148.073 98.3025C128.955 98.3025 112.391 130.056 111.933 134.574C111.933 140.794 113.635 147.013 116.778 152.513C118.349 155.263 120.248 157.751 122.474 159.911C145.127 148.716 161.102 127.634 165.62 102.82C162.935 101.38 160.12 100.201 157.174 99.481C154.031 98.6953 151.085 98.3025 148.073 98.3025Z" fill="#44D62C"/>
<path d="M40.1758 39.7708L35.5273 35.1878C49.2109 21.1768 67.6085 13.4512 87.1845 13.4512C106.761 13.4512 124.634 20.9804 138.252 34.5985L133.604 39.247C121.164 26.8074 104.665 19.9983 87.119 19.9983C69.5726 19.9983 52.6155 27.0038 40.1104 39.7708H40.1758Z" fill="#44D62C"/>
<path d="M61.2577 148.454C37.0332 107.01 16.7369 99.4155 16.5405 99.35L18.6356 93.1302C19.5522 93.4575 41.2234 101.183 66.8883 145.115L61.2577 148.388V148.454Z" fill="#44D62C"/>
<path d="M114.617 148.454L108.987 145.18C134.651 101.249 156.323 93.523 157.239 93.1957L159.334 99.4155C159.334 99.4155 138.842 107.01 114.617 148.519V148.454Z" fill="#44D62C"/>
</g>
<defs>
<clipPath id="clip0_2001_166">
<rect width="173.5" height="166.756" fill="white" transform="translate(0.5 0.356812)"/>
</clipPath>
</defs>
</svg>
