<svg width="174" height="174" viewBox="0 0 174 174" fill="none" xmlns="http://www.w3.org/2000/svg">
<g clip-path="url(#clip0_2001_176)">
<path d="M156.134 88.7929C156.134 66.3459 137.875 48.0872 115.428 48.0872C92.9813 48.0872 74.7227 66.3459 74.7227 88.7929C74.7227 100.507 79.7618 111.633 88.5966 119.42L88.7275 119.289C91.7379 122.038 95.2064 124.459 99.0675 126.226C99.5256 126.423 99.9837 126.554 100.442 126.554C101.227 126.554 102.012 126.292 102.601 125.703C104.238 124.198 105.677 122.496 106.79 120.533C108.622 117.326 109.604 113.727 109.604 110.062C109.604 106.724 100.638 89.1201 88.6621 89.1201C86.9605 89.1201 85.1936 89.3819 83.4266 89.7746C82.7722 89.9709 82.1177 90.2327 81.3979 90.4944C81.3979 89.9709 81.3324 89.3819 81.3324 88.8584C81.3324 70.0107 96.6461 54.697 115.494 54.697C134.341 54.697 149.655 70.0107 149.655 88.8584C149.655 89.3819 149.655 89.84 149.59 90.3635C149.066 90.1672 148.543 89.9709 148.019 89.84C146.252 89.3819 144.485 89.1201 142.784 89.1201C130.742 89.1201 121.842 106.724 121.842 110.062C121.842 113.727 122.823 117.326 124.656 120.533C125.768 122.496 127.208 124.198 128.844 125.703C129.433 126.226 130.219 126.554 131.004 126.554C131.462 126.554 131.92 126.423 132.378 126.226C141.933 121.842 149.262 113.989 153.058 104.499C155.087 99.591 156.199 94.2901 156.199 88.8584L156.134 88.7929ZM84.9972 96.0571C86.2407 95.7299 87.4841 95.599 88.5966 95.599C95.599 95.599 102.536 108.164 102.994 109.997C102.994 112.549 102.34 115.036 101.031 117.195C100.638 117.915 100.18 118.57 99.6565 119.159C91.018 114.512 84.8664 106.332 82.7722 96.777C83.492 96.4498 84.2119 96.188 84.9318 95.9917L84.9972 96.0571ZM131.593 119.224C131.069 118.57 130.611 117.915 130.219 117.195C128.975 115.036 128.255 112.549 128.255 110.389C128.713 108.164 135.65 95.599 142.718 95.599C143.896 95.599 145.074 95.7299 146.318 96.0571C147.037 96.2534 147.823 96.5152 148.477 96.8424C148.215 98.0204 147.888 99.1329 147.496 100.311C147.43 100.507 147.365 100.704 147.234 100.965C146.972 101.685 146.71 102.34 146.383 102.994C144.42 107.248 141.606 111.174 138.006 114.316L138.137 114.447C136.108 116.279 133.949 117.85 131.527 119.159L131.593 119.224Z" fill="#44D62C"/>
<path d="M87.2877 0.51001C39.4487 0.51001 0.51001 39.4487 0.51001 87.2877C0.51001 113.138 11.9626 136.305 29.894 152.207C29.894 152.207 29.9595 152.338 30.0249 152.404C30.1558 152.535 30.3521 152.6 30.483 152.731C38.0744 159.275 46.7784 164.576 56.2676 168.241C56.3331 168.241 56.464 168.306 56.5294 168.372C59.6052 169.55 62.7465 170.532 65.9532 171.317C66.0187 171.317 66.0841 171.317 66.1496 171.317C66.1496 171.317 66.1496 171.317 66.215 171.317C72.9557 173.018 79.9581 174 87.1568 174C134.996 174 173.935 135.061 173.935 87.2223C173.935 39.3833 135.061 0.51001 87.2877 0.51001ZM52.8646 62.223H46.3203V50.2469C46.3203 48.4145 47.76 46.9747 49.5924 46.9747C51.4248 46.9747 52.8646 48.4145 52.8646 50.2469V62.223ZM46.3203 68.7673H52.8646V84.0156H46.3203V68.7673ZM46.3203 90.5599H52.8646V120.926H46.3203V90.5599ZM59.4089 127.47H63.4664L63.6627 163.856C53.3227 160.715 43.7025 155.414 35.4567 148.412L35.653 127.404H59.4089V127.47ZM87.2877 167.456C81.4633 167.456 75.7697 166.801 70.2725 165.623V127.666C70.2725 123.936 67.2621 120.926 63.5318 120.926H59.4744V50.2469C59.4744 44.8151 55.0897 40.4304 49.6579 40.4304C44.2261 40.4304 39.8414 44.8151 39.8414 50.2469V120.926H35.7185C31.9882 120.926 28.9778 123.936 28.9778 127.666V142.195C15.4311 127.797 7.11978 108.557 7.11978 87.2877C7.05433 43.0481 43.0481 7.05433 87.2877 7.05433C131.527 7.05433 167.521 43.0481 167.521 87.2877C167.521 131.527 131.527 167.521 87.2877 167.521V167.456Z" fill="#44D62C"/>
</g>
<defs>
<clipPath id="clip0_2001_176">
<rect width="173.49" height="173.49" fill="white" transform="translate(0.51001 0.51001)"/>
</clipPath>
</defs>
</svg>
