<svg width="200" height="199" viewBox="0 0 200 199" fill="none" xmlns="http://www.w3.org/2000/svg">
<g clip-path="url(#clip0_2001_156)">
<path d="M99.5 185.562C82.2806 185.562 65.448 180.456 51.1306 170.89C36.8133 161.323 25.6543 147.726 19.0647 131.817C12.4752 115.909 10.751 98.4034 14.1104 81.5149C17.4697 64.6265 25.7616 49.1134 37.9375 36.9375C50.1134 24.7616 65.6265 16.4697 82.5149 13.1104C99.4034 9.75103 116.909 11.4752 132.817 18.0647C148.726 24.6543 162.323 35.8133 171.89 50.1306C181.456 64.448 186.562 81.2806 186.562 98.5C186.562 121.59 177.39 143.735 161.062 160.062C144.735 176.39 122.59 185.562 99.5 185.562ZM99.5 18.0294C83.5844 18.0294 68.0262 22.7489 54.7929 31.5911C41.5596 40.4333 31.2454 53.0011 25.1548 67.7052C19.0642 82.4093 17.4706 98.5892 20.5756 114.199C23.6806 129.809 31.3446 144.147 42.5987 155.401C53.8527 166.655 68.1912 174.319 83.8009 177.424C99.4107 180.529 115.591 178.936 130.295 172.845C144.999 166.755 157.567 156.44 166.409 143.207C175.251 129.974 179.971 114.416 179.971 98.5C179.954 77.1629 171.471 56.7044 156.383 41.6168C141.296 26.5292 120.837 18.0458 99.5 18.0294Z" fill="#44D62C"/>
<path d="M61.0681 79.8438C60.4066 79.8438 59.7516 79.974 59.1404 80.2272C58.5293 80.4803 57.974 80.8514 57.5062 81.3191C57.0385 81.7869 56.6675 82.3422 56.4143 82.9533C56.1612 83.5644 56.0309 84.2194 56.0309 84.8809V115.042C56.0309 116.378 56.5616 117.659 57.5062 118.604C58.4509 119.548 59.7321 120.079 61.0681 120.079C62.404 120.079 63.6852 119.548 64.6299 118.604C65.5746 117.659 66.1053 116.378 66.1053 115.042V84.9431C66.1135 84.2764 65.9893 83.6147 65.7398 82.9964C65.4904 82.378 65.1206 81.8154 64.6521 81.341C64.1835 80.8667 63.6254 80.4901 63.0102 80.233C62.395 79.976 61.7348 79.8437 61.0681 79.8438Z" fill="#44D62C"/>
<path d="M141.539 89.9803C140.88 89.9802 140.228 90.1109 139.62 90.3648C139.013 90.6187 138.462 90.9908 137.999 91.4593C137.536 91.9279 137.171 92.4837 136.924 93.0945C136.678 93.7053 136.556 94.3589 136.564 95.0175V105.03C136.485 105.734 136.556 106.447 136.772 107.122C136.987 107.797 137.343 108.419 137.816 108.947C138.288 109.475 138.867 109.898 139.514 110.187C140.161 110.476 140.861 110.626 141.57 110.626C142.278 110.626 142.979 110.476 143.626 110.187C144.273 109.898 144.852 109.475 145.324 108.947C145.797 108.419 146.152 107.797 146.368 107.122C146.584 106.447 146.655 105.734 146.576 105.03V95.0175C146.576 93.6815 146.045 92.4003 145.101 91.4556C144.156 90.511 142.875 89.9803 141.539 89.9803Z" fill="#44D62C"/>
<path d="M121.452 74.8687C120.116 74.8687 118.835 75.3994 117.89 76.3441C116.946 77.2887 116.415 78.57 116.415 79.9059V120.141C116.415 121.477 116.946 122.758 117.89 123.703C118.835 124.648 120.116 125.178 121.452 125.178C122.788 125.178 124.069 124.648 125.014 123.703C125.959 122.758 126.489 121.477 126.489 120.141V79.8437C126.473 78.5186 125.935 77.2533 124.992 76.322C124.049 75.3908 122.777 74.8686 121.452 74.8687Z" fill="#44D62C"/>
<path d="M101.303 49.6828C99.9725 49.6989 98.7006 50.2348 97.7594 51.176C96.8183 52.1172 96.2824 53.3891 96.2662 54.72V145.327C96.2662 146.663 96.7969 147.944 97.7416 148.889C98.6863 149.834 99.9675 150.364 101.303 150.364C102.639 150.364 103.921 149.834 104.865 148.889C105.81 147.944 106.341 146.663 106.341 145.327V54.9687C106.374 54.2866 106.269 53.6048 106.031 52.9646C105.793 52.3245 105.427 51.7394 104.956 51.245C104.485 50.7506 103.918 50.3571 103.29 50.0886C102.662 49.82 101.986 49.682 101.303 49.6828Z" fill="#44D62C"/>
<path d="M81.1547 64.7944C80.4961 64.7943 79.844 64.925 79.2363 65.1789C78.6286 65.4328 78.0774 65.8049 77.6146 66.2734C77.1518 66.742 76.7867 67.2978 76.5404 67.9086C76.294 68.5194 76.1714 69.173 76.1797 69.8316V130.216C76.101 130.92 76.1719 131.633 76.3876 132.308C76.6033 132.983 76.9591 133.605 77.4315 134.133C77.904 134.661 78.4826 135.084 79.1295 135.373C79.7764 135.662 80.4771 135.812 81.1857 135.812C81.8944 135.812 82.5951 135.662 83.242 135.373C83.8889 135.084 84.4675 134.661 84.94 134.133C85.4124 133.605 85.7681 132.983 85.9839 132.308C86.1996 131.633 86.2705 130.92 86.1918 130.216V69.8316C86.1918 68.4956 85.6611 67.2144 84.7165 66.2697C83.7718 65.3251 82.4906 64.7944 81.1547 64.7944Z" fill="#44D62C"/>
</g>
<defs>
<clipPath id="clip0_2001_156">
<rect width="199" height="199" fill="white" transform="translate(0.5)"/>
</clipPath>
</defs>
</svg>
