<svg width="661" height="108" viewBox="0 0 661 108" fill="none" xmlns="http://www.w3.org/2000/svg">
<g clip-path="url(#clip0_2001_90)">
<path d="M23.8066 41.2928C36.6106 41.2928 43.3427 46.3268 43.3427 58.02C43.3427 66.5705 40.2135 70.6552 34.9024 73.129C40.6872 75.1283 45.338 79.1195 45.338 88.6193C45.338 102.491 37.3714 107.058 25.041 107.058H0V41.2928H23.8066ZM7.29915 47.7507V70.4611H24.1798C32.4335 70.4611 35.8426 66.5633 35.8426 58.6744C35.8426 50.7855 31.8593 47.7435 23.5123 47.7435H7.29915V47.7507ZM7.29915 76.8326V100.593H24.7468C32.7134 100.593 37.9312 98.0256 37.9312 88.3316C37.9312 78.163 29.3043 76.8326 24.2731 76.8326H7.29915Z" fill="white"/>
<path d="M77.2978 41.2928H93.231L111.253 107.051H104.047L99.3029 90.1366H71.2331L66.489 107.051H59.2832L77.305 41.2928H77.2978ZM72.8408 83.5781H97.688L87.7262 47.5637H82.7955L72.8336 83.5781H72.8408Z" fill="white"/>
<path d="M136.48 81.8666V107.051H129.181V41.2928H153.462C167.213 41.2928 174.419 47.3767 174.419 61.2489C174.419 70.9429 170.622 77.6884 162.376 80.3492L174.986 107.051H166.926L155.069 81.8666H136.48ZM153.454 47.7507H136.48V75.4015H153.555C163.416 75.4015 166.926 69.5118 166.926 61.2417C166.926 52.2165 162.655 47.7507 153.462 47.7507H153.454Z" fill="white"/>
<path d="M202.489 81.8666V107.051H195.189V41.2928H219.47C233.221 41.2928 240.427 47.3767 240.427 61.2489C240.427 70.9429 236.63 77.6884 228.384 80.3492L240.994 107.051H232.934L221.077 81.8666H202.489ZM219.463 47.7507H202.489V75.4015H219.563C229.424 75.4015 232.934 69.5118 232.934 61.2417C232.934 52.2165 228.664 47.7507 219.47 47.7507H219.463Z" fill="white"/>
<path d="M272.767 41.2928H288.7L306.722 107.051H299.516L294.772 90.1366H266.702L261.958 107.051H254.753L272.774 41.2928H272.767ZM268.31 83.5781H293.157L283.203 47.5637H278.272L268.31 83.5781Z" fill="white"/>
<path d="M363.156 106.008C358.512 106.957 351.299 108 345.041 108C325.411 108 321.048 96.0264 321.048 74.3588C321.048 52.6912 325.318 40.3364 345.041 40.3364C351.773 40.3364 358.979 41.5733 363.156 42.4291L362.869 48.6065C358.599 47.8442 350.919 46.8949 345.794 46.8949C331.189 46.8949 328.627 55.6396 328.627 74.3588C328.627 93.0779 330.995 101.441 345.981 101.441C351.292 101.441 358.311 100.586 362.862 99.7299L363.149 106.001L363.156 106.008Z" fill="white"/>
<path d="M404.884 101.542C415.126 101.542 420.91 97.5509 420.91 87.2889V41.2928H428.116V87.0947C428.116 102.11 419.863 108 404.884 108C389.905 108 382.218 102.204 382.218 87.0947V41.2928H389.518V87.2889C389.518 97.5509 395.209 101.542 404.884 101.542Z" fill="white"/>
<path d="M451.356 107.051V41.2928H474.782C493.845 41.2928 499.062 54.5969 499.062 73.2225C499.062 91.8482 494.132 107.051 474.782 107.051H451.356ZM474.782 47.7507H458.662V100.586H474.782C488.44 100.586 491.569 87.3751 491.569 73.2153C491.569 59.0555 488.44 47.7507 474.782 47.7507Z" fill="white"/>
<path d="M531.022 41.2928H546.955L564.977 107.051H557.771L553.027 90.1366H524.957L520.213 107.051H513.007L531.029 41.2928H531.022ZM526.565 83.5781H551.412L541.45 47.5637H536.52L526.558 83.5781H526.565Z" fill="white"/>
<path d="M636.433 69.4183L653.127 41.2928H661L640.796 74.6464L661 107.051H652.746L636.246 79.7811L619.459 107.051H611.585L631.882 74.8334L611.585 41.2857H619.839L636.433 69.4111V69.4183Z" fill="white"/>
<path d="M82.6878 21.1714H70.824L81.2021 2.59608L82.6878 0H79.7165H66.0081V2.59608H78.238L67.4866 21.1714L66.0081 23.7675H68.9723H81.2021L82.6878 21.1714Z" fill="#44D62C"/>
<path d="M115.674 0H98.9943V2.59608H114.188L115.674 0Z" fill="#44D62C"/>
<path d="M115.674 10.3987H98.9943V12.9948H114.188L115.674 10.3987Z" fill="#44D62C"/>
<path d="M115.674 21.1714H98.9943V23.7675H114.188L115.674 21.1714Z" fill="#44D62C"/>
<path d="M148.66 7.42869V5.94007C148.66 2.59608 146.069 0 142.732 0H131.98V23.3935H134.571V12.9948H139.387L145.316 23.3935H148.28L142.351 12.9948H142.725C146.062 12.9948 148.653 10.3987 148.653 7.42149L148.66 7.42869ZM134.571 2.59608H142.725C144.576 2.59608 146.062 4.0847 146.062 5.94007V7.42869C146.062 9.28406 144.576 10.7727 142.725 10.7727H134.571V2.59608Z" fill="#44D62C"/>
<path d="M16.7156 7.42869V5.94007C16.7156 2.59608 14.1174 0 10.7801 0H0.0358887V23.3935H2.62684V12.9948H7.44269L13.371 23.3935H16.3352L10.7729 12.9948H11.1461C14.1103 12.9948 16.7084 10.3987 16.7084 7.42149L16.7156 7.42869ZM2.62684 2.59608H10.7801C12.6318 2.59608 14.1174 4.0847 14.1174 5.94007V7.42869C14.1174 9.28406 12.6318 10.7727 10.7801 10.7727H2.62684V2.59608Z" fill="#44D62C"/>
<path d="M34.5005 23.7675L41.5413 7.05474L48.216 23.7675H50.807L42.6537 3.34399L41.5413 0L40.0628 3.34399L31.9096 23.7675H34.5005Z" fill="#44D62C"/>
<path d="M150.139 1.11466V0.373951H153.849V1.11466H152.363V5.19936H151.624V1.11466H150.139Z" fill="#44D62C"/>
<path d="M154.954 5.19936V0.373951H156.067L157.553 4.45865L158.665 0.373951H159.777V5.19936H159.404V1.11466H159.031L157.553 5.19936H157.179L155.701 1.11466V5.19936H154.954Z" fill="#44D62C"/>
</g>
<defs>
<clipPath id="clip0_2001_90">
<rect width="661" height="108" fill="white"/>
</clipPath>
</defs>
</svg>
