<svg width="130" height="130" viewBox="0 0 130 130" fill="none" xmlns="http://www.w3.org/2000/svg">
<path d="M100.078 53.6467C100.078 51.4497 101.868 49.66 104.065 49.66C106.262 49.66 108.052 51.4497 108.052 53.6467V76.3533C108.052 78.5503 106.262 80.34 104.065 80.34C101.868 80.34 100.078 78.5503 100.078 76.3533V53.6467ZM96.8413 53.6467V76.3533C96.8413 80.327 100.091 83.577 104.065 83.577C108.039 83.577 111.289 80.327 111.289 76.3533V53.6467C111.289 49.673 108.039 46.423 104.065 46.423C100.091 46.423 96.8413 49.673 96.8413 53.6467Z" fill="black"/>
<path d="M80.5436 37.6697C80.5436 35.4727 82.3333 33.683 84.5303 33.683C86.7273 33.683 88.517 35.4727 88.517 37.6697V92.3303C88.517 94.5273 86.7273 96.317 84.5303 96.317C82.3333 96.317 80.5436 94.5273 80.5436 92.3303V37.6697ZM77.3066 37.6697V92.3303C77.3066 96.304 80.5566 99.554 84.5303 99.554C88.504 99.554 91.754 96.304 91.754 92.3303V37.6697C91.754 33.696 88.504 30.446 84.5303 30.446C80.5566 30.446 77.3066 33.696 77.3066 37.6697Z" fill="black"/>
<path d="M61.0134 57.3257C61.0134 55.1287 62.803 53.339 65 53.339C67.197 53.339 68.9867 55.1287 68.9867 57.3257V72.6787C68.9867 74.8757 67.197 76.6653 65 76.6653C62.803 76.6653 61.0134 74.8757 61.0134 72.6787V57.3257ZM57.7764 57.3257V72.6787C57.7764 76.6523 61.0264 79.9023 65 79.9023C68.9737 79.9023 72.2237 76.6523 72.2237 72.6787V57.3257C72.2237 53.352 68.9737 50.102 65 50.102C61.0264 50.102 57.7764 53.352 57.7764 57.3257Z" fill="black"/>
<path d="M21.9484 56.823C21.9484 54.626 23.7381 52.8364 25.9351 52.8364C28.1321 52.8364 29.9218 54.626 29.9218 56.823V73.1727C29.9218 75.3697 28.1321 77.1593 25.9351 77.1593C23.7381 77.1593 21.9484 75.3697 21.9484 73.1727V56.823ZM18.7114 56.823V73.1727C18.7114 77.1463 21.9614 80.3963 25.9351 80.3963C29.9088 80.3963 33.1588 77.1463 33.1588 73.1727V56.823C33.1588 52.8494 29.9088 49.5993 25.9351 49.5993C21.9614 49.5993 18.7114 52.8494 18.7114 56.823Z" fill="black"/>
<path d="M41.4787 39.0953C41.4787 36.8983 43.2684 35.1087 45.4654 35.1087C47.6624 35.1087 49.452 36.8983 49.452 39.0953V90.9047C49.452 93.1017 47.6624 94.8913 45.4654 94.8913C43.2684 94.8913 41.4787 93.1017 41.4787 90.9047V39.0953ZM38.2417 39.0953V90.9047C38.2417 94.8783 41.4917 98.1283 45.4654 98.1283C49.439 98.1283 52.689 94.8783 52.689 90.9047V39.0953C52.689 35.1217 49.439 31.8717 45.4654 31.8717C41.4917 31.8717 38.2417 35.1217 38.2417 39.0953Z" fill="black"/>
</svg>
