<svg width="200" height="200" viewBox="0 0 200 200" fill="none" xmlns="http://www.w3.org/2000/svg">
<path d="M153.967 82.5333C153.967 79.1533 156.72 76.4 160.1 76.4C163.48 76.4 166.233 79.1533 166.233 82.5333V117.467C166.233 120.847 163.48 123.6 160.1 123.6C156.72 123.6 153.967 120.847 153.967 117.467V82.5333ZM148.987 82.5333V117.467C148.987 123.58 153.987 128.58 160.1 128.58C166.213 128.58 171.213 123.58 171.213 117.467V82.5333C171.213 76.42 166.213 71.42 160.1 71.42C153.987 71.42 148.987 76.42 148.987 82.5333Z" fill="black"/>
<path d="M123.913 57.9534C123.913 54.5734 126.666 51.82 130.046 51.82C133.426 51.82 136.18 54.5734 136.18 57.9534V142.047C136.18 145.427 133.426 148.18 130.046 148.18C126.666 148.18 123.913 145.427 123.913 142.047V57.9534ZM118.933 57.9534V142.047C118.933 148.16 123.933 153.16 130.046 153.16C136.16 153.16 141.16 148.16 141.16 142.047V57.9534C141.16 51.84 136.16 46.84 130.046 46.84C123.933 46.84 118.933 51.84 118.933 57.9534Z" fill="black"/>
<path d="M93.8667 88.1933C93.8667 84.8133 96.62 82.06 100 82.06C103.38 82.06 106.133 84.8133 106.133 88.1933V111.813C106.133 115.193 103.38 117.947 100 117.947C96.62 117.947 93.8667 115.193 93.8667 111.813V88.1933ZM88.8867 88.1933V111.813C88.8867 117.927 93.8867 122.927 100 122.927C106.113 122.927 111.113 117.927 111.113 111.813V88.1933C111.113 82.08 106.113 77.08 100 77.08C93.8867 77.08 88.8867 82.08 88.8867 88.1933Z" fill="black"/>
<path d="M33.7666 87.42C33.7666 84.04 36.52 81.2867 39.9 81.2867C43.28 81.2867 46.0333 84.04 46.0333 87.42V112.573C46.0333 115.953 43.28 118.707 39.9 118.707C36.52 118.707 33.7666 115.953 33.7666 112.573V87.42ZM28.7866 87.42V112.573C28.7866 118.687 33.7866 123.687 39.9 123.687C46.0133 123.687 51.0133 118.687 51.0133 112.573V87.42C51.0133 81.3067 46.0133 76.3067 39.9 76.3067C33.7866 76.3067 28.7866 81.3067 28.7866 87.42Z" fill="black"/>
<path d="M63.8135 60.1467C63.8135 56.7667 66.5668 54.0133 69.9468 54.0133C73.3268 54.0133 76.0802 56.7667 76.0802 60.1467V139.853C76.0802 143.233 73.3268 145.987 69.9468 145.987C66.5668 145.987 63.8135 143.233 63.8135 139.853V60.1467ZM58.8335 60.1467V139.853C58.8335 145.967 63.8335 150.967 69.9468 150.967C76.0602 150.967 81.0602 145.967 81.0602 139.853V60.1467C81.0602 54.0333 76.0602 49.0333 69.9468 49.0333C63.8335 49.0333 58.8335 54.0333 58.8335 60.1467Z" fill="black"/>
</svg>
