<svg width="114" height="114" viewBox="0 0 114 114" fill="none" xmlns="http://www.w3.org/2000/svg">
<path d="M20.9872 53.352C21.1886 51.9118 21.314 50.4526 21.599 49.0314C24.259 35.834 31.7336 26.467 44.0304 20.9646C44.7524 20.6416 45.4592 20.615 46.0558 21.2002C46.66 21.7892 46.6372 22.4922 46.3066 23.2218C44.9006 26.3378 43.9354 29.583 43.4984 32.9802C42.537 40.4358 43.772 47.5114 47.4466 54.0702C52.8806 63.7792 61.195 69.5514 72.1276 71.4552C78.105 72.4964 83.976 71.8162 89.6608 69.673C89.942 69.5666 90.227 69.4602 90.5082 69.35C91.2302 69.0726 91.9142 69.1068 92.4538 69.6996C92.9934 70.2924 92.9592 70.9764 92.6248 71.6718C91.3442 74.366 89.79 76.8968 87.9014 79.2072C82.0798 86.3208 74.666 90.8656 65.6296 92.5528C54.7806 94.5782 44.836 92.2298 35.9934 85.6482C28.249 79.8836 23.5712 72.1012 21.6598 62.6582C21.39 61.3282 21.295 59.964 21.1164 58.6188C21.0822 58.3718 21.029 58.1286 20.9834 57.8854C20.9834 56.373 20.9834 54.8606 20.9834 53.3482L20.9872 53.352ZM41.758 25.7184C29.7234 32.3418 21.8042 46.7856 24.9354 62.4872C27.8424 77.0754 40.1734 88.654 55.8598 89.9156C70.3872 91.086 82.4826 82.8552 87.6658 73.8188C73.3816 77.1134 60.6972 74.119 50.4676 63.441C40.2114 52.7326 37.8022 39.9076 41.758 25.7184Z" fill="black"/>
<path d="M54.3325 43.0046V40.3864L61.1383 30.704H54.7201V27.7628H65.4133V30.4266L58.6721 40.0672H65.6489V43.0084H54.3325V43.0046Z" fill="black"/>
<path d="M69.335 57V54.5832L73.9406 48.2714H69.6238V45.5658H77.9496V48.013L73.4086 54.2944H78.1738V57H69.335Z" fill="black"/>
<path d="M81.6963 43.0046V40.3864L88.5021 30.704H82.0839V27.7628H92.7771V30.4266L86.0359 40.0672H93.0127V43.0084H81.6963V43.0046Z" fill="black"/>
</svg>
