<svg width="62" height="56" viewBox="0 0 62 56" fill="none" xmlns="http://www.w3.org/2000/svg">
<path d="M0.31134 17.643C0.515007 16.5294 0.632007 15.394 0.931007 14.3064C2.82034 7.43371 6.98901 2.67138 14.0047 0.855713C19.339 -0.52662 24.11 0.920712 28.231 4.51738C29.219 5.37971 30.0813 6.38071 31.039 7.36438C31.3683 6.98305 31.7193 6.55838 32.092 6.15105C34.6573 3.32138 37.7297 1.33238 41.53 0.643381C46.1407 -0.192952 50.3397 0.925046 54.0663 3.68538C58.2827 6.80971 60.6703 11.0737 61.446 16.239C62.291 21.8594 60.9043 27.0464 58.2567 31.956C55.635 36.818 52.0167 40.8697 47.9 44.501C43.0553 48.7737 37.6733 52.262 32.0313 55.3777C31.3207 55.7677 30.6447 55.7547 29.934 55.3604C24.6993 52.4657 19.677 49.2547 15.1097 45.3764C10.1003 41.1254 5.76701 36.3197 2.91134 30.3224C1.58967 27.549 0.697007 24.6457 0.419674 21.5734C0.411007 21.4607 0.346007 21.3524 0.31134 21.2397C0.31134 20.0394 0.31134 18.8434 0.31134 17.643ZM23.2867 31.6744C23.4513 31.3537 23.5727 31.1284 23.6853 30.903C25.5313 27.211 27.386 23.519 29.2147 19.8227C29.5917 19.0644 30.1117 18.527 30.987 18.5227C31.8623 18.5227 32.3953 19.0514 32.768 19.814C33.7257 21.7684 34.718 23.701 35.667 25.6554C35.8707 26.0714 36.096 26.2274 36.5727 26.223C39.7707 26.2014 42.9643 26.21 46.1623 26.21C46.9423 26.21 47.7223 26.184 48.498 26.2274C49.5857 26.2924 50.3223 27.0854 50.2877 28.0864C50.2573 29.0744 49.4513 29.8414 48.3853 29.8457C43.909 29.8544 39.437 29.8544 34.9607 29.8457C34.146 29.8457 33.548 29.473 33.184 28.7407C32.5947 27.5664 32.0053 26.3877 31.4203 25.209C31.299 24.9664 31.1733 24.7281 31.0087 24.4074C30.857 24.6847 30.7487 24.8667 30.6533 25.0574C28.79 28.784 26.9223 32.5107 25.0677 36.2417C24.695 36.9957 24.1793 37.5287 23.291 37.5244C22.4027 37.5244 21.8957 36.9827 21.523 36.2287C20.0193 33.191 18.494 30.162 16.9773 27.1287C16.531 26.2404 16.0847 25.3477 15.6037 24.39C15.4737 24.6284 15.3783 24.7974 15.2917 24.9707C14.6763 26.2014 14.0523 27.4277 13.4457 28.6627C13.0513 29.4687 12.4187 29.8457 11.5303 29.8414C10.551 29.837 9.57167 29.8414 8.59234 29.8414C8.00734 29.8414 7.41801 29.8414 6.75934 29.8414C6.85467 30.0407 6.90234 30.149 6.95867 30.2487C8.86101 33.802 11.3657 36.896 14.2343 39.7084C19.1223 44.4967 24.734 48.284 30.6793 51.6077C30.8613 51.7117 31.2167 51.664 31.4117 51.5557C34.9043 49.61 38.2757 47.478 41.4693 45.073C45.963 41.6887 50.058 37.9057 53.23 33.217C55.9947 29.1307 57.8623 24.715 58.001 19.7014C58.1353 14.7744 56.4843 10.5797 52.801 7.26038C48.9053 3.75905 43.4193 3.00071 38.9343 5.30605C36.2433 6.68838 34.2847 8.83338 32.6813 11.3554C31.728 12.8547 30.3067 12.82 29.2883 11.377C28.4173 10.142 27.5333 8.88105 26.463 7.82805C23.239 4.64305 19.3823 3.26505 14.8713 4.32671C10.6333 5.32338 7.65201 7.96671 5.70201 11.78C3.36201 16.3604 3.57001 21.088 5.09101 25.8504C5.14301 26.0107 5.45934 26.184 5.65434 26.1884C7.11034 26.2187 8.57067 26.1884 10.031 26.2144C10.4687 26.223 10.7027 26.0887 10.8977 25.6814C11.8943 23.636 12.9257 21.6124 13.944 19.5757C14.2777 18.904 14.8237 18.527 15.556 18.514C16.2883 18.501 16.8517 18.8564 17.207 19.515C17.2937 19.6754 17.3717 19.8357 17.4497 19.996C19.378 23.8484 21.302 27.7007 23.2867 31.67V31.6744Z" fill="black"/>
</svg>
