<svg width="200" height="200" viewBox="0 0 200 200" fill="none" xmlns="http://www.w3.org/2000/svg">
<path d="M106.44 58.107L121.16 70.767L110.413 80.0137C108.913 81.287 107.413 82.567 105.967 83.8937C105.293 84.507 104.9 85.647 105.04 86.527C105.18 87.527 106.267 88.387 107.153 88.527C108.02 88.647 108.973 88.187 109.553 87.7004C112.653 85.0604 115.753 82.407 118.833 79.747L122.553 76.5604V106.68C122.547 107.387 122.547 109.034 124.22 109.734C124.593 109.887 124.947 109.954 125.267 109.954C126.407 109.954 127.213 109.16 127.567 108.82C133.28 103.26 138.993 97.7137 144.72 92.1737L146.9 90.0604C147.747 89.2404 147.9 88.4404 147.887 87.9137C147.873 87.3804 147.667 86.5937 146.76 85.8137L137.28 77.6604L129.273 70.767L146.827 55.687C147.673 54.9604 147.867 54.1737 147.887 53.6404C147.9 53.1004 147.753 52.3004 146.947 51.507L143.56 48.2337C138.24 43.0737 132.927 37.907 127.6 32.7537C126.987 32.147 126.427 31.807 125.847 31.6804C124.753 31.4404 124.007 31.7937 123.587 32.1337C123.107 32.5204 122.54 33.287 122.54 34.7804V64.987L112.187 56.0737C111.233 55.247 110.273 54.4204 109.307 53.6137C108.673 53.087 107.947 52.8404 107.22 52.907C106.547 52.9737 105.92 53.3137 105.473 53.8737C104.52 55.0204 104.647 56.4337 105.813 57.5537C105.987 57.7204 106.167 57.8737 106.44 58.1137V58.107ZM127.933 64.927V40.407L141.32 53.407L127.933 64.9204V64.927ZM127.907 101.114V76.5804L141.293 88.1004L127.907 101.114Z" fill="black"/>
<path d="M156.26 142.755C155.987 140.148 154.02 138.408 151.933 136.901C144.593 131.635 137.64 127.441 130.66 124.061C124.853 121.255 122.673 121.708 118.353 126.668L113.333 132.348C107.12 130.488 101.413 127.328 95.9134 122.721C88.1867 116.248 82.7067 108.181 79.58 98.5747C81.38 97.048 83.14 95.4813 84.9 93.908L85.7067 93.188C90.1267 89.2547 90.6 87.0213 88.1067 81.768C84.8534 74.9013 80.6534 67.908 74.8867 59.7613C74.2867 58.9213 73.54 58.1147 72.6067 57.308C70.24 55.2413 67.6934 55.068 65.08 56.7947C64.18 57.388 63.3 58.0413 62.5134 58.7747C56.7467 64.0813 51.4067 70.3547 45.7067 78.508C43.8867 81.1147 43.3267 83.928 43.9534 87.348C45.36 95.0947 48.22 102.721 52.68 110.655C60.0067 123.701 69.9667 135.595 82.2867 146.015C91.84 154.088 101.22 159.961 110.973 163.961C116.92 166.408 122.32 167.815 127.953 168.401L129.933 168.001C130.54 167.768 131.467 167.415 132.347 166.848C140.213 161.748 147.233 155.868 153.2 149.368C154.94 147.468 156.52 145.348 156.253 142.748L156.26 142.755ZM148.607 145.161C143 151.268 136.387 156.808 128.96 161.621C128.673 161.808 128.26 161.975 127.867 162.121C123.1 161.555 118.473 160.295 113.347 158.201C104.213 154.448 95.3667 148.908 86.3267 141.255C74.5734 131.321 65.0867 119.995 58.12 107.601C54.0067 100.288 51.38 93.2947 50.0934 86.2347C49.7734 84.468 49.98 83.3013 50.8334 82.088C56.2667 74.3147 61.3267 68.368 66.7467 63.3613C67.2934 62.8613 67.8934 62.4213 68.5267 62.0213C69.0734 62.4947 69.5 62.9547 69.8 63.3747C75.3467 71.2147 79.38 77.9147 82.4734 84.448C83.2134 86.0147 83.3734 86.5814 83.4134 86.6414C83.2867 86.9147 82.6667 87.548 81.5667 88.528L80.7467 89.2547C78.8867 90.9147 77.02 92.5813 75.1134 94.188C73.86 95.2413 72.56 97.1213 73.5067 100.095C76.92 110.915 83.1067 120.135 91.9067 127.501C98.24 132.815 105.153 136.541 112.453 138.588C114.94 139.275 116.487 138.188 117.4 137.161L123.067 130.761C123.5 130.261 124.807 128.755 125.167 128.581C125.507 128.581 126.433 128.948 127.94 129.681C134.587 132.901 141.247 136.921 148.293 141.968C149.5 142.835 149.913 143.301 150.027 143.301C149.933 143.515 149.627 144.048 148.607 145.155V145.161Z" fill="black"/>
</svg>
