<svg width="212" height="192" viewBox="0 0 212 192" fill="none" xmlns="http://www.w3.org/2000/svg">
<path d="M63.8708 69.9413C64.4134 50.6333 77.0794 34.3785 95.6261 29.4581C119.175 23.2083 143.427 39.0435 147.518 63.2118C149.113 72.6373 147.052 81.3338 143.048 89.752C138.105 100.139 131.421 109.359 123.83 117.906C119.091 123.242 114.018 128.281 109.031 133.392C106.942 135.534 105.323 135.476 103.176 133.436C91.8534 122.679 81.5251 111.083 73.3834 97.6654C69.592 91.4177 66.4239 84.871 64.9289 77.6533C64.403 75.1193 64.2146 72.5148 63.8729 69.9434L63.8708 69.9413ZM105.93 127.255C106.607 126.605 107.033 126.239 107.412 125.826C112.268 120.529 117.281 115.368 121.925 109.891C128.299 102.376 133.896 94.3007 137.919 85.2199C141.019 78.2266 142.47 71.0235 140.874 63.3946C136.757 43.7293 118.19 31.4977 98.5996 35.55C82.6764 38.8441 70.7102 53.5225 70.6439 69.8375C70.617 76.1952 72.6379 82.0088 75.367 87.623C80.0177 97.1898 86.3559 105.606 93.3091 113.561C97.3489 118.184 101.625 122.6 105.93 127.255Z" fill="black"/>
<path d="M105.627 163.913C96.4978 163.812 87.122 162.702 78.123 159.331C74.1143 157.83 70.3436 155.898 67.3474 152.726C62.968 148.088 62.9742 142.098 67.3453 137.454C70.6128 133.983 74.7562 131.96 79.15 130.411C80.9743 129.767 82.5625 130.698 83.1919 132.507C83.7945 134.233 83.1132 135.751 81.3656 136.576C79.3633 137.518 77.2865 138.333 75.3815 139.44C74.0583 140.208 72.8387 141.261 71.8055 142.402C70.1635 144.211 70.0848 146.165 71.909 147.823C73.7995 149.542 75.9613 151.096 78.2514 152.213C83.9063 154.974 90.023 156.301 96.2514 156.729C101.795 157.109 107.385 157.246 112.932 157.003C120.167 156.683 127.292 155.393 133.902 152.236C136.082 151.196 138.165 149.779 139.973 148.174C142.17 146.223 142.052 144.144 140.054 141.97C138.089 139.83 135.546 138.574 132.939 137.437C132.162 137.099 131.351 136.833 130.593 136.455C129.013 135.67 128.417 134.17 128.972 132.538C129.562 130.81 131.003 129.813 132.715 130.363C137.859 132.021 142.644 134.376 145.969 138.86C149.206 143.226 148.754 148.489 144.951 152.6C141.779 156.027 137.72 158.031 133.43 159.579C124.58 162.767 115.386 163.847 105.627 163.913Z" fill="black"/>
<path d="M106.041 86.7291C97.1418 86.7104 89.7331 79.2726 89.7103 70.331C89.6875 61.3479 97.2102 53.8166 106.139 53.8872C115.115 53.9578 122.457 61.3313 122.472 70.2853C122.486 79.2726 115.018 86.7499 106.043 86.7291H106.041ZM115.813 70.2479C115.786 64.7604 111.466 60.5046 105.961 60.5441C100.577 60.5835 96.3322 64.9245 96.3612 70.358C96.3902 75.7645 100.695 80.0805 106.072 80.093C111.495 80.1055 115.84 75.7146 115.813 70.2479Z" fill="black"/>
</svg>
