<svg width="1820" height="1412" viewBox="0 0 1820 1412" fill="none" xmlns="http://www.w3.org/2000/svg">
<g clip-path="url(#clip0_232_3)">
<path d="M1264.32 190.461C939.548 233.523 726.031 482.464 716.631 828.747C713.113 944.426 709.492 1004.1 678.445 1034.97C646.929 1065.37 587.207 1067.74 471.479 1068.85C125.066 1071.05 -128.261 1279.35 -178.067 1603.15C-227.884 1926.96 14.7969 2259.98 342.37 2281.58C702.052 2305.44 1651.31 2312.61 1764.72 2311.85C1824.97 2311.49 1866.18 2300.46 1892.25 2274.38L1890.61 2272.53L1892.34 2274.29C1918.96 2248.78 1930.84 2207.8 1932.46 2147.56C1935.57 2034.21 1948.16 1084.99 1931.79 724.889C1917 396.939 1589.1 147.386 1264.32 190.448L1264.32 190.461Z" stroke="#FFEFDD" stroke-width="5" stroke-miterlimit="10"/>
</g>
<defs>
<clipPath id="clip0_232_3">
<rect width="2399.07" height="2202.57" fill="white" transform="translate(-552 893.344) rotate(-21.8619)"/>
</clipPath>
</defs>
</svg>
