<svg width="1364" height="1033" viewBox="0 0 1364 1033" fill="none" xmlns="http://www.w3.org/2000/svg">
<g clip-path="url(#clip0_101_7)">
<path d="M1947.43 24.01C1629.98 -56.96 1339.12 94.57 1201.45 412.45C1155.11 518.5 1129.53 572.53 1089.22 589.62C1048.65 606.1 992.34 586.06 884.52 544C562.2 417.05 249.53 516.03 82.73 798C-84.08 1079.97 17.14 1479.41 313.11 1621.44C638.04 1777.52 1516.36 2137.65 1621.9 2179.17C1677.95 2201.27 1720.31 2206.38 1754.21 2191.89L1753.38 2189.56L1754.33 2191.84C1788.53 2178.07 1814.82 2144.46 1838.75 2089.16C1883.85 1985.12 2249 1108.85 2367.89 768.55C2476.29 458.68 2264.89 104.97 1947.44 24L1947.43 24.01Z" stroke="#FFEFDD" stroke-width="5" stroke-miterlimit="10"/>
</g>
<defs>
<clipPath id="clip0_101_7">
<rect width="2399.07" height="2202.57" fill="white"/>
</clipPath>
</defs>
</svg>
