<svg width="170" height="170" viewBox="0 0 170 170" fill="none" xmlns="http://www.w3.org/2000/svg">
<g clip-path="url(#clip0_7_129)">
<path d="M85 4.72626C129.354 4.72626 165.274 40.6459 165.274 85C165.274 129.354 129.354 165.274 85 165.274C40.6459 165.274 4.72626 129.354 4.72626 85C4.72626 40.6459 40.6459 4.72626 85 4.72626ZM85 0C38.1009 0 0 38.1009 0 85C0 131.899 38.1009 170 85 170C131.899 170 170 131.899 170 85C170 38.1009 131.899 0 85 0Z" fill="#FF8200"/>
<g clip-path="url(#clip1_7_129)">
<path d="M47.2992 97.4917C46.7387 97.4917 46.1782 97.2809 45.7458 96.8568C44.8709 95.9973 44.8569 94.5905 45.7141 93.7144L70.378 68.5241C70.378 68.5241 70.3881 68.5139 70.3932 68.5089C73.401 65.4972 78.297 65.4972 81.3049 68.5089C82.7632 69.969 83.5658 71.9103 83.5658 73.9773C83.5658 76.0444 82.7632 77.987 81.3049 79.4458L64.7059 96.0658C63.8398 96.933 62.4335 96.933 61.5675 96.0658C60.7014 95.1986 60.7014 93.7918 61.5675 92.9234L78.1664 76.3034C78.7852 75.6838 79.1263 74.8572 79.1263 73.9761C79.1263 73.0949 78.7852 72.2696 78.1664 71.6488C76.8907 70.3715 74.8162 70.3689 73.538 71.6424L48.883 96.8238C48.4481 97.2682 47.8736 97.4904 47.2979 97.4904L47.2992 97.4917Z" fill="#FF8200"/>
<path d="M78.6838 96.7298C78.1157 96.7298 77.5476 96.5127 77.1152 96.0785C76.2491 95.2113 76.2491 93.8045 77.1152 92.9361L93.3464 76.6843C93.9652 76.0647 94.3064 75.2381 94.3064 74.357C94.3064 73.4758 93.9652 72.6505 93.3464 72.0297C92.7289 71.4113 91.9059 71.071 91.0284 71.071C90.1509 71.071 89.3279 71.4113 88.7117 72.0297L81.3062 79.4445C80.4401 80.3117 79.0338 80.3117 78.1677 79.4445C77.3016 78.5773 77.3016 77.1706 78.1677 76.3021L85.5732 68.8872C87.0289 67.4296 88.9665 66.6272 91.0284 66.6272C93.0903 66.6272 95.0291 67.4296 96.4836 68.8872C97.9419 70.3473 98.7446 72.2887 98.7446 74.3557C98.7446 76.4227 97.9419 78.3653 96.4836 79.8242L80.2524 96.076C79.8187 96.5102 79.2506 96.7273 78.6838 96.7273V96.7298Z" fill="#FF8200"/>
<path d="M83.5405 107.446C82.9724 107.446 82.4043 107.229 81.9719 106.795C81.1058 105.927 81.1058 104.521 81.9719 103.652L93.7141 91.8949C94.333 91.2753 94.6741 90.4488 94.6741 89.5676C94.6741 88.6864 94.333 87.8612 93.7141 87.2403C92.4359 85.9605 90.3563 85.9605 89.0794 87.2403L72.4804 103.86C71.6143 104.727 70.2093 104.727 69.3419 103.86C68.4759 102.993 68.4759 101.586 69.3419 100.718L85.9409 84.0979C88.9488 81.0862 93.8435 81.0862 96.8526 84.0979C98.3109 85.558 99.1136 87.4993 99.1136 89.5676C99.1136 91.6359 98.3109 93.5772 96.8526 95.0361L85.1103 106.793C84.6766 107.227 84.1086 107.445 83.5417 107.445L83.5405 107.446Z" fill="#FF8200"/>
<path d="M76.6929 129.716C76.1223 129.716 75.5504 129.496 75.1167 129.058C74.2545 128.187 74.2608 126.779 75.1307 125.916L93.7332 107.455C94.3457 106.841 94.6868 106.015 94.6868 105.135C94.6868 104.255 94.3457 103.429 93.7268 102.808C93.1093 102.189 92.2863 101.849 91.4088 101.849C90.5313 101.849 89.7084 102.189 89.0921 102.808L80.2663 111.645C79.4003 112.512 77.994 112.512 77.1279 111.645C76.2618 110.777 76.2618 109.371 77.1279 108.502L85.9536 99.6653C87.4094 98.2077 89.347 97.4053 91.4088 97.4053C93.4707 97.4053 95.4096 98.2077 96.864 99.6653C98.3223 101.125 99.125 103.067 99.125 105.134C99.125 107.201 98.3223 109.143 96.864 110.602L78.2552 129.071C77.8228 129.5 77.2572 129.715 76.6929 129.715V129.716Z" fill="#FF8200"/>
<path d="M59.0985 137C52.1584 137 45.2183 134.355 39.9356 129.065C36.8694 125.994 34.6427 122.361 33.3163 118.262C32.052 114.354 31.6893 110.132 32.2701 106.053C32.6226 103.561 32.7938 101.266 32.7938 99.0406V80.897C32.7938 76.3465 36.4915 72.6442 41.0362 72.6442C43.2401 72.6442 45.3109 73.5025 46.8655 75.0603C48.4164 76.6132 49.2723 78.6789 49.2787 80.878L49.5196 95.2342C49.5399 96.4607 48.5635 97.4726 47.3385 97.4929C47.3258 97.4929 47.3132 97.4929 47.3005 97.4929C46.092 97.4929 45.1029 96.5229 45.0826 95.3078L44.8417 80.9351C44.8417 80.9224 44.8417 80.9097 44.8417 80.8983C44.8417 79.8788 44.4461 78.9214 43.7296 78.2028C43.0119 77.4842 42.0558 77.0893 41.0375 77.0893C38.9401 77.0893 37.2333 78.7983 37.2333 80.8983V99.0419C37.2333 101.478 37.0482 103.976 36.6665 106.679C36.1808 110.094 36.4839 113.627 37.5414 116.895C38.6497 120.318 40.5113 123.356 43.0765 125.925C51.9124 134.772 66.291 134.772 75.1269 125.925C75.993 125.057 77.398 125.057 78.2653 125.925C79.1314 126.792 79.1314 128.199 78.2653 129.067C72.9813 134.358 66.0425 137.003 59.1023 137.003L59.0985 137Z" fill="#FF8200"/>
<path d="M122.229 132.395C122.048 132.395 121.865 132.372 121.686 132.328L83.2387 122.615C82.0505 122.315 81.3302 121.106 81.6295 119.917C81.9288 118.727 83.136 118.006 84.3241 118.305L120.62 127.475L138.086 58.1178L80.4616 43.5648C79.2734 43.2652 78.5532 42.0565 78.8524 40.8668C79.1517 39.6771 80.3589 38.9559 81.5471 39.2556L141.324 54.352C142.512 54.6516 143.232 55.8603 142.933 57.05L124.381 130.716C124.238 131.288 123.873 131.779 123.367 132.081C123.02 132.288 122.626 132.395 122.229 132.395Z" fill="#FF8200"/>
<path d="M54.6806 89.9625C54.5005 89.9625 54.3192 89.9409 54.1366 89.8939C52.9484 89.5943 52.2282 88.3856 52.5274 87.1959L63.2299 44.6873C63.5292 43.4976 64.7363 42.7751 65.9245 43.0761C67.1127 43.3757 67.833 44.5844 67.5337 45.7741L56.8312 88.2827C56.5776 89.2908 55.6735 89.9625 54.6806 89.9625Z" fill="#FF8200"/>
<path d="M70.099 56.1003C69.2874 56.1003 68.5405 55.6572 68.1512 54.9437L63.4036 46.2464L54.7301 41.4928C54.0187 41.103 53.5761 40.3551 53.5761 39.5438C53.5761 38.7325 54.0187 37.9847 54.7301 37.5949L63.4049 32.8412L68.1525 24.1554C68.5418 23.4431 69.2887 23 70.099 23C70.9093 23 71.6562 23.4431 72.0455 24.1554L76.7931 32.84L85.4793 37.5936C86.1907 37.9834 86.6345 38.7312 86.6345 39.5438C86.6345 40.3564 86.192 41.1042 85.4793 41.494L76.7931 46.2477L72.0455 54.9449C71.6562 55.6572 70.9093 56.1016 70.0977 56.1016L70.099 56.1003ZM60.4173 39.5438L66.1046 42.6609C66.4774 42.8653 66.783 43.1713 66.9859 43.5446L70.0977 49.2466L73.2096 43.5446C73.4137 43.1713 73.7193 42.864 74.0921 42.6609L79.7857 39.5451L74.0921 36.4293C73.7193 36.2262 73.4137 35.9189 73.2096 35.5469L70.0965 29.8524L66.9834 35.5469C66.7805 35.9189 66.4736 36.2249 66.102 36.4293L60.4148 39.5464L60.4173 39.5438Z" fill="#FF8200"/>
<path d="M112.604 120.244C111.793 120.244 111.047 119.801 110.658 119.089L107.724 113.718L102.359 110.78C101.647 110.39 101.205 109.642 101.205 108.831C101.205 108.02 101.647 107.272 102.359 106.882L107.722 103.944L110.657 98.562C111.046 97.8484 111.793 97.4041 112.604 97.4041C113.416 97.4041 114.163 97.8484 114.552 98.562L117.487 103.944L122.85 106.882C123.562 107.272 124.004 108.02 124.004 108.831C124.004 109.642 123.562 110.39 122.85 110.78L117.485 113.718L114.551 119.089C114.162 119.801 113.415 120.244 112.604 120.244ZM108.047 108.83L110.422 110.131C110.795 110.336 111.101 110.642 111.305 111.015L112.604 113.393L113.904 111.015C114.108 110.642 114.414 110.336 114.787 110.131L117.162 108.83L114.787 107.528C114.414 107.324 114.107 107.017 113.904 106.643L112.606 104.262L111.307 106.643C111.103 107.017 110.797 107.324 110.425 107.528L108.05 108.83H108.047Z" fill="#FF8200"/>
<path d="M114.621 79.7797H114.619C113.808 79.7797 113.061 79.3341 112.673 78.6205L109.751 73.2511L104.389 70.3143C103.677 69.9246 103.235 69.1767 103.235 68.3654C103.235 67.5541 103.677 66.8062 104.389 66.4165L109.751 63.4797L112.673 58.1103C113.061 57.3967 113.808 56.9523 114.619 56.951H114.621C115.432 56.951 116.178 57.3942 116.567 58.1065L119.501 63.4772L124.865 66.4152C125.577 66.805 126.019 67.5528 126.019 68.3641C126.019 69.1755 125.577 69.9233 124.865 70.3131L119.501 73.2511L116.567 78.6218C116.178 79.3341 115.431 79.7772 114.621 79.7772V79.7797ZM110.076 68.3654L112.451 69.6668C112.824 69.8712 113.131 70.1785 113.335 70.553L114.623 72.921L115.919 70.5492C116.123 70.176 116.429 69.87 116.802 69.6668L119.177 68.3654L116.802 67.064C116.429 66.8596 116.123 66.5536 115.919 66.1816L114.623 63.8098L113.335 66.1778C113.131 66.5523 112.825 66.8596 112.451 67.064L110.076 68.3654Z" fill="#FF8200"/>
</g>
</g>
<defs>
<clipPath id="clip0_7_129">
<rect width="170" height="170" fill="white"/>
</clipPath>
<clipPath id="clip1_7_129">
<rect width="111" height="114" fill="white" transform="translate(32 23)"/>
</clipPath>
</defs>
</svg>
