<svg width="164" height="118" viewBox="0 0 164 118" fill="none" xmlns="http://www.w3.org/2000/svg">
<g clip-path="url(#clip0_6016_24)">
<path fill-rule="evenodd" clip-rule="evenodd" d="M114.53 19.0169C113.917 19.1452 113.331 19.1966 112.743 19.1966V19.1709C110.32 19.1709 107.998 18.2217 106.263 16.5029C104.095 14.3479 103.201 11.3721 103.762 8.31934C104.426 4.72782 107.284 1.82894 110.881 1.13629C113.917 0.520603 117.03 1.46979 119.173 3.6247C121.316 5.75396 122.234 8.8324 121.673 11.8339C120.985 15.451 118.127 18.3243 114.53 19.0169ZM74.8309 64.2701H46.2306C43.8579 64.2701 41.9444 62.346 41.9444 59.9603V57.8823C41.9444 55.5222 43.8579 53.5725 46.2051 53.5725L67.7382 53.4955L89.9348 26.8926L85.8271 26.9952L76.0811 38.1033C74.5758 39.8221 71.9989 40.0274 70.2385 38.565L68.8353 37.385C67.9933 36.6924 67.4831 35.7175 67.4065 34.6401C67.33 33.5626 67.6616 32.5365 68.376 31.7156L80.8775 17.2725H81.4643L101.314 16.8107L115.856 29.4323L123.842 21.454C125.449 19.8379 128.026 19.8122 129.684 21.377L131.011 22.6341C131.802 23.378 132.261 24.4042 132.261 25.4816C132.287 26.5591 131.879 27.5852 131.113 28.3549L116.34 43.234H116.009L115.524 43.388L105.064 34.7939C103.023 37.1541 97.8693 43.0032 95.9304 45.2093L107.769 58.0875L107.717 58.9341L100.497 86.4605C99.9869 88.4359 98.1755 89.7443 96.2365 89.7443C95.9049 89.7443 95.5477 89.6929 95.1905 89.616L93.2004 89.1285C92.0524 88.8464 91.1083 88.1537 90.496 87.1276C89.9093 86.1014 89.7306 84.9213 90.0112 83.7669L95.369 62.1409L85.572 52.0846L74.8309 64.2701ZM130.501 41.1304L131.7 41.5922C151.983 49.5705 163.617 61.8842 163.617 75.4038C163.617 99.2104 127.771 117.835 82 117.835C36.2293 117.835 0.38324 99.1847 0.38324 75.4038C0.38324 64.1161 8.52195 53.5724 23.3197 45.6967C24.5697 45.0298 25.8964 44.3884 27.2487 43.7471L23.8554 35.7944L40.1073 42.3361L33.6015 58.6775L30.2592 50.8275C29.1111 51.3662 27.9631 51.9306 26.8915 52.495C14.7217 58.9597 8.0372 67.092 8.0372 75.4038C8.0372 94.2336 41.9187 110.139 82 110.139C122.081 110.139 155.963 94.2336 155.963 75.4038C155.963 65.2192 146.114 55.5222 128.919 48.7496L127.719 48.2878L130.501 41.1304Z" fill="url(#paint0_linear_6016_24)"/>
</g>
<defs>
<linearGradient id="paint0_linear_6016_24" x1="37.4278" y1="11.4513" x2="102.011" y2="117.835" gradientUnits="userSpaceOnUse">
<stop offset="0.0192788" stop-color="#8F91AF"/>
<stop offset="1" stop-color="#4C608D"/>
</linearGradient>
<clipPath id="clip0_6016_24">
<rect width="163.234" height="116.883" fill="white" transform="translate(0.38324 0.951782)"/>
</clipPath>
</defs>
</svg>
